<svg width="26" height="26" viewBox="0 0 26 26" fill="none" xmlns="http://www.w3.org/2000/svg">
<path d="M11.9349 0.0307169C18.5838 -0.415611 24.5439 4.04465 25.722 10.6316C25.8436 11.3105 26.0082 12.4932 25.9055 13.154C25.7658 14.0595 24.2818 14.1629 24.1149 13.0294C24.0062 12.2938 24.0606 11.5424 23.9042 10.7524C22.3289 2.7978 12.8404 -0.874778 6.29805 4.00462C-1.40885 9.75176 1.35521 22.0382 10.7568 23.8998C11.5467 24.0562 12.2982 24.0018 13.0338 24.1105C14.1794 24.2797 14.0722 25.7894 13.1063 25.9057C11.4675 26.1028 8.83404 25.3672 7.34704 24.6528C1.1362 21.6697 -1.67468 14.2807 1.02594 7.89017C2.86563 3.53715 7.17711 0.35017 11.9349 0.0307169Z" fill="url(#paint0_linear_2_2795)"/>
<path d="M24.081 24.0765C20.9514 27.2061 15.5758 26.1964 13.8026 22.156C11.5558 17.0365 16.5508 11.7379 21.7972 13.6524C26.1019 15.2232 27.3261 20.8314 24.081 24.0765ZM19.3405 15.0691C15.9126 15.2776 13.9438 19.068 15.7669 22.0012C17.5953 24.942 21.9958 24.7653 23.6014 21.7044C25.2274 18.6043 22.8334 14.8569 19.3405 15.0699V15.0691Z" fill="url(#paint1_linear_2_2795)"/>
<path d="M13.3441 5.45431C13.9663 5.33877 14.3606 5.67332 14.4852 6.26541C14.3636 8.21309 14.6642 10.3911 14.4927 12.3116C14.4716 12.5487 14.3923 12.7776 14.2375 12.9603L9.31804 17.8767C8.46088 18.5126 7.41642 17.5346 8.0221 16.6374L12.6704 11.9582L12.687 6.15213C12.7338 5.82285 13.017 5.51473 13.3448 5.45356L13.3441 5.45431Z" fill="url(#paint2_linear_2_2795)"/>
<path d="M21.767 17.2133C22.5955 17.0412 23.2193 17.8726 22.7541 18.5961C21.7247 19.5046 20.6961 20.9335 19.635 21.7521C19.2665 22.0361 18.8791 22.1192 18.4743 21.836C18.1503 21.6087 16.7539 20.1949 16.4949 19.8581C15.8394 19.007 16.8536 17.9232 17.7961 18.6135C17.9985 18.7615 18.9146 19.8173 19.0324 19.7962L21.4415 17.3961C21.5306 17.3236 21.6545 17.236 21.7662 17.2126L21.767 17.2133Z" fill="url(#paint3_linear_2_2795)"/>
<defs>
<linearGradient id="paint0_linear_2_2795" x1="12.9689" y1="0" x2="12.9689" y2="25.9381" gradientUnits="userSpaceOnUse">
<stop stop-color="#C6DAFF"/>
<stop offset="1" stop-color="#3F78DC"/>
</linearGradient>
<linearGradient id="paint1_linear_2_2795" x1="19.5856" y1="13.252" x2="19.5856" y2="25.9161" gradientUnits="userSpaceOnUse">
<stop stop-color="#C6DAFF"/>
<stop offset="1" stop-color="#3F78DC"/>
</linearGradient>
<linearGradient id="paint2_linear_2_2795" x1="11.1944" y1="5.43164" x2="11.1944" y2="18.0802" gradientUnits="userSpaceOnUse">
<stop stop-color="#C6DAFF"/>
<stop offset="1" stop-color="#3F78DC"/>
</linearGradient>
<linearGradient id="paint3_linear_2_2795" x1="19.5996" y1="17.1904" x2="19.5996" y2="22.0113" gradientUnits="userSpaceOnUse">
<stop stop-color="#C6DAFF"/>
<stop offset="1" stop-color="#3F78DC"/>
</linearGradient>
</defs>
</svg>
