<svg width="23" height="20" viewBox="0 0 23 20" fill="none" xmlns="http://www.w3.org/2000/svg">
<path d="M18.2114 9.95892L11.954 6.64832L11.3594 7.48276C11.5767 7.75296 11.6174 8.07018 11.4547 8.35362C11.3134 8.59931 10.9214 8.78077 10.606 8.61918L7.87603 7.2172C7.56337 7.05627 7.4427 6.72382 7.5267 6.396C7.6107 6.06819 7.92203 5.88474 8.31403 5.92845C8.62803 4.7364 9.1667 3.68607 9.9487 2.72448C9.7207 2.44501 9.66937 2.14766 9.8387 1.86885C9.98137 1.63441 10.3487 1.42051 10.6594 1.58077L13.466 3.02912C13.7627 3.1821 13.8407 3.55958 13.7574 3.82647C13.6587 4.14236 13.3794 4.3258 12.976 4.28938L12.6567 5.25097L19.172 7.88872C19.492 8.01852 19.7687 8.2768 19.8914 8.58475C20.0734 9.0417 19.9014 9.53176 19.5467 9.83243C19.192 10.1331 18.7014 10.2192 18.2107 9.96024L18.2114 9.95892ZM13.0274 3.79733C13.13 3.85031 13.3154 3.72448 13.2987 3.66488C13.2847 3.61455 13.2314 3.49799 13.1707 3.46686L10.5247 2.10329C10.4567 2.06819 10.336 2.09335 10.2867 2.11653C10.2374 2.13971 10.2587 2.36024 10.3274 2.396L13.0274 3.79733ZM10.884 7.25494C11.6687 6.30594 12.17 5.2768 12.506 4.08011L10.4 2.99137C9.59003 3.96686 9.07537 5.01521 8.78603 6.18806L10.8847 7.25428L10.884 7.25494ZM18.5534 9.60064C18.9174 9.79269 19.312 9.43243 19.392 9.19004C19.4894 8.89402 19.3734 8.51124 19.04 8.37614L12.4694 5.71653C12.3547 5.93309 12.2814 6.08408 12.2134 6.25693L18.5527 9.59998L18.5534 9.60064ZM10.7687 8.16819C10.836 8.20329 11.0047 8.1417 11.0247 8.08011C11.0447 8.01852 10.9867 7.86686 10.92 7.83243L8.24137 6.47018C8.18203 6.43971 8.0287 6.48143 8.0087 6.53905C7.9887 6.59667 8.0327 6.75892 8.10537 6.79667L10.768 8.16819H10.7687Z" fill="#CE2029"/>
<path d="M9.92745 16.447L16.4268 16.4437C15.6408 15.4014 15.7261 14.1874 16.4621 13.1722L6.01012 13.1629C5.04278 13.1623 4.27612 13.7166 4.19212 14.6775C4.11612 15.5431 4.77812 16.4014 5.71612 16.4318L6.57678 16.4596L6.58278 16.9444C6.21878 16.949 5.91545 16.9669 5.56945 16.9285C4.44745 16.8033 3.64545 15.8338 3.68212 14.7424C3.71745 13.6722 4.58012 12.6702 5.75812 12.6682L16.9834 12.6523C17.0774 12.6523 17.2428 12.7702 17.2601 12.8451C17.2774 12.9199 17.2228 13.0709 17.1621 13.1358C16.1668 14.1987 16.0708 15.4583 17.1488 16.4848C17.1988 16.5325 17.2594 16.6623 17.2694 16.7252C17.2808 16.8007 17.1248 16.9497 17.0428 16.9497L9.94278 16.951C9.91412 16.808 9.91078 16.7066 9.92745 16.4477V16.447Z" fill="#CE2029"/>
<path d="M13.932 12.1562H7.13395C6.95729 12.1562 6.75395 12.0489 6.67729 11.9357C6.59529 11.8151 6.57529 11.5747 6.62929 11.4443L6.92729 10.7191C7.00929 10.5191 7.23062 10.3953 7.46329 10.3953L13.6566 10.3966C13.868 10.3966 14.068 10.5496 14.138 10.7257L14.4473 11.4992C14.488 11.6006 14.4473 11.8403 14.386 11.9297C14.306 12.0476 14.1106 12.1562 13.932 12.1562ZM13.962 11.6575L13.6493 10.8933H7.42662L7.11729 11.6588H13.962V11.6575Z" fill="#CE2029"/>
<path d="M8.94197 17.5974L8.25463 16.6451L7.5673 17.5822C7.52597 17.6391 7.36597 17.704 7.29663 17.6967C7.21397 17.6875 7.10663 17.5272 7.10663 17.4265V14.3159L6.45063 14.306C6.34863 14.3047 6.19863 14.1623 6.19197 14.0696C6.18397 13.9563 6.32997 13.8 6.46463 13.8H12.002C12.154 13.8 12.286 13.9338 12.2826 14.0702C12.2806 14.1683 12.132 14.3067 12.0086 14.3067L9.40463 14.308L9.4013 17.4179C9.4013 17.4967 9.32196 17.6325 9.2673 17.6702C9.20196 17.7159 8.99196 17.6676 8.9413 17.5974H8.94197ZM8.5053 16.1457L8.8813 16.5967L8.89063 14.3087H7.6133L7.63063 16.6027L8.01997 16.1014C8.0673 16.0398 8.21197 15.9265 8.28397 15.955C8.34397 15.9782 8.4493 16.0782 8.50463 16.1457H8.5053Z" fill="#CE2029"/>
<path d="M13.3615 9.88672L7.73279 9.88937C7.62479 9.88937 7.49146 9.72116 7.49146 9.63572C7.49146 9.55029 7.62212 9.38672 7.73145 9.38672H13.3361C13.4161 9.38672 13.5535 9.51851 13.5815 9.58738C13.6141 9.66751 13.4895 9.88738 13.3615 9.88738V9.88672Z" fill="#CE2029"/>
<path d="M14.8687 15.8193L9.93668 15.8239C9.90601 15.6405 9.90601 15.4882 9.94201 15.312L14.842 15.314C14.9293 15.314 15.0513 15.4663 15.074 15.5385C15.0967 15.6107 14.95 15.8193 14.8687 15.8193Z" fill="#CE2029"/>
</svg>
