<?xml version="1.0" encoding="UTF-8"?>
<svg id="Ebene_1" xmlns="http://www.w3.org/2000/svg" version="1.1" viewBox="0 0 270 303">
  <!-- Generator: Adobe Illustrator 30.1.0, SVG Export Plug-In . SVG Version: 2.1.1 Build 136)  -->
  <defs>
    <style>
      .st0 {
        fill: #ce2029;
      }
    </style>
  </defs>
  <path class="st0" d="M171.55,88.58l-.19-48.41-128.35.02v225.3s173.82.07,173.82.07c1.14,0,3.51,2.11,3.28,3.04-.27,1.11-1.66,2.87-2.99,4.14l-176.85.02c-2.84,0-4.6-2.04-4.6-4.93V37.17c0-1.87,1.85-3.67,3.41-4.22l137.19.02,49.35,52.98.02,143.01c-.75,1.57-1.43,2.88-2.18,3.39-.94.64-3.69-.42-4.93-1.55l-.05-139.71h-41.49c-1.68-.42-3.58-1.29-5.44-2.51ZM213.13,83.44l-20.21-22.41-14.44-14.54.08,37.24c11.96.16,22.61.24,34.57-.29Z"/>
  <path class="st0" d="M120.16,152.25l-22.24-.02-4.9,14.03-12.25-.25,20.86-58.18,14.83-.05,20.96,58.14-12.45.28-4.82-13.95ZM117.24,142.62l-8.14-24.24c-3.69,8.61-5.68,15.6-8.35,24.6,6.21.03,10.87-.03,16.49-.36Z"/>
  <path class="st0" d="M150.89,166.07l-.08-44.64c-5.02,2.85-8.33,4.59-13.45,6.83-1.26-3.31-1.84-6.96-1.49-10.11,17.03-5.79,12.82-13.07,27.09-9.71l.02,57.3c-4.39.49-7.87.55-12.1.34Z"/>
  <path class="st0" d="M182.2,203.01l-102.22.05c-1.57,0-3.72-1.59-4.16-2.69-.52-1.29,1.53-4.52,3.32-4.52h103.78c1.04,0,2.78,2.5,2.65,3.53s-2.07,3.63-3.37,3.63Z"/>
  <path class="st0" d="M181.86,233.14l-102.66-.02c-1.31,0-3.51-2.43-3.53-3.63s2.21-3.58,3.56-3.58l102.58-.05c1.87.64,3.61,2.17,3.74,3.6.12,1.27-2.08,3.68-3.68,3.67Z"/>
</svg>