<?xml version="1.0" encoding="UTF-8"?>
<svg id="Ebene_1" xmlns="http://www.w3.org/2000/svg" version="1.1" viewBox="0 0 333 305">
  <!-- Generator: Adobe Illustrator 30.1.0, SVG Export Plug-In . SVG Version: 2.1.1 Build 136)  -->
  <defs>
    <style>
      .st0 {
        fill: #ce2029;
      }
    </style>
  </defs>
  <path class="st0" d="M178.76,81.15l-.26-43H59.01s0,207.63,0,207.63l106.92.05c.94,0,2.89,1.86,2.77,2.73-.16,1.14-1,3.06-1.96,4.48H55.26c-1.66,0-3.46-2.4-3.46-4.15V35.13c0-1.81,1.68-4.14,3.4-4.14h128.2c4.03,3.8,7.19,7.24,10.71,10.97l18.41,19.53,17.18,18.51-.2,59.78c-.62,1.09-3.98,1.97-4.95,1.43s-2.07-2.69-2.08-4.1l-.11-52.05-40.23-.05c-1.36,0-3.33-2.58-3.36-3.86ZM217.03,77.42l-10.74-11.86-16.44-17.49c-1.07-1.14-3.48-3.4-4.16-2.16l.06,31.83,31.27-.32Z"/>
  <path class="st0" d="M171.61,224.97c-1.59-8.13-1.56-16.89-.11-24.45,6.22-32.36,35.93-53.62,67.86-50.55,31.83,3.06,56.27,29.7,56.72,61.58.46,32.2-23.31,59.56-55.06,63.4-32.27,3.9-62.93-16.9-69.41-49.98ZM178.07,218.57c2.36,26.8,24.35,46.62,48.82,49.26,26.78,2.89,50.47-13.25,58.83-37.05,9.01-25.64-2.17-53.06-24.29-66.1-22.98-13.54-52.21-8.86-69.69,10.8-10.76,12.1-15.16,26.29-13.68,43.08Z"/>
  <path class="st0" d="M146.9,130.12c-.15-15.72-12.13-28.99-27.59-29.43-15.53-.45-29.03,11.91-29.33,28.12-.03,1.76-2.13,3.65-3.5,3.62-8.18-.2-3.35-24.54,15.19-35.1.63-.36,1.58-1.21,1.77-1.4.29-.28-.32-.88-.94-1.49-9.23-9.12-9.33-24.32.06-33.27s23.96-8.46,32.56,1.04c8.92,9.86,8.21,24.25-2.74,33.96,14.63,4.59,27.32,30.97,19.02,36.1-.88.55-4.48-.59-4.5-2.15ZM113.97,62.8c-8.87,2.67-13.03,11.87-10.28,20.06,2.5,7.42,11.24,12.45,18.86,10.01,8.04-2.57,13.22-10.99,10.85-19.06s-10.52-13.7-19.44-11.02Z"/>
  <path class="st0" d="M151.32,159.16h-64.39c-1.84,0-4.08-1.26-4.42-2.57-.48-1.89,1.34-4.66,3.69-4.66h64.66c.99,0,3.06,1.92,3.27,2.87.25,1.15-1.15,3.11-2.81,4.35Z"/>
  <path class="st0" d="M151.11,188.89l-64.82.03c-1.5,0-3.75-2.33-3.84-3.59-.13-1.98,2.01-3.84,4.45-3.84h63.19c1.67.01,3.81,1.64,4.16,2.83s-1.57,4.55-3.15,4.55Z"/>
  <path class="st0" d="M152.27,216.19l-67.24.05c-1.18,0-2.78-2.71-2.6-3.75.21-1.25,2.35-3.44,4.04-3.44h63.84c1.48,0,3.22,1.86,3.84,2.65s-.79,4.5-1.87,4.5Z"/>
  <path class="st0" d="M221.86,231.71l-15.43-15.57c-.86-.87-.64-3.63-.19-4.38.56-.95,3.8-1.34,4.63-.55l13.39,12.81,28.53-28.33c1.21-1.2,5.23-1.31,6.03,0,1.08,1.76.17,4.18-1.35,5.7l-30.73,30.68c-.79.79-3.73.82-4.89-.35Z"/>
</svg>