<?xml version="1.0" encoding="UTF-8"?>
<svg id="Ebene_1" xmlns="http://www.w3.org/2000/svg" version="1.1" viewBox="0 0 345 302">
  <!-- Generator: Adobe Illustrator 30.1.0, SVG Export Plug-In . SVG Version: 2.1.1 Build 136)  -->
  <defs>
    <style>
      .st0 {
        fill: #ce2029;
      }
    </style>
  </defs>
  <path class="st0" d="M273.17,150.38l-93.86-49.99-8.92,12.6c3.26,4.08,3.87,8.87,1.43,13.15-2.12,3.71-8,6.45-12.73,4.01l-40.95-21.17c-4.69-2.43-6.5-7.45-5.24-12.4s5.93-7.72,11.81-7.06c4.71-18,12.79-33.86,24.52-48.38-3.42-4.22-4.19-8.71-1.65-12.92,2.14-3.54,7.65-6.77,12.31-4.35l42.1,21.87c4.45,2.31,5.62,8.01,4.37,12.04-1.48,4.77-5.67,7.54-11.72,6.99l-4.79,14.52,97.73,39.83c4.8,1.96,8.95,5.86,10.79,10.51,2.73,6.9.15,14.3-5.17,18.84s-12.68,5.84-20.04,1.93ZM195.41,57.34c1.54.8,4.32-1.1,4.07-2-.21-.76-1.01-2.52-1.92-2.99l-39.69-20.59c-1.02-.53-2.83-.15-3.57.2s-.42,3.68.61,4.22l40.5,21.16ZM163.26,109.55c11.77-14.33,19.29-29.87,24.33-47.94l-31.59-16.44c-12.15,14.73-19.87,30.56-24.21,48.27l31.48,16.1ZM278.3,144.97c5.46,2.9,11.38-2.54,12.58-6.2,1.46-4.47-.28-10.25-5.28-12.29l-98.56-40.16c-1.72,3.27-2.82,5.55-3.84,8.16l95.09,50.48ZM161.53,123.34c1.01.53,3.54-.4,3.84-1.33s-.57-3.22-1.57-3.74l-40.18-20.57c-.89-.46-3.19.17-3.49,1.04s.36,3.32,1.45,3.89l39.94,20.71Z"/>
  <path class="st0" d="M148.91,248.35l97.49-.05c-11.79-15.74-10.51-34.07.53-49.4l-156.78-.14c-14.51-.01-26.01,8.36-27.27,22.87-1.14,13.07,8.79,26.03,22.86,26.49l12.91.42.09,7.32c-5.46.07-10.01.34-15.2-.24-16.83-1.89-28.86-16.53-28.31-33.01.53-16.16,13.47-31.29,31.14-31.32l168.38-.24c1.41,0,3.89,1.78,4.15,2.91s-.56,3.41-1.47,4.39c-14.93,16.05-16.37,35.07-.2,50.57.75.72,1.66,2.68,1.81,3.63.17,1.14-2.17,3.39-3.4,3.39l-106.5.02c-.43-2.16-.48-3.69-.23-7.6Z"/>
  <path class="st0" d="M208.98,183.56h-101.97c-2.65,0-5.7-1.62-6.85-3.33-1.23-1.82-1.53-5.45-.72-7.42l4.47-10.95c1.23-3.02,4.55-4.89,8.04-4.89l92.9.02c3.17,0,6.17,2.31,7.22,4.97l4.64,11.68c.61,1.53,0,5.15-.92,6.5-1.2,1.78-4.13,3.42-6.81,3.42ZM209.43,176.03l-4.69-11.54h-93.34s-4.64,11.56-4.64,11.56h102.67Z"/>
  <path class="st0" d="M134.13,265.72l-10.31-14.38-10.31,14.15c-.62.86-3.02,1.84-4.06,1.73-1.24-.14-2.85-2.56-2.85-4.08v-46.97s-9.84-.15-9.84-.15c-1.53-.02-3.78-2.17-3.88-3.57-.12-1.71,2.07-4.07,4.09-4.07h83.06c2.28,0,4.26,2.02,4.21,4.08-.03,1.48-2.26,3.57-4.11,3.57l-39.06.02-.05,46.96c0,1.19-1.19,3.24-2.01,3.81-.98.69-4.13-.04-4.89-1.1ZM127.58,243.8l5.64,6.81.14-34.55h-19.16s.26,34.64.26,34.64l5.84-7.57c.71-.93,2.88-2.64,3.96-2.21.9.35,2.48,1.86,3.31,2.88Z"/>
  <path class="st0" d="M200.42,149.29l-84.43.04c-1.62,0-3.62-2.54-3.62-3.83s1.96-3.76,3.6-3.76h84.07c1.2,0,3.26,1.99,3.68,3.03.49,1.21-1.38,4.53-3.3,4.53Z"/>
  <path class="st0" d="M223.03,238.87l-73.98.07c-.46-2.77-.46-5.07.08-7.73l73.5.03c1.31,0,3.14,2.3,3.48,3.39s-1.86,4.24-3.08,4.24Z"/>
</svg>