<svg width="48" height="47" viewBox="0 0 48 47" fill="none" xmlns="http://www.w3.org/2000/svg">
<g clip-path="url(#clip0_20_11000)">
<path d="M0 10.9936V10.0769C0.19875 9.36818 0.57 8.86146 1.2075 8.4086L10.9537 1.47855C11.8462 0.843313 12.9825 0.798027 13.8912 1.4455L23.8913 8.56282C24.995 9.3486 25.1812 10.8308 24.4425 11.8736C23.7037 12.9164 22.3387 13.2163 21.1437 12.5566L21.1338 20.3434C21.1313 22.0545 19.72 23.4498 17.965 23.4498H6.92875C5.10125 23.4498 3.7475 21.9945 3.7475 20.2516L3.75 12.5615C2.935 12.9862 2.13625 13.0119 1.3325 12.6362C0.68625 12.3338 0.27375 11.7035 0 10.9948V10.9936ZM12.9963 4.9448L21.8288 11.2323C22.31 11.575 22.9038 11.4563 23.2075 11.0377C23.5112 10.6191 23.4438 10.0536 22.985 9.72803L13.0375 2.64865C12.7088 2.41488 12.2438 2.37449 11.9075 2.61438L1.905 9.72925C1.4225 10.072 1.385 10.6888 1.72125 11.0903C2.04 11.4697 2.6 11.5603 3.05875 11.2335L11.9275 4.92521C12.2737 4.6792 12.61 4.67185 12.9963 4.94602V4.9448ZM13.6237 12.8308C14.7687 12.8295 15.5638 13.6875 15.5638 14.7524V21.9786L17.9713 21.9921C18.9388 21.9444 19.6637 21.2124 19.645 20.2431L19.64 11.4856L12.4487 6.36826L5.25125 11.4856L5.24625 20.3361C5.275 21.2687 5.99 21.9468 6.92 21.9933L9.32875 21.9799L9.32625 14.7512C9.32625 13.6912 10.1263 12.8357 11.2275 12.8344L13.625 12.8308H13.6237ZM14.065 21.9823V14.6606C14.0212 14.4904 13.8375 14.2983 13.6825 14.2983H11.21C11.0763 14.2971 10.8263 14.4978 10.8263 14.6606V21.9909L14.0662 21.9823H14.065Z" fill="#CE2029"/>
<path d="M40.9787 46.1016H29.9425C28.23 46.1016 26.7837 44.7479 26.78 43.0638L26.7637 35.217C25.5775 35.8632 24.1762 35.5499 23.4487 34.5058C22.7212 33.4618 22.9225 31.9943 24.0237 31.2109L34.0887 24.0545C34.925 23.4596 36.0637 23.5012 36.8912 24.09L46.9025 31.2073C47.9687 32.0126 48.2187 33.3871 47.5075 34.4581C46.7962 35.5291 45.3912 35.8963 44.16 35.2084L44.1512 42.9732C44.1487 44.6953 42.7512 46.1028 40.9762 46.1028L40.9787 46.1016ZM35.995 27.5856L44.88 33.9073C45.3437 34.2366 45.9387 34.0909 46.23 33.6809C46.52 33.2745 46.4512 32.6993 45.9837 32.3664L36.0875 25.3249C35.715 25.0593 35.2737 25.0177 34.8937 25.2882L24.9412 32.3676C24.4712 32.7017 24.4 33.2709 24.6937 33.6821C24.9875 34.0934 25.5812 34.2378 26.045 33.9085L34.9662 27.5635C35.2975 27.3285 35.6262 27.3224 35.9962 27.5856H35.995ZM36.7262 35.4899C37.815 35.4936 38.5787 36.3748 38.5787 37.3785V44.6316L40.89 44.6451C41.87 44.6463 42.6425 43.945 42.66 42.9658V34.1435L35.4662 29.0225L28.27 34.135L28.2612 42.9658C28.2812 43.9487 29.0525 44.6488 30.0337 44.6463L32.345 44.6329V37.3809C32.345 36.3283 33.1637 35.4813 34.2475 35.485L36.7275 35.4924L36.7262 35.4899ZM37.0825 44.6316V37.3736C37.0662 37.1679 36.88 36.9464 36.6825 36.9464H34.2425C34.055 36.9464 33.8412 37.1679 33.8412 37.3748L33.8437 44.6427L37.0825 44.6316Z" fill="#CE2029"/>
<path d="M38.765 20.4927L35.8525 16.8686C35.5963 16.5504 35.7338 16.0828 36.0025 15.8821C36.2963 15.6605 36.7625 15.6642 37.0188 15.9727L38.6088 17.8906L38.6275 11.9116C38.63 11.2812 38.1625 10.8345 37.515 10.8345H28.6388C28.1975 10.8333 27.9163 10.4832 27.9025 10.127C27.8888 9.77086 28.1788 9.37062 28.6413 9.37062L37.695 9.38286C39.1025 9.38531 40.1188 10.5909 40.1213 11.8981L40.135 17.8992L41.7013 15.9971C41.9638 15.6789 42.425 15.6361 42.7613 15.8968C43.015 16.0938 43.1425 16.565 42.88 16.8918L39.9575 20.5172C39.6463 20.904 39.0638 20.8599 38.7688 20.4915L38.765 20.4927Z" fill="#CE2029"/>
<path d="M19.0075 38.6134C19.5038 38.6134 19.79 38.9867 19.7838 39.3527C19.7775 39.7578 19.4525 40.0785 18.9925 40.0785L10.1063 40.0749C8.74128 40.0749 7.58003 39.0051 7.57753 37.6588L7.56253 31.5108L5.98878 33.4532C5.72753 33.7764 5.25003 33.791 4.96128 33.572C4.67253 33.3529 4.54878 32.8792 4.81503 32.5487L7.73628 28.9246C8.03003 28.5599 8.61503 28.5733 8.90378 28.9307L11.7975 32.5218C12.0563 32.8425 11.9925 33.2807 11.7363 33.5181C11.4313 33.7996 10.9338 33.7935 10.6563 33.4581L9.07628 31.5488L9.06378 37.567C9.06378 38.1275 9.51003 38.6085 10.11 38.6085L19.01 38.6122L19.0075 38.6134Z" fill="#CE2029"/>
</g>
<defs>
<clipPath id="clip0_20_11000">
<rect width="48" height="47" fill="white"/>
</clipPath>
</defs>
</svg>
