<?xml version="1.0" encoding="UTF-8"?>
<svg id="Ebene_1" xmlns="http://www.w3.org/2000/svg" version="1.1" viewBox="0 0 48 48">
  <!-- Generator: Adobe Illustrator 30.1.0, SVG Export Plug-In . SVG Version: 2.1.1 Build 136)  -->
  <defs>
    <style>
      .st0 {
        fill: #ce2029;
      }
    </style>
  </defs>
  <path class="st0" d="M10.46,8.53c-.5,0-.85.29-.85.76v32.99c0,.44.38.73.79.73h17.66c.45,0,.73.35.75.71.02.38-.27.79-.75.79H10.4c-1.27,0-2.28-.97-2.28-2.26V9.35c0-1.3.82-2.04,2-2.31L29.56,2.66c1.45-.33,2.9.68,2.93,2.17l.03,2.2h.89c1.33,0,2.37.94,2.37,2.31v19.43c0,.47-.37.76-.74.76-.39,0-.75-.28-.75-.76V9.28c0-.46-.36-.76-.81-.76H10.46ZM31.01,7.04v-2.08c-.04-.51-.49-.98-1.06-.85l-12.84,2.92h13.9Z"/>
  <path class="st0" d="M21.15,12.91c5.01-.45,9.32,3.28,9.74,8.16s-3.25,9.3-8.18,9.73c-4.89.42-9.22-3.19-9.7-8.07s3.11-9.36,8.14-9.81ZM21.21,21.11v-6.57c-2.09.92-2.92,4.57-2.99,6.56h2.99ZM25.69,21.1c-.09-1.72-.45-3.31-1.23-4.79-.44-.73-.9-1.41-1.75-1.78v6.56s2.98,0,2.98,0ZM16.72,21.09c.06-2.14.61-4,1.61-5.8-2.11,1.22-3.55,3.26-3.83,5.79h2.21ZM29.4,21.06c-.31-2.59-1.75-4.57-3.83-5.77,1.02,1.81,1.55,3.72,1.62,5.8.76.02,1.49.02,2.21-.03ZM16.73,22.61h-2.23c.28,2.41,1.61,4.55,3.77,5.74-.95-1.85-1.51-3.67-1.54-5.74ZM21.2,29.14v-6.54s-2.99,0-2.99,0c.05,1.95.94,5.75,2.99,6.54ZM25.69,22.6h-2.99s0,6.56,0,6.56c2.09-.93,2.92-4.6,2.98-6.56ZM29.4,22.61h-2.23c0,2.08-.63,3.9-1.51,5.72,2.18-1.23,3.47-3.35,3.74-5.72Z"/>
  <path class="st0" d="M34.16,31.07c3.77-.34,6.98,2.48,7.3,6.11s-2.42,6.97-6.1,7.3-6.94-2.37-7.3-6.02,2.3-7.05,6.1-7.39ZM33.97,32.6c-2.94.44-4.83,3.17-4.4,5.99s3.12,4.81,5.98,4.36,4.78-3.07,4.38-5.89-3.01-4.91-5.97-4.46Z"/>
  <path class="st0" d="M25.77,39.27h-12.82c-.46,0-.74-.42-.72-.79.02-.4.32-.71.79-.71h12.71c.47,0,.79.3.8.71.02.37-.23.79-.76.79Z"/>
  <path class="st0" d="M26.12,36.27h-10.18c-.46,0-.73-.42-.71-.78.02-.4.33-.71.79-.71h10.08c.42,0,.69.38.7.71.02.3-.2.79-.67.79Z"/>
  <path class="st0" d="M33.32,40.02l-1.72-1.73c-.3-.3-.25-.81.06-1.08.29-.24.73-.24,1.04.07l1.19,1.18,2.96-2.96c.29-.29.76-.27,1.04,0,.27.25.33.74,0,1.06l-3.45,3.46c-.33.33-.8.32-1.12,0Z"/>
</svg>