<svg width="11" height="11" viewBox="0 0 11 11" fill="none" xmlns="http://www.w3.org/2000/svg">
<g clip-path="url(#clip0_2_2443)">
<path d="M3.66674 2.50885V9.68148C3.66674 9.69294 3.63036 9.78489 3.6212 9.80723C3.48341 10.1407 3.02307 10.1779 2.82112 9.88372C2.80593 9.86138 2.74463 9.73849 2.74463 9.72416V2.50885L1.22239 4.02078C0.813044 4.36338 0.256742 3.8976 0.526299 3.43182L2.91565 1.0396C3.07721 0.901819 3.33073 0.908407 3.49573 1.0396L5.83208 3.37796C6.16065 3.80364 5.69 4.32414 5.2331 4.0626L3.66674 2.50914V2.50885Z" fill="#A9A9A9"/>
<path d="M8.23386 8.51257L9.75609 7.00064C10.168 6.65775 10.7183 7.12353 10.4522 7.5896L8.06284 9.9821C7.90128 10.1199 7.64776 10.1133 7.48276 9.9821L5.14641 7.64374C4.81784 7.21806 5.28849 6.69757 5.74539 6.9591L7.31175 8.51257V1.33994C7.31175 1.32848 7.34813 1.23652 7.35729 1.21418C7.49622 0.878452 7.95542 0.84379 8.15737 1.1377C8.17255 1.16004 8.23386 1.28293 8.23386 1.29725V8.51257Z" fill="#A9A9A9"/>
</g>
<defs>
<clipPath id="clip0_2_2443">
<rect width="11" height="11" fill="white"/>
</clipPath>
</defs>
</svg>
