<svg width="18" height="20" viewBox="0 0 18 20" fill="none" xmlns="http://www.w3.org/2000/svg">
<path d="M11.4366 5.84675L11.4239 2.65137L2.86726 2.65269V17.524L14.4553 17.5286C14.5313 17.5286 14.6893 17.6679 14.6739 17.7293C14.6559 17.8025 14.5633 17.9187 14.4746 18.0025L2.6846 18.0038C2.49526 18.0038 2.37793 17.8692 2.37793 17.6784V2.45335C2.37793 2.32992 2.50126 2.21111 2.60526 2.1748L11.7513 2.17612L15.0413 5.67315L15.0426 15.1128C14.9926 15.2164 14.9473 15.3029 14.8973 15.3365C14.8346 15.3788 14.6513 15.3088 14.5686 15.2342L14.5653 6.01243H11.7993C11.6873 5.98471 11.5606 5.92728 11.4366 5.84675ZM14.2086 5.50748L12.8613 4.02827L11.8986 3.06853L11.9039 5.52662C12.7013 5.53718 13.4113 5.54246 14.2086 5.50748Z" fill="#CE2029"/>
<path d="M8.01077 10.0496L6.5281 10.0483L6.20143 10.9743L5.38477 10.9578L6.77543 7.11756L7.7641 7.11426L9.16143 10.9519L8.33143 10.9704L8.0101 10.0496H8.01077ZM7.8161 9.41393L7.27343 7.81393C7.02743 8.38224 6.89477 8.84363 6.71677 9.43769C7.13077 9.43967 7.44143 9.43571 7.8161 9.41393Z" fill="#CE2029"/>
<path d="M10.0593 10.9617L10.054 8.01519C9.7193 8.20331 9.49864 8.31816 9.1573 8.46602C9.0733 8.24753 9.03464 8.00661 9.05797 7.79869C10.1933 7.41651 9.91264 6.93598 10.864 7.15776L10.8653 10.9399C10.5726 10.9723 10.3406 10.9762 10.0586 10.9624L10.0593 10.9617Z" fill="#CE2029"/>
<path d="M12.1465 13.4001L5.33188 13.4034C5.22721 13.4034 5.08388 13.2984 5.05455 13.2258C5.01988 13.1407 5.15655 12.9275 5.27588 12.9275H12.1945C12.2639 12.9275 12.3799 13.0925 12.3712 13.1605C12.3625 13.2285 12.2332 13.4001 12.1465 13.4001Z" fill="#CE2029"/>
<path d="M12.124 15.3887L5.28002 15.3874C5.19269 15.3874 5.04602 15.227 5.04469 15.1478C5.04335 15.0686 5.19202 14.9115 5.28202 14.9115L12.1207 14.9082C12.2454 14.9504 12.3614 15.0514 12.37 15.1458C12.378 15.2297 12.2314 15.3887 12.1247 15.3881L12.124 15.3887Z" fill="#CE2029"/>
</svg>
