<svg xmlns="http://www.w3.org/2000/svg" width="18" height="20" fill="none" viewBox="0 0 18 20">
  <path fill="#727272" d="m11.437 5.847-.013-3.196-8.557.002v14.871l11.588.005c.076 0 .234.139.219.2-.018.074-.11.19-.2.274l-11.79.001c-.189 0-.306-.135-.306-.325V2.453c0-.123.123-.242.227-.278l9.146.001 3.29 3.497.002 9.44c-.05.104-.096.19-.146.224-.062.042-.246-.028-.328-.103l-.004-9.221H11.8a1.235 1.235 0 0 1-.362-.166Zm2.772-.34L12.86 4.029l-.962-.96.005 2.459c.797.01 1.507.016 2.305-.02Z"/>
  <path fill="#727272" d="m8.01 10.05-1.482-.002-.327.926-.816-.016 1.39-3.84.99-.004 1.396 3.838-.83.018-.32-.92Zm-.194-.636-.543-1.6c-.246.568-.378 1.03-.556 1.624.414.002.724-.002 1.1-.024Zm2.244 1.548-.006-2.947a8.625 8.625 0 0 1-.897.451 1.469 1.469 0 0 1-.099-.667c1.135-.382.855-.863 1.806-.641l.001 3.782a4.74 4.74 0 0 1-.806.022Zm2.086 2.438-6.814.003c-.105 0-.248-.105-.277-.177-.035-.085.102-.299.22-.299h6.92c.069 0 .185.165.176.233-.008.068-.138.24-.225.24Zm-.022 1.989-6.844-.002c-.087 0-.234-.16-.235-.24-.002-.078.147-.236.237-.236l6.839-.003c.124.042.24.143.249.238.008.084-.139.243-.245.242h-.001Z"/>
</svg>
