<svg width="27" height="26" viewBox="0 0 27 26" fill="none" xmlns="http://www.w3.org/2000/svg">
<path d="M26.9844 20.7397C27.0052 20.5245 27.0052 20.1359 26.9844 19.9207C26.9434 19.4895 26.7762 18.9669 26.6379 18.5547C23.7513 13.6369 21.1366 8.51948 18.1606 3.65521C16.2328 0.504189 12.6734 0.0289981 10.2621 2.92482C7.25932 8.13161 4.22629 13.3262 1.32554 18.5899C0.153831 21.5832 2.28843 24.8283 5.43426 24.9914C11.3338 24.944 17.2467 25.0767 23.1382 24.9237C25.1728 24.6015 26.789 22.7948 26.9844 20.7391V20.7397ZM14.1519 3.14143C15.6339 3.23552 16.0811 4.28135 16.7391 5.39554C19.4404 9.96672 21.9699 14.6469 24.6416 19.2363C25.4152 21.0017 24.2267 22.8199 22.3385 22.8896C16.6088 22.849 10.8658 22.9742 5.14419 22.826C3.5931 22.4936 2.69333 20.8325 3.28556 19.3392L11.8757 4.29692C12.3497 3.52727 13.2602 3.08525 14.1513 3.14143H14.1519Z" fill="url(#paint0_linear_2_2713)"/>
<path d="M13.5973 8.39082C13.0274 8.37139 12.5028 8.65683 12.2697 9.16203C12.1013 9.52586 12.1396 9.96942 12.1507 10.3647C12.1945 11.8596 12.3713 13.4241 12.468 14.9243C12.507 15.53 12.3114 16.2182 12.8855 16.651C13.5555 17.1555 14.4378 16.7716 14.5561 15.9776C14.7461 14.7012 14.7064 13.1025 14.7809 11.7845C14.8414 10.7051 15.3952 8.45314 13.5973 8.39082Z" fill="url(#paint1_linear_2_2713)"/>
<path d="M12.5376 20.0522C13.9104 21.3936 15.9164 19.1677 14.3335 18.0428C12.9474 17.0578 11.4104 18.95 12.5376 20.0522Z" fill="url(#paint2_linear_2_2713)"/>
<defs>
<linearGradient id="paint0_linear_2_2713" x1="14" y1="1" x2="14" y2="25" gradientUnits="userSpaceOnUse">
<stop stop-color="#F8EB30"/>
<stop offset="1" stop-color="#BAAD00"/>
</linearGradient>
<linearGradient id="paint1_linear_2_2713" x1="13.5236" y1="8.38989" x2="13.5236" y2="16.8783" gradientUnits="userSpaceOnUse">
<stop stop-color="#F8EB30"/>
<stop offset="1" stop-color="#BAAD00"/>
</linearGradient>
<linearGradient id="paint2_linear_2_2713" x1="13.531" y1="17.7676" x2="13.531" y2="20.4693" gradientUnits="userSpaceOnUse">
<stop stop-color="#F8EB30"/>
<stop offset="1" stop-color="#BAAD00"/>
</linearGradient>
</defs>
</svg>
