<svg xmlns="http://www.w3.org/2000/svg" width="13" height="337" fill="none" viewBox="0 0 13 337">
  <path fill="#AFAFAF" d="M12.354 333.17a.5.5 0 0 0 0-.707l-3.182-3.182a.5.5 0 0 0-.708.707l2.829 2.829-2.829 2.828a.5.5 0 1 0 .708.707l3.182-3.182Zm0-46.634a.501.501 0 0 0 0-.708l-3.182-3.182a.5.5 0 0 0-.708.708l2.829 2.828-2.829 2.828a.501.501 0 0 0 .708.708l3.182-3.182Zm0-47a.501.501 0 0 0 0-.708l-3.182-3.182a.5.5 0 0 0-.708.708l2.829 2.828-2.829 2.828a.501.501 0 0 0 .708.708l3.182-3.182Zm0-47a.501.501 0 0 0 0-.708l-3.182-3.182a.5.5 0 0 0-.708.708l2.829 2.828-2.829 2.828a.501.501 0 0 0 .708.708l3.182-3.182Zm0-47a.501.501 0 0 0 0-.708l-3.182-3.182a.5.5 0 0 0-.708.708l2.829 2.828-2.829 2.828a.501.501 0 0 0 .708.708l3.182-3.182Zm0-47.5a.5.5 0 0 0 0-.707l-3.182-3.182a.5.5 0 1 0-.708.707l2.829 2.828-2.829 2.828a.501.501 0 0 0 .708.708l3.182-3.182Zm0-46.5a.5.5 0 0 0 0-.708l-3.182-3.181a.5.5 0 1 0-.708.707l2.829 2.828-2.829 2.828a.5.5 0 1 0 .708.708l3.182-3.182Zm0-47.5a.5.5 0 0 0 0-.708L9.172.146a.5.5 0 1 0-.708.708l2.829 2.828L8.464 6.51a.5.5 0 1 0 .708.708l3.182-3.182ZM0 332.817v.5h12v-1H0v.5Zm0-46.635v.5h12v-1H0v.5Zm0-47v.5h12v-1H0v.5Zm0-47v.5h12v-1H0v.5Zm0-47v.5h12v-1H0v.5Zm0-47.5v.5h12v-1H0v.5Zm0-46.5v.5h12v-1H0v.5Zm0-47.5v.5h12v-1H0v.5Z"/>
</svg>
