<svg width="52" height="52" viewBox="0 0 52 52" fill="none" xmlns="http://www.w3.org/2000/svg">
<path d="M40.9042 36.8277C40.0144 37.6314 39.1532 38.2916 38.1486 38.8657V40.9899C38.0912 44.3196 35.3929 46.8456 32.1206 46.8456H10.793C7.63553 46.8456 4.87988 44.3196 4.87988 41.076V10.6778C4.87988 7.52025 7.57812 4.93683 10.7069 4.93683H32.3502C35.6513 4.93683 38.206 7.72118 38.1773 10.9648V17.1937C44.2914 20.5522 46.4442 28.245 42.9135 34.2443L46.2433 37.574C46.9322 38.2055 46.9322 39.2389 46.3294 39.8704C45.6692 40.5593 44.6645 40.5306 43.9756 39.8704L40.9616 36.8564L40.9042 36.8277ZM34.8762 41.3343C34.9337 40.9325 34.9049 40.5019 34.8762 40.1C29.8816 41.2195 24.8296 39.0954 22.0166 34.9906C19.2035 30.8858 19.1461 25.2597 22.0166 21.0688C24.887 16.878 29.8529 14.8686 34.9049 15.9594V10.8787C34.9049 9.29993 33.6994 8.15175 32.1206 8.15175H10.6782C9.18558 8.15175 8.03739 9.41475 8.03739 10.8787V40.875C8.03739 42.4251 9.21428 43.602 10.7643 43.602H32.2067C33.5845 43.602 34.6753 42.5973 34.8762 41.3056V41.3343ZM31.0298 18.9734C25.9491 19.6623 22.5332 24.3125 23.1935 29.2497C23.8537 34.1869 28.4751 37.7175 33.4123 37.086C38.3495 36.4545 41.9089 31.8905 41.3061 26.9246C40.7033 21.9587 36.1392 18.3132 31.0298 18.9734Z" fill="#CE2029"/>
<path d="M23.7104 16.7348H12.8887C11.9702 16.7348 11.2812 15.9885 11.2812 15.1561C11.2812 14.3236 11.9415 13.5199 12.9174 13.5199H23.653C24.5428 13.5199 25.203 14.2662 25.2317 15.0699C25.2604 15.845 24.6576 16.7348 23.7104 16.7348Z" fill="#CE2029"/>
<path d="M17.2805 23.1934H12.8887C11.9702 23.1934 11.2812 22.4471 11.2812 21.6146C11.2812 20.7822 11.9702 19.9785 12.8887 19.9785H17.1944C18.0843 19.9785 18.7445 20.7248 18.7732 21.5285C18.8019 22.3322 18.1991 23.1934 17.2518 23.1934H17.2805Z" fill="#CE2029"/>
<path d="M15.0701 29.6236H12.8886C11.97 29.6236 11.3098 28.8773 11.2811 28.0449C11.2524 27.2124 11.97 26.4087 12.8886 26.4087H15.0127C15.9313 26.4087 16.6202 27.0976 16.6489 27.9587C16.6776 28.8199 16.0461 29.6236 15.0701 29.6236Z" fill="#CE2029"/>
<path d="M27.1263 29.4512C26.3513 28.8484 26.0643 27.9298 26.6097 27.1261C27.155 26.3224 28.1597 26.1788 28.9347 26.7529L30.8005 28.1595L35.5655 24.5714C36.3118 24.026 37.3165 24.2269 37.8332 24.9158C38.3499 25.6047 38.2063 26.6094 37.46 27.1835L31.7765 31.4605C31.145 31.9198 30.37 31.8911 29.7672 31.4605L27.0976 29.4512H27.1263Z" fill="#CE2029"/>
</svg>
