<svg width="48" height="48" viewBox="0 0 48 48" fill="none" xmlns="http://www.w3.org/2000/svg">
<path d="M48 14.1288V38.1757C48 39.304 47.1016 40.5288 46.3877 41.3009C45.414 42.354 44.1083 42.899 42.689 42.899L5.54225 42.9019C2.87542 42.9019 0.14757 40.7744 0.146151 37.9727L0.131958 14.3531C0.131958 12.5038 1.55975 10.9951 2.93077 10.0839C3.79653 9.70496 4.50901 9.47503 5.43296 9.47503L12.9849 9.46936C12.9906 7.06652 14.8229 5.24558 17.1931 5.19165H30.9757C33.2948 5.31655 35.076 7.10484 35.059 9.46936L42.8409 9.48639C44.1949 9.48922 45.4112 10.0896 46.3408 11.0107C47.2903 11.8566 47.7246 12.9523 48 14.1288ZM45.6156 37.4277L45.6241 14.8186C45.6241 13.1822 44.28 11.8977 42.6692 11.8963L33.9647 11.8892C33.2593 11.8892 32.6746 11.3868 32.6632 10.6701L32.6419 9.25362C32.6278 8.35664 31.921 7.57178 30.9615 7.57178L17.2257 7.56894C16.2464 7.56894 15.5113 8.3169 15.4999 9.26072L15.4815 10.6289C15.4715 11.3967 14.8797 11.8949 14.126 11.8949L5.4287 11.9034C3.78092 11.9048 2.50783 13.2475 2.50783 14.8924V37.5129C2.50783 39.1578 3.81499 40.4848 5.46419 40.4848H42.6294C44.2829 40.4848 45.6142 39.1493 45.6142 37.4306L45.6156 37.4277Z" fill="white"/>
<path d="M23.394 15.0174C29.6502 14.6541 34.8831 19.4399 35.2265 25.5783C35.5714 31.7465 30.8381 37.0163 24.6572 37.3654C18.5302 37.7117 13.276 33.0352 12.8743 26.894C12.4727 20.7712 17.1364 15.3808 23.394 15.016V15.0174ZM32.3908 28.8838C33.0863 26.6428 32.8705 24.2797 31.8359 22.2558C29.4061 17.5012 23.2634 16.0152 18.9346 19.1376C15.3013 21.7576 14.2212 26.7691 16.5091 30.6707C18.2662 33.6682 21.6937 35.3429 25.1624 34.8916C28.4367 34.4658 31.3633 32.2006 32.3908 28.8838Z" fill="white"/>
<path d="M39.6703 15.03C40.9263 14.6893 42.1228 15.4572 42.4166 16.638C42.7104 17.8188 42.0163 19.0096 40.8114 19.3204C39.6618 19.6171 38.4327 18.9599 38.1062 17.728C37.8181 16.6408 38.4156 15.3706 39.6689 15.03H39.6703Z" fill="white"/>
</svg>
