<svg width="16" height="17" viewBox="0 0 16 17" fill="none" xmlns="http://www.w3.org/2000/svg">
<path d="M12.48 8.18078C13.4954 8.52565 14.3637 9.33536 14.7983 10.3735C15.8792 12.9563 14.2612 15.8308 11.6504 16.1066H2.47832C1.62374 16.0145 0.948737 15.3013 0.84082 14.3999L0.84207 2.60177C0.964987 1.72034 1.61582 1.04078 2.44707 0.927002H10.8083C11.6812 0.995622 12.3737 1.76106 12.4717 2.67216L12.48 8.18078ZM11.4775 7.98643V2.70093C11.4775 2.4238 11.03 1.9625 10.7458 1.98729L2.54165 1.98862C2.19082 2.0289 1.86207 2.39148 1.83874 2.76601L1.83999 14.2999C1.82749 14.5704 2.2454 15.0454 2.47957 15.0454H8.70165C6.12707 12.4454 7.92957 7.84476 11.4775 7.98687V7.98643ZM11.0658 9.0569C8.91374 9.25922 7.75457 11.857 8.98832 13.7629C10.1883 15.6174 12.8758 15.4288 13.8337 13.4224C14.835 11.3258 13.2687 8.84971 11.0658 9.05645V9.0569Z" fill="#CE2029"/>
<path d="M3.95367 4.44924L8.68367 4.44348C9.21284 4.52007 9.31909 5.23504 8.84367 5.46968L3.88492 5.4989C3.33409 5.32668 3.36867 4.53866 3.95325 4.44924H3.95367Z" fill="#CE2029"/>
<path d="M3.8591 7.29804L7.4366 7.29272C7.99535 7.47246 7.92202 8.27421 7.3416 8.34726C6.30452 8.4783 5.04077 8.26004 3.97994 8.34726C3.39327 8.27244 3.31452 7.51231 3.85869 7.29804H3.8591Z" fill="#CE2029"/>
<path d="M12.218 10.8109C12.6384 10.7388 12.9397 11.1483 12.7722 11.5653L11.2388 13.2171C11.0763 13.3118 10.8801 13.318 10.718 13.2171C10.6313 13.163 9.9509 12.4366 9.89174 12.3383C9.5809 11.8212 10.1322 11.2585 10.6197 11.6313C10.6913 11.6862 10.9322 12.004 10.9897 11.9934L12.023 10.9021C12.0767 10.8596 12.1517 10.8224 12.218 10.8109Z" fill="#CE2029"/>
</svg>
