<svg width="18" height="18" viewBox="0 0 18 18" fill="none" xmlns="http://www.w3.org/2000/svg">
<path d="M6.74594 10.6811H11.2432" stroke="#727272" stroke-width="1.34919" stroke-linecap="round" stroke-linejoin="round"/>
<path d="M6.74594 8.43243H11.2432" stroke="#727272" stroke-width="1.34919" stroke-linecap="round" stroke-linejoin="round"/>
<path d="M11.2434 2.81081H14.0541C14.2032 2.81081 14.3461 2.87003 14.4516 2.97546C14.557 3.08089 14.6162 3.22387 14.6162 3.37297V15.1784C14.6162 15.3275 14.557 15.4705 14.4516 15.5759C14.3461 15.6813 14.2032 15.7405 14.0541 15.7405H3.93514C3.78604 15.7405 3.64305 15.6813 3.53763 15.5759C3.4322 15.4705 3.37297 15.3275 3.37297 15.1784V3.37297C3.37297 3.22387 3.4322 3.08089 3.53763 2.97546C3.64305 2.87003 3.78604 2.81081 3.93514 2.81081H6.7458" stroke="#727272" stroke-width="1.34919" stroke-linecap="round" stroke-linejoin="round"/>
<path d="M6.18378 5.05947V4.4973C6.18378 3.75183 6.47992 3.03689 7.00705 2.50976C7.53418 1.98263 8.24912 1.68649 8.9946 1.68649C9.74007 1.68649 10.455 1.98263 10.9821 2.50976C11.5093 3.03689 11.8054 3.75183 11.8054 4.4973V5.05947H6.18378Z" stroke="#727272" stroke-width="1.34919" stroke-linecap="round" stroke-linejoin="round"/>
</svg>
