<svg width="16" height="16" viewBox="0 0 16 16" fill="none" xmlns="http://www.w3.org/2000/svg">
<g clip-path="url(#clip0_56_493)">
<path d="M16 7.54766V8.48321C15.9746 8.52266 15.9777 8.5961 15.9726 8.65782C15.6613 12.5484 12.5488 15.6609 8.65776 15.9727C8.59604 15.9777 8.52261 15.9742 8.48315 16H7.54761C3.62456 15.7465 0.371045 12.6359 0.0620609 8.69063L0.0405765 8.41758C0.0198734 8.15079 0.0194828 7.88008 0.0405765 7.61329L0.0620609 7.33985C0.365577 3.47696 3.4769 0.365631 7.34019 0.0621155L7.61362 0.0406311C7.88042 0.0195374 8.15112 0.0195374 8.41792 0.0406311L8.69097 0.0621155C12.6527 0.372662 15.75 3.64337 16.0003 7.54766H16ZM11.9199 13.5106C13.7085 12.2352 14.7679 10.1856 14.7632 8.00157C14.7585 5.81368 13.6878 3.77852 11.9132 2.51563C8.84878 0.335553 4.63745 1.09415 2.48315 4.16016C0.866748 6.46094 0.867139 9.56993 2.48315 11.8715C4.63433 14.9344 8.84917 15.7 11.9195 13.5106H11.9199Z" fill="#727272" fill-opacity="0.5"/>
<path d="M10.1173 10.4141L7.65674 8.56874C7.48799 8.44218 7.39697 8.25898 7.39697 8.04374V4.36835C7.39697 4.01171 7.66846 3.74765 8.00166 3.73906C8.31924 3.73085 8.63213 3.98203 8.63252 4.33749L8.63604 7.75664L10.8524 9.42031C11.1345 9.63203 11.186 10.0105 10.9864 10.2828C10.7868 10.5551 10.4122 10.6355 10.1173 10.4144V10.4141Z" fill="#727272" fill-opacity="0.5"/>
</g>
<defs>
<clipPath id="clip0_56_493">
<rect width="16" height="16" fill="white"/>
</clipPath>
</defs>
</svg>
