<svg width="18" height="14" viewBox="0 0 18 14" fill="none" xmlns="http://www.w3.org/2000/svg">
<path d="M14.0515 12.2511L3.93404 12.2525C2.99842 12.2525 2.24561 11.6677 2.24561 10.94V3.08728C2.24561 2.35993 2.99748 1.77478 3.93357 1.77441H14.03C14.9661 1.77441 15.7175 2.35884 15.7175 3.08728V10.9404C15.7175 11.6495 14.9909 12.2507 14.0511 12.2511H14.0515ZM3.94529 11.3801H6.17561V2.64759H3.89654C3.59326 2.67238 3.37576 2.84264 3.36873 3.08801V10.9393C3.3767 11.189 3.61154 11.3797 3.94576 11.3797L3.94529 11.3801ZM10.6667 11.3786V2.64723H7.29826V11.3812L10.6667 11.379V11.3786ZM14.5962 10.9258V3.08801C14.5887 2.84009 14.3506 2.64796 14.0342 2.64796L11.7889 2.64723V11.3797L14.0679 11.3801C14.3694 11.3527 14.5934 11.1883 14.5962 10.9258Z" fill="#A9A9A9"/>
</svg>
