<svg width="18" height="18" viewBox="0 0 18 18" fill="none" xmlns="http://www.w3.org/2000/svg">
<g clip-path="url(#clip0_2024_151)">
<path d="M16.9101 -1.46485e-05C17.4898 0.154321 17.8709 0.53436 17.9999 1.12499V9.3867C17.8481 10.0381 17.3889 10.4548 16.716 10.511C14.8935 10.6636 12.8657 10.3985 11.0218 10.511C10.281 10.4351 9.79482 9.93725 9.73682 9.1944L9.73857 1.28354C9.75229 0.687641 10.2663 0.0755713 10.8629 -0.000366211H16.9097L16.9101 -1.46485e-05ZM10.9929 1.13166L10.8899 1.23959L10.8615 9.12479C10.8579 9.22991 10.8952 9.33678 11.0017 9.37124L16.613 9.38846C16.7013 9.39479 16.8419 9.34557 16.8683 9.25698L16.8567 1.23151L16.7688 1.14362L10.9933 1.13202L10.9929 1.13166Z" fill="#727272"/>
<path d="M7.13672 18H1.125C0.537891 17.8735 0.154336 17.4846 0 16.9102V8.6133C0.151875 7.96185 0.611016 7.54525 1.28391 7.489C3.10641 7.33642 5.13422 7.6015 6.97816 7.489C7.71891 7.56494 8.20512 8.06275 8.26312 8.8056L8.26137 16.7165C8.24766 17.3124 7.73367 17.9244 7.13707 18.0004L7.13672 18ZM1.29059 8.62068C1.20059 8.64845 1.12008 8.70154 1.12324 8.8049L1.14328 16.7688L1.23117 16.8567L7.03125 16.8578L7.1209 16.7365L7.13848 8.87591C7.14199 8.7708 7.10473 8.66392 6.9982 8.62947L1.29094 8.62138L1.29059 8.62068Z" fill="#727272"/>
<path d="M7.13683 0C7.78827 0.151875 8.20487 0.611367 8.26112 1.28391C8.35358 2.38711 8.19362 3.61195 8.26112 4.72816C8.18554 5.4682 7.68843 5.95512 6.94452 6.01312C5.11077 5.89781 3.09597 6.16324 1.28366 6.01137C0.611123 5.95512 0.151631 5.53816 -0.000244141 4.88707V1.08984C0.151982 0.521719 0.521826 0.151875 1.08995 0H7.13683ZM1.25554 1.13238L1.12335 1.3166L1.14269 4.78125L1.38702 4.88848L6.99831 4.87125C7.11854 4.82625 7.12804 4.73836 7.13858 4.6248C7.2328 3.59754 7.0637 2.42965 7.13858 1.38727L7.03136 1.14293L1.25554 1.13273V1.13238Z" fill="#727272"/>
<path d="M18.0001 13.1133V16.875C17.8693 17.472 17.4738 17.871 16.8751 18H10.8634C10.2119 17.8482 9.79532 17.3887 9.73907 16.7161C9.64661 15.6129 9.80657 14.3881 9.73907 13.2719C9.81465 12.5318 10.3118 12.0449 11.0557 11.9869C12.8894 12.1022 14.9042 11.8368 16.7165 11.9887C17.3205 12.0393 17.9196 12.4794 18.0004 13.113L18.0001 13.1133ZM11.0289 13.1207C10.8887 13.1569 10.8732 13.2483 10.8616 13.3752C10.767 14.4134 10.9365 15.5936 10.8623 16.6472L10.9685 16.8575L16.7686 16.8564L16.8564 16.7685L16.8575 13.2184L16.6132 13.1112L11.0293 13.1203L11.0289 13.1207Z" fill="#727272"/>
</g>
<defs>
<clipPath id="clip0_2024_151">
<rect width="18" height="18" fill="white"/>
</clipPath>
</defs>
</svg>
