<svg width="19" height="19" viewBox="0 0 19 19" fill="none" xmlns="http://www.w3.org/2000/svg">
<path d="M3.88117 5.56342C4.3156 5.52483 4.68422 5.85634 4.74063 6.2779L4.75003 15.3425C4.87175 16.0446 5.41651 16.5572 6.12802 16.6314L12.8696 16.6299C13.6004 16.533 14.1471 15.9788 14.2233 15.2425L14.2253 6.24426C14.4549 5.26902 15.728 5.36551 15.816 6.38775L15.8146 15.2406C15.6993 16.9115 14.4583 18.1153 12.7958 18.2222C10.6376 18.3612 8.33776 18.1178 6.16513 18.2242C4.45909 18.1113 3.24487 16.8739 3.14641 15.1688C2.97966 12.2891 3.27456 9.24913 3.14839 6.35262C3.16768 5.96321 3.48435 5.59905 3.88117 5.56392V5.56342Z" fill="black" fill-opacity="0.5"/>
<path d="M12.6295 3.18498H15.8704C15.9921 3.18498 16.2806 3.33341 16.3702 3.42594C16.8585 3.93261 16.4968 4.77623 15.7977 4.7792L3.05827 4.77425C2.41505 4.68024 2.13499 3.90045 2.59218 3.42594C2.68174 3.33341 2.9702 3.18498 3.09192 3.18498H6.33281V1.42599C6.33281 1.40966 6.4288 1.20532 6.45007 1.17266C6.58218 0.968805 6.82611 0.858961 7.05916 0.818883C8.60044 0.898544 10.2713 0.699143 11.7973 0.812945C12.0724 0.833727 12.3559 0.931696 12.5118 1.17216C12.533 1.20482 12.629 1.40917 12.629 1.4255V3.18498H12.6295ZM11.0739 2.40716H7.88893V3.18498H11.0739V2.40716Z" fill="black" fill-opacity="0.5"/>
<path d="M7.76876 7.15817C8.31551 7.08197 8.66433 7.46246 8.70491 7.98051C8.84295 9.74197 8.59952 11.6825 8.70293 13.4628C8.60248 14.532 7.19629 14.5019 7.1097 13.5019C6.95433 11.7068 7.22845 9.68952 7.11168 7.87116C7.13939 7.52233 7.41944 7.20715 7.76876 7.15817Z" fill="black" fill-opacity="0.5"/>
<path d="M10.9161 7.15715C11.406 7.07551 11.8152 7.41939 11.8533 7.90577L11.8483 13.5706C11.6276 14.5558 10.3392 14.4712 10.2576 13.4272C10.1195 11.6657 10.363 9.72512 10.2595 7.94486C10.2754 7.57525 10.5396 7.2195 10.9156 7.15715H10.9161Z" fill="black" fill-opacity="0.5"/>
</svg>
