<svg width="14" height="11" viewBox="0 0 14 11" fill="none" xmlns="http://www.w3.org/2000/svg">
<path d="M1.96796 10.9549C1.32549 10.9549 0.8359 10.7885 0.499184 10.4556C0.16634 10.1267 -8.29119e-05 9.64482 -8.29119e-05 9.01009V1.93327C-8.29119e-05 1.30241 0.160534 0.822494 0.481768 0.49352C0.803002 0.164545 1.24809 5.77904e-05 1.81702 5.77904e-05H3.44835C3.65734 5.77904e-05 3.83731 0.0155389 3.98825 0.0465013C4.14306 0.0735933 4.28239 0.120037 4.40624 0.185832C4.53396 0.251627 4.66942 0.340643 4.81262 0.452882L5.12612 0.708321C5.29641 0.843781 5.45703 0.940538 5.60797 0.998593C5.75891 1.05278 5.94275 1.07987 6.15948 1.07987H11.4308C12.0694 1.07987 12.5551 1.24629 12.888 1.57914C13.2247 1.91198 13.3931 2.39577 13.3931 3.03049V9.01009C13.3931 9.64482 13.2305 10.1267 12.9054 10.4556C12.5842 10.7885 12.1333 10.9549 11.5527 10.9549H1.96796ZM2.07246 9.66611H11.3205C11.5721 9.66611 11.7656 9.60225 11.9011 9.47453C12.0365 9.34294 12.1042 9.14362 12.1042 8.87657V3.16983C12.1042 2.8989 12.0365 2.69958 11.9011 2.57187C11.7656 2.44028 11.5721 2.37448 11.3205 2.37448H5.81116C5.60216 2.37448 5.42026 2.36093 5.26545 2.33384C5.11451 2.30288 4.97324 2.2545 4.84165 2.18871C4.71393 2.12291 4.58041 2.0339 4.44107 1.92166L4.12758 1.66622C3.95729 1.52689 3.79667 1.43013 3.64573 1.37595C3.49866 1.31789 3.31869 1.28886 3.10582 1.28886H2.06665C1.81895 1.28886 1.62737 1.35659 1.49191 1.49205C1.35645 1.62364 1.28872 1.81329 1.28872 2.06099V8.87657C1.28872 9.14362 1.35452 9.34294 1.48611 9.47453C1.62157 9.60225 1.81702 9.66611 2.07246 9.66611ZM0.818483 4.60957V3.51235H12.5919V4.60957H0.818483Z" fill="#CE2029"/>
</svg>
