<svg width="25" height="25" viewBox="0 0 25 25" fill="none" xmlns="http://www.w3.org/2000/svg">
<g clip-path="url(#clip0_2_2721)">
<path d="M13.3053 25H11.6009L9.34045 24.6061C4.79357 23.414 1.27209 19.7558 0.287711 15.1471L0.0110183 13.304C0.0364089 12.7604 -0.0234869 12.1868 0.0110183 11.6471C0.592399 2.55009 10.75 -2.87309 18.6946 1.69722C22.7395 4.02404 25.5911 9.07873 24.8951 13.8157C24.6556 15.4459 22.5878 15.3229 22.4583 13.9153C22.4036 13.3177 22.5468 12.5657 22.5084 11.916C21.9459 2.28641 9.18615 -1.01958 4.0325 7.1191C-1.33338 15.5931 7.60151 25.8118 16.6985 21.6458C17.1679 21.4309 17.9511 20.8528 18.4003 20.8138C19.1523 20.7474 19.8118 21.4394 19.7213 22.1855C19.6432 22.8274 19.1927 23.0572 18.6953 23.3515C17.1647 24.2584 15.0709 24.8912 13.3059 25H13.3053Z" fill="url(#paint0_linear_2_2721)"/>
<path d="M17.1399 7.95511C18.2311 7.78519 18.9563 8.93233 18.3619 9.86006L11.2942 16.9193C10.9563 17.1283 10.5227 17.183 10.1555 17.0163C8.86127 15.9909 7.75255 14.7012 6.57612 13.5319C5.83132 12.2702 7.33067 11.0332 8.43679 11.9623L10.6451 14.1276L16.4453 8.33076C16.6419 8.16084 16.8769 7.99483 17.1399 7.95381V7.95511Z" fill="url(#paint1_linear_2_2721)"/>
</g>
<defs>
<linearGradient id="paint0_linear_2_2721" x1="15.3945" y1="1.49951" x2="5.39453" y2="22.4995" gradientUnits="userSpaceOnUse">
<stop stop-color="#7EF458"/>
<stop offset="1" stop-color="#259800"/>
</linearGradient>
<linearGradient id="paint1_linear_2_2721" x1="12.4758" y1="7.93823" x2="12.4758" y2="17.1144" gradientUnits="userSpaceOnUse">
<stop stop-color="#7EF458"/>
<stop offset="1" stop-color="#259800"/>
</linearGradient>
<clipPath id="clip0_2_2721">
<rect width="25" height="25" fill="white"/>
</clipPath>
</defs>
</svg>
