<svg width="21" height="21" viewBox="0 0 21 21" fill="none" xmlns="http://www.w3.org/2000/svg">
<path d="M5.59943 1.81343L12.4211 1.80414C13.3262 2.07594 13.3284 3.24515 12.4211 3.51859C10.3425 3.62359 8.14076 3.38734 6.07685 3.51914C4.60357 3.6132 3.57162 4.64461 3.47755 6.11844C3.29435 8.98242 3.61974 12.0389 3.47755 14.9231C3.57162 16.3931 4.60357 17.4284 6.07685 17.5224C8.94084 17.7056 11.9973 17.3802 14.8815 17.5224C16.3515 17.4284 17.3868 16.392 17.4808 14.9231C17.6137 12.8466 17.3704 10.6356 17.4885 8.54492C17.7936 7.66883 18.9268 7.68797 19.1958 8.57937L19.1975 15.3305C18.9683 17.3824 17.3436 19.0148 15.2879 19.2402H5.66998C3.6099 19.0127 1.96107 17.3584 1.75818 15.2923V5.74984C1.95833 3.70726 3.56396 2.0639 5.59943 1.81289V1.81343Z" fill="black" fill-opacity="0.5"/>
<path d="M16.8148 1.81179C18.6867 1.55859 19.8713 3.53773 18.8065 5.07226L12.6055 11.2749C11.7688 11.5566 10.7614 12.0362 9.90774 12.2205C9.15962 12.3823 8.61274 11.8847 8.77134 11.1251C8.95181 10.2626 9.44181 9.23944 9.72454 8.39398L15.8824 2.23015C16.1104 2.04694 16.526 1.85062 16.8142 1.81124L16.8148 1.81179Z" fill="black" fill-opacity="0.5"/>
</svg>
