<svg width="14" height="14" viewBox="0 0 14 14" fill="none" xmlns="http://www.w3.org/2000/svg">
<path d="M6.12405 13.4901C5.85761 13.4901 5.62601 13.4122 5.42926 13.2565C5.2325 13.1048 5.10543 12.9019 5.04804 12.6478L4.80209 11.6025L4.66682 11.5595L3.76297 12.1128C3.53342 12.2563 3.29363 12.3096 3.04358 12.2727C2.79763 12.2399 2.58243 12.1292 2.39797 11.9407L1.53101 11.0799C1.33836 10.8872 1.22563 10.6679 1.19284 10.422C1.16414 10.1719 1.22153 9.93621 1.365 9.71486L1.92453 8.81716L1.87534 8.68804L0.842364 8.44209C0.58822 8.3806 0.383265 8.25148 0.227499 8.05472C0.0758327 7.85797 -6.70087e-07 7.62637 -6.70087e-07 7.35993V6.15479C-6.70087e-07 5.88835 0.0758327 5.65675 0.227499 5.46C0.379166 5.26324 0.584121 5.13412 0.842364 5.07263L1.86919 4.82054L1.91838 4.68527L1.35885 3.78756C1.21948 3.56621 1.16414 3.33256 1.19284 3.08662C1.22563 2.84067 1.33836 2.61932 1.53101 2.42256L2.39182 1.5556C2.58038 1.37114 2.79763 1.26252 3.04358 1.22972C3.28953 1.19283 3.52522 1.24407 3.75068 1.38344L4.65453 1.94297L4.80209 1.88763L5.04804 0.84236C5.10543 0.592315 5.2325 0.389409 5.42926 0.233643C5.62601 0.0778777 5.85761 -5.16744e-06 6.12405 -5.16744e-06H7.37838C7.64482 -5.16744e-06 7.87642 0.0778777 8.07318 0.233643C8.26993 0.38531 8.397 0.588216 8.45439 0.84236L8.69419 1.88763L8.84176 1.94297L9.75176 1.38344C9.97311 1.24407 10.2068 1.19283 10.4527 1.22972C10.7027 1.26252 10.92 1.37114 11.1045 1.5556L11.9714 2.42256C12.1641 2.61932 12.2748 2.84067 12.3034 3.08662C12.3362 3.33256 12.283 3.56621 12.1436 3.78756L11.5779 4.68527L11.6332 4.82054L12.6601 5.07263C12.9142 5.13412 13.1171 5.26324 13.2688 5.46C13.4245 5.65675 13.5024 5.88835 13.5024 6.15479V7.35993C13.5024 7.62637 13.4245 7.85797 13.2688 8.05472C13.1171 8.25148 12.9142 8.3806 12.6601 8.44209L11.6271 8.68804L11.5718 8.81716L12.1374 9.71486C12.2768 9.93621 12.3301 10.1719 12.2973 10.422C12.2686 10.6679 12.16 10.8872 11.9714 11.0799L11.1045 11.9407C10.9159 12.1292 10.6966 12.2399 10.4466 12.2727C10.2006 12.3096 9.96696 12.2563 9.74561 12.1128L8.83561 11.5595L8.69419 11.6025L8.45439 12.6478C8.397 12.9019 8.26993 13.1048 8.07318 13.2565C7.87642 13.4122 7.64482 13.4901 7.37838 13.4901H6.12405ZM6.32081 12.2604H7.18162C7.28 12.2604 7.33534 12.2133 7.34763 12.119L7.71655 10.6126C7.92561 10.5675 8.12236 10.506 8.30682 10.4281C8.49128 10.3502 8.6655 10.26 8.82946 10.1576L10.1453 10.963C10.2232 11.0163 10.2969 11.0081 10.3666 10.9384L10.9692 10.3359C11.0348 10.2744 11.0409 10.2027 10.9876 10.1207L10.176 8.80486C10.2703 8.64909 10.3564 8.47693 10.4343 8.28837C10.5121 8.09572 10.5757 7.90101 10.6249 7.70425L12.1374 7.34763C12.2276 7.33123 12.2727 7.27385 12.2727 7.17547V6.3331C12.2727 6.23882 12.2276 6.18349 12.1374 6.16709L10.6249 5.79817C10.5798 5.59322 10.5162 5.39646 10.4343 5.2079C10.3523 5.01524 10.2682 4.84513 10.1822 4.69756L10.9938 3.38175C11.0471 3.29977 11.0409 3.22599 10.9753 3.1604L10.3728 2.56398C10.3031 2.50249 10.2273 2.4943 10.1453 2.53939L8.82946 3.33871C8.66959 3.24443 8.49538 3.1563 8.30682 3.07432C8.12236 2.99234 7.92561 2.9288 7.71655 2.88371L7.34763 1.37114C7.33534 1.27686 7.28 1.22972 7.18162 1.22972H6.32081C6.22243 1.22972 6.16504 1.27686 6.14865 1.37114L5.79203 2.87141C5.58707 2.9206 5.38212 2.98824 5.17716 3.07432C4.97631 3.1563 4.80414 3.24238 4.66068 3.33256L3.35101 2.53324C3.26903 2.48815 3.1932 2.4984 3.12351 2.56398L2.5148 3.15425C2.45331 3.21984 2.44921 3.29567 2.5025 3.38175L3.31412 4.69756C3.22804 4.84513 3.14401 5.01524 3.06203 5.2079C2.98004 5.39646 2.91651 5.59527 2.87142 5.80432L1.365 6.16709C1.27482 6.18349 1.22973 6.23882 1.22973 6.3331V7.17547C1.22973 7.27385 1.27482 7.33123 1.365 7.34763L2.87757 7.70425C2.92266 7.90511 2.98414 8.09982 3.06203 8.28837C3.13991 8.47283 3.22599 8.645 3.32027 8.80486L2.5025 10.1207C2.45741 10.2068 2.46561 10.2805 2.52709 10.342L3.12966 10.9446C3.20345 11.0143 3.27723 11.0225 3.35101 10.9692L4.67297 10.1576C4.83284 10.26 5.00705 10.3523 5.19561 10.4343C5.38827 10.5121 5.58502 10.5716 5.78588 10.6126L6.14865 12.119C6.16504 12.2133 6.22243 12.2604 6.32081 12.2604ZM6.75122 9.0754C6.32491 9.0754 5.9355 8.97087 5.58297 8.76182C5.23045 8.54867 4.94761 8.26583 4.73446 7.91331C4.5254 7.56078 4.42088 7.17137 4.42088 6.74506C4.42088 6.32286 4.5254 5.93549 4.73446 5.58297C4.94761 5.23045 5.23045 4.94966 5.58297 4.7406C5.9355 4.53155 6.32491 4.42702 6.75122 4.42702C7.17752 4.42702 7.56694 4.53155 7.91946 4.7406C8.27198 4.94966 8.55277 5.23045 8.76182 5.58297C8.97088 5.93549 9.07541 6.32286 9.07541 6.74506C9.07541 7.17137 8.97088 7.56078 8.76182 7.91331C8.55277 8.26583 8.27198 8.54867 7.91946 8.76182C7.56694 8.97087 7.17752 9.0754 6.75122 9.0754ZM6.75122 7.94405C6.96437 7.94405 7.15908 7.89076 7.33534 7.78418C7.5157 7.67351 7.65917 7.52799 7.76574 7.34763C7.87642 7.16317 7.93176 6.96231 7.93176 6.74506C7.93176 6.52781 7.87642 6.33105 7.76574 6.15479C7.65917 5.97443 7.5157 5.83096 7.33534 5.72439C7.15908 5.61371 6.96437 5.55837 6.75122 5.55837C6.53396 5.55837 6.33516 5.61166 6.1548 5.71824C5.97444 5.82481 5.82892 5.96828 5.71824 6.14864C5.61167 6.329 5.55838 6.52781 5.55838 6.74506C5.55838 6.96641 5.61167 7.16727 5.71824 7.34763C5.82892 7.52799 5.97444 7.67351 6.1548 7.78418C6.33516 7.89076 6.53396 7.94405 6.75122 7.94405Z" fill="#727272"/>
</svg>
