<svg width="21" height="20" viewBox="0 0 21 20" fill="none" xmlns="http://www.w3.org/2000/svg">
<path d="M11.2731 5.32141L11.2567 2.50173H3.72129V16.1168L10.464 16.1201C10.5233 16.1201 10.6462 16.2421 10.6387 16.2991C10.6286 16.3739 10.5756 16.4998 10.5151 16.5929H3.4848C3.38012 16.5929 3.2666 16.4355 3.2666 16.3208V2.3037C3.2666 2.18501 3.37255 2.03223 3.48102 2.03223H11.5657C11.8198 2.28141 12.0191 2.50698 12.2411 2.75157L13.4021 4.03223L14.4855 5.246L14.4729 9.166C14.4338 9.23747 14.2219 9.29518 14.1607 9.25977C14.0996 9.22436 14.0302 9.08338 14.0296 8.99092L14.0226 5.5778L11.4856 5.57452C11.3998 5.57452 11.2756 5.40534 11.2737 5.32141H11.2731ZM13.6865 5.07682L13.0092 4.29911L11.9725 3.15223C11.905 3.07747 11.753 2.92928 11.7101 3.01059L11.7139 5.0978L13.6859 5.07682H13.6865Z" fill="#CE2029"/>
<path d="M10.8222 14.7522C10.7219 14.2191 10.7238 13.6447 10.8153 13.149C11.2075 11.027 13.0811 9.6329 15.0947 9.83422C17.102 10.0349 18.6433 11.7818 18.6717 13.8722C18.7007 15.9837 17.2017 17.7778 15.1994 18.0296C13.1644 18.2854 11.2308 16.9214 10.8222 14.7522ZM11.2296 14.3326C11.3784 16.09 12.7652 17.3896 14.3083 17.5627C15.9972 17.7522 17.4911 16.6939 18.0183 15.1332C18.5865 13.4519 17.8815 11.6539 16.4865 10.7988C15.0373 9.91094 13.194 10.2178 12.0917 11.507C11.4131 12.3004 11.1356 13.2309 11.229 14.3319L11.2296 14.3326Z" fill="#CE2029"/>
<path d="M9.26384 8.5325C9.25438 7.50168 8.49889 6.63152 7.52393 6.60267C6.54456 6.57316 5.69321 7.38365 5.67429 8.4466C5.6724 8.56201 5.53997 8.68594 5.45357 8.68398C4.93772 8.67086 5.24231 7.0748 6.4115 6.38234C6.45123 6.35873 6.51114 6.30299 6.52312 6.29053C6.54141 6.27217 6.50294 6.23283 6.46384 6.19283C5.88177 5.5948 5.87546 4.59808 6.46763 4.01119C7.05979 3.4243 7.97862 3.45644 8.52096 4.07939C9.08348 4.72594 9.03871 5.66955 8.34817 6.30627C9.27078 6.60726 10.071 8.33709 9.54763 8.67349C9.49213 8.70955 9.2651 8.6348 9.26384 8.5325ZM7.18718 4.11808C6.62781 4.29316 6.36546 4.89644 6.53889 5.43349C6.69655 5.92004 7.24772 6.24988 7.72826 6.08988C8.23528 5.92135 8.56195 5.36922 8.41249 4.84004C8.26303 4.31086 7.74907 3.94168 7.18655 4.11742L7.18718 4.11808Z" fill="#CE2029"/>
<path d="M9.54273 10.4367H5.4821C5.36606 10.4367 5.2248 10.3541 5.20336 10.2682C5.17309 10.1443 5.28786 9.96265 5.43606 9.96265H9.51372C9.57615 9.96265 9.70669 10.0885 9.71994 10.1508C9.7357 10.2263 9.64741 10.3548 9.54273 10.4361V10.4367Z" fill="#CE2029"/>
<path d="M9.52948 12.3861L5.44174 12.3881C5.34714 12.3881 5.20525 12.2353 5.19957 12.1527C5.19138 12.0228 5.32633 11.9009 5.4802 11.9009H9.46516C9.57047 11.9015 9.70543 12.0084 9.7275 12.0865C9.74957 12.1645 9.62849 12.3848 9.52885 12.3848L9.52948 12.3861Z" fill="#CE2029"/>
<path d="M9.60271 14.1764L5.36235 14.1797C5.28794 14.1797 5.18704 14.002 5.19839 13.9338C5.21163 13.8519 5.34659 13.7083 5.45316 13.7083H9.47911C9.57244 13.7083 9.68217 13.8302 9.72127 13.882C9.76037 13.9338 9.67145 14.1771 9.60334 14.1771L9.60271 14.1764Z" fill="#CE2029"/>
<path d="M13.9912 15.194L13.0182 14.173C12.9639 14.1159 12.9778 13.935 13.0062 13.8858C13.0415 13.8235 13.2458 13.7979 13.2982 13.8497L14.1426 14.6897L15.9418 12.832C16.0181 12.7533 16.2716 12.7461 16.3221 12.832C16.3902 12.9474 16.3328 13.1061 16.2369 13.2058L14.299 15.2176C14.2492 15.2694 14.0638 15.2714 13.9906 15.1946L13.9912 15.194Z" fill="#CE2029"/>
</svg>
