<svg xmlns="http://www.w3.org/2000/svg" width="14" height="11" fill="none" viewBox="0 0 14 11">
  <path fill="#727272" d="M1.968 10.955c-.643 0-1.132-.167-1.469-.5-.333-.328-.5-.81-.5-1.445V1.933c0-.63.162-1.11.483-1.44C.803.164 1.248 0 1.817 0h1.631c.21 0 .39.015.54.046.155.028.294.074.418.14.128.066.263.155.407.267l.313.255c.17.136.331.232.482.29.15.055.335.082.551.082h5.272c.638 0 1.124.166 1.457.5.337.332.505.816.505 1.45v5.98c0 .635-.163 1.117-.488 1.446-.32.332-.772.499-1.352.499H1.968Zm.104-1.289h9.248c.252 0 .446-.064.581-.192.136-.131.203-.33.203-.597V3.17c0-.271-.067-.47-.203-.598-.135-.132-.329-.198-.58-.198H5.81c-.209 0-.39-.013-.546-.04a1.713 1.713 0 0 1-.423-.145 2.4 2.4 0 0 1-.4-.267l-.314-.256a1.652 1.652 0 0 0-.482-.29 1.475 1.475 0 0 0-.54-.087h-1.04c-.247 0-.439.068-.574.203-.136.132-.203.321-.203.569v6.816c0 .267.066.466.197.597.136.128.331.192.586.192ZM.818 4.61V3.512h11.774V4.61H.818Z"/>
</svg>
