<svg width="19" height="22" viewBox="0 0 19 22" fill="none" xmlns="http://www.w3.org/2000/svg">
<path fill-rule="evenodd" clip-rule="evenodd" d="M5.71743 17.472H1.37485C0.615537 17.472 0 16.8564 0 16.0971V15.1999C0 14.6804 0.206344 14.1823 0.573635 13.8151C1.52248 12.8662 2.05552 11.5793 2.05552 10.2374V7.19433C2.05552 3.22102 5.27654 0 9.24986 0C13.2232 0 16.4442 3.22102 16.4442 7.19433V10.2374C16.4442 11.5793 16.9773 12.8662 17.9261 13.8151C18.2933 14.1823 18.4997 14.6804 18.4997 15.1999V16.0971C18.4997 16.8564 17.8842 17.472 17.1249 17.472H12.7823C12.7823 17.8383 12.7704 18.537 12.4019 19.2061C11.7919 20.3133 10.6102 21.0691 9.24986 21.0691C7.88941 21.0691 6.70774 20.3133 6.09782 19.2061C5.7293 18.537 5.71743 17.8383 5.71743 17.472ZM16.836 14.9051C16.9142 14.9833 16.9581 15.0894 16.9581 15.1999V15.9303H1.54164V15.1999C1.54164 15.0894 1.58556 14.9833 1.66374 14.9051C2.90169 13.6672 3.59717 11.9881 3.59717 10.2374V7.19433C3.59717 4.07243 6.12797 1.54164 9.24986 1.54164C12.3718 1.54164 14.9025 4.07243 14.9025 7.19433V10.2374C14.9025 11.9881 15.598 13.6672 16.836 14.9051ZM11.2406 17.472H7.25908C7.25908 17.8132 7.28354 18.1634 7.44819 18.4623C7.56299 18.6708 7.71304 18.8573 7.89023 19.0136C8.25252 19.3334 8.72857 19.5275 9.24986 19.5275C9.77114 19.5275 10.2471 19.3334 10.6095 19.0136C10.7867 18.8573 10.9366 18.6708 11.0515 18.4623C11.2162 18.1634 11.2406 17.8132 11.2406 17.472Z" fill="#727272"/>
</svg>
