<?xml version="1.0" encoding="UTF-8"?>
<svg id="Ebene_1" xmlns="http://www.w3.org/2000/svg" version="1.1" viewBox="0 0 477 463">
  <!-- Generator: Adobe Illustrator 30.1.0, SVG Export Plug-In . SVG Version: 2.1.1 Build 136)  -->
  <defs>
    <style>
      .st0 {
        fill: #ce2029;
      }
    </style>
  </defs>
  <path class="st0" d="M308.26,130.11l-6.46,16.46c-3.63,9.24-11.74,12.43-20.8,13.98-10.43,1.78-20.19-.28-26.41-9.57-3.37-5.03-10.42-6.04-15.45-2.33-10.45,7.73-25.9,4.76-31.89-7.03l-11.53-22.66c-6.2,2.7-11.61,5.3-17.17,8.23-2.07,8.94-4.75,16.21-8.94,24.2,1.89,6.49,3.91,13.61,6.26,20.25l16.83,12.35c3.19,2.34,5.63,6.85,5.84,10.79.78,14.88,1.71,20.06-7.93,30.59,13.09,9.73,17.78,24.18,15.91,39.78-1.29,10.74-7.34,19.43-10.49,29.25-2.11,10.9,2.32,23.22,1.44,34.4,9.11,9.27,21.39,14.86,15.16,30.06,10.22,4.29,28.77-.19,28.49,8.73-.11,3.44-2.72,5.65-6.65,5.48-51.3-2.23-96.53-33.12-118.23-79.91-6.04,4.77-9.25,1.34-16.02-3.95-2.03-1.58-2.23-5.49-1.13-7.16,1.82-2.76,5.4-3.2,8.07-1.47,1.56,1.01,2.85,1.72,4.88,2.43-13.37-38.73-9.83-80.41,10.61-115.64l-7.09-7.3c-1.9-1.96-.8-6.66,1.3-7.87,8.34-4.8,10.37,10.02,22.7,10,5.29-.01,10.08-3.64,13.6-7.55,8.11-9,13.03-20.27,14.62-32.49,2.13-16.4-9.95-30.64-25.65-32.12-15.82-1.49-30.13,10.47-31.15,26.86-.69,11.12,6.56,20.38-2.03,21.96-7.2,1.32-3.98-4.39-10.87-10.22-2.76-2.33-1.73-6.94,1.71-8.73-.91-25.93,21.93-44.13,46.4-40.78,1.88.26,5.73-3.04,7.58-2.03,1.52.83,3.15,3.85,4.06,5.77,11.3,6.79,19.13,16.86,21.41,31.2,51.42-25.21,111.26-17.02,153.23,20.38,6.39-7.77,15.28-10.92,23.38-13.97,1.69-.64,3.76-4.07,5.34-4.07,2.47,0,4.48,1.7,6.5,3.83l9.2,2.8c2.87.87,4.69,4.02,4.28,6.49-.55,3.31-4.12,5.44-7.46,4.17-9.91-3.78-20.36-2.33-28.66,4.23-19.97,15.79-8.08,46.85,6.52,60.92,6.71,6.46,15.32,6.77,22.21.36,11.82-10.99,21.64-33,15.6-49.61-1.25-3.43-.27-6.95,2.82-7.99,3.8-1.27,6.56.95,7.92,4.65,3.95,10.77,2.08,21.64-.43,32.42.5,1.67,1.21,4.55,1.32,6.45.1,1.67-4.41,2.79-5.41,4.21-5.65,8-10.9,16.98-19.94,22.38,7.93,46.56-6.79,91.96-40.9,124.53,1.95.44,3.79-.17,5.89-.83,3.19-1.01,6.45.21,7.37,3.43,1.98,6.92-7.87,8.66-13.59,9.82-3.59.73-5.85-3.11-6.29-6.61-19.15,15.53-41.24,25.68-65.72,29.54-2.85.45-5.57-2.1-6.07-4.42-.58-2.72,1.37-5.84,4.45-6.42,11.46-2.17,22.13-5.14,33.32-10.41-16.05-10.84-25.2-28.58-27.7-46.91-2.28-16.72,6.11-32.72,19.91-40.26,15.58-8.52,33.66-6.14,47.4,6.09,4.94-12.79,5.84-17.76.45-29.66-3.76-8.29-18.59-1.49-26.25-7.01l-19.73-14.21c-11.76-8.47-11.07-27.33-2.07-35.38,4.67-4.18,10.93-5.91,17.39-4.65l15.14,2.94c2.5.49,6.2-.49,7.91-2.16-3.75-11.77-4.93-23.17-.12-35.09-6.14-5.24-11.26-9.19-18.16-13.91ZM264.46,145.38c3.76,5.56,9.42,4.99,15.02,4,4.64-.82,9.97-1.69,11.88-6.7l6.93-18.2c-28.48-14.61-60.62-17.74-91.71-9.1l10.44,20.89c3.11,6.23,10.7,7.09,15.75,3.3,10.29-7.72,24.49-4.82,31.69,5.81ZM180.11,220.01l7.27-8.37-.11-17.81-19.58-14.05c-2.79-5.14-4.45-10.46-6.46-17.17-7.74,8.1-17.5,12.64-28.69,10.02-10.36,17.96-16.28,36.93-17.15,57.87,6.73.48,11.77,2.75,16.33,8.83,10.19-17.39,28.64-25.65,48.4-19.33ZM341.47,280.25c4.04,8.25,3.85,16.53,3.86,25.92,18.53-27.08,24.85-59.59,19.62-90.88-16.69,0-26.34-12.25-33.77-24.98-3.5,1-8.34,2.81-11.91,2.14l-16.43-3.06c-2.93-.54-6.54-.28-8.83,1.52-4.44,3.49-5.37,13.91.54,18.19l19.27,13.95c4.37,3.16,28.18-5.86,33.63,19.93,1.45,6.88,2.59,12.6.36,19.62-1.89,5.93-3.8,11.72-6.32,17.64ZM178.42,296.37c9.75-9.39,15.52-21.92,17.19-35.27,2.19-17.52-11.83-32.32-28.66-32.07-17.26.27-30.53,15.53-27.86,33.11,2.02,13.31,7.87,25.78,17.52,34.65,6.55,6.02,15.11,6.02,21.8-.42ZM127.92,253.22l-5.79-7.83c-1.47-1.98-3.53-3.25-6.75-3.35.55,12.16,2.35,22,6.01,33.37,1.08-.63,3.19-2.62,3.4-3.8l3.13-18.38ZM317.29,336.14c9.29-9.15,14.75-21.16,16.64-34,2.63-17.91-11.27-33.24-28.72-32.93-16.85.3-30.27,15.4-27.73,32.84,1.9,13.02,7.53,25.15,16.72,34.2,6.78,6.68,15.98,6.89,23.09-.11ZM130.22,294.55l11.17,2.96-9.04-16.34c-1.99,2.05-4.37,4.72-5.74,6.82-.06,1.53,2.02,6.15,3.61,6.57ZM201.89,348.35l-14.67-14.05-2.49-28.28-11.19,6.37c-2.2,1.25-3.15,5.27-6.71,4.71-1.87-.3-3.92-3.25-5.76-4.39-5.55-3.46-10.47-6.31-15.38-10.45-.16,4.04-2.99,6.52-7.31,7,6.97,9.23,14.43,17.88,23.38,24.51,2.93-2.85,5.64-3.7,8.19-2.43,5.99,2.97-.66,9.24,6.48,13.18,7.17,3.95,15.23,7.91,23.02,10.52,1.05.35,3.41-1.49,3.53-2.56.1-.86-.4-3.45-1.1-4.12Z"/>
  <path class="st0" d="M358.44,143.89c9.78-2.62,18.74,3.52,20.92,12.49,2.09,8.63-3.33,17.66-11.78,20.08-9.14,2.61-18.31-2.63-20.97-11.57s2.06-18.39,11.83-21ZM359.54,155.61c-3.21,2.22-3.01,6.51-.72,8.71,1.72,1.65,5.3,2.15,7.07.83,2.88-2.14,3.37-5.65,1.91-7.83-1.82-2.7-5.29-3.77-8.26-1.72Z"/>
  <path class="st0" d="M136.45,101.84c9.75-1.82,17.94,4.94,19.56,13.07,1.93,9.71-4.24,18.37-13.07,20.06-9.35,1.78-17.85-3.77-19.88-12.62s3.25-18.61,13.39-20.51ZM136.48,113.64c-3.12,1.76-3.32,5.85-1.51,8.35,1.43,1.98,5.14,2.86,7.24,1.5,2.67-1.73,3.57-5.13,2.38-7.72s-5-3.87-8.11-2.12Z"/>
  <path class="st0" d="M222.92,426.58c-6.22.03-18.27-2.39-15.81-9.59.98-2.85,4.15-4.34,7.03-3.49l8.8,2.59c1.64.48,3.64,3.14,3.9,4.67.29,1.69-1.64,5.81-3.93,5.82Z"/>
  <path class="st0" d="M303.9,386.42c-1.15,2.83-4.77,4.11-7.47,3.12-2.45-.9-3.96-4.62-2.84-7.35l3.31-8.09c1.16-2.84,4.24-4.34,6.96-3.54s4.63,4.59,3.51,7.35l-3.47,8.51Z"/>
  <path class="st0" d="M177.1,377c.87,2.87-.97,6.34-3.22,6.9-3.01.76-6.45-.52-7.38-3.56l-2.65-8.61c-.83-2.72.91-6.24,3.39-7.01,3.16-.98,6.34.65,7.34,3.95l2.52,8.33Z"/>
  <path class="st0" d="M417.58,235.42c.35,5.21,1.8,15.92-4.64,16.49-2.56.23-6.16-1.84-6.23-4.69-.16-7.07-1.37-15.05,5.32-15.36,1.7-.08,5.42,1.66,5.55,3.55Z"/>
  <path class="st0" d="M194.63,401.74c2.08,2.05,2.71,5.33,1.34,7.56-1.12,1.81-5.58,3.26-7.41,1.75-3.96-3.29-13.26-10.34-7.79-15.32,2.17-1.97,5.92-1.8,7.83.08l6.03,5.93Z"/>
  <path class="st0" d="M245.6,428.05c-2.25.42-5.15-2.78-5.24-4.51-.1-1.97,1.1-5.7,2.89-6.08l10.38-2.22c3.12-.67,6.14,1.54,6.62,4.43.43,2.57-1.42,5.92-4.38,6.47l-10.28,1.91Z"/>
  <path class="st0" d="M414.18,211.9c.99,3.3-1.63,6.62-4.22,6.99-2.83.41-5.67-1.4-6.54-4.29l-2.39-7.98c-.85-2.83.61-6.11,3.25-7.07,2.45-.88,6.33.45,7.16,3.22l2.73,9.13Z"/>
  <path class="st0" d="M70.35,210c.03,2.76-3,5.33-5.44,5.41-7.2.24-5.81-10.19-5.7-15.18.05-2.51,3.61-4.86,5.68-4.69,2.7.22,5.32,2.56,5.35,5.39l.1,9.07Z"/>
  <path class="st0" d="M280.26,414.55c-2.24,1.89-6.56.72-7.71-1.03-1.81-2.77-1.13-6.18,1.14-8.04l6.84-5.58c1.77-1.44,5.36-1.37,6.99-.11,2.15,1.66,2.84,6.26.78,8l-8.04,6.77Z"/>
  <path class="st0" d="M392.79,311.11c-1.76,2.22-6.12,2.07-7.94.24-1.57-1.57-2.09-5.25-.58-7.28l5.76-7.77c1.27-1.72,5.4-2.06,7.04-1.04,6.35,3.96-.97,11.67-4.27,15.84Z"/>
  <path class="st0" d="M367.09,334.42c-2.14,1.53-6.25.25-7.5-1.72-1.44-2.27-.87-6.09,1.51-7.74l7.93-5.5c1.81-1.26,6.35-.04,7.36,1.91.92,1.77.64,5.93-1.08,7.17l-8.22,5.9Z"/>
  <path class="st0" d="M201.22,61.32c-2.93.8-6.11-.75-7-3.28s.56-6.49,3.57-7.3l8.92-2.4c2.83-.76,6.08,1.84,6.43,4.29.41,2.84-1.24,5.77-4.07,6.55l-7.84,2.14Z"/>
  <path class="st0" d="M239.63,55.19l-9.32.47c-2.63.13-5.19-2.73-5.36-5.16-.16-2.28,1.93-5.78,4.51-5.89l10.29-.45c2.39-.1,4.88,3.37,4.93,5.44.06,2.41-2.17,5.44-5.04,5.59Z"/>
  <path class="st0" d="M73.54,179.1c-.88,2.94-3.82,4.86-6.39,4.47s-5.23-3.36-4.5-6.36c.84-3.46,1.66-6.21,2.77-9.51.95-2.83,4.62-4.03,7.28-3.1,2.41.85,3.92,4.21,3.11,6.91l-2.27,7.58Z"/>
  <path class="st0" d="M173.28,73.98c-1.79.99-5.5.39-6.91-1.15s-1.72-6.3.1-7.49c3.87-2.54,13.36-9.78,16.39-3.27,1.33,2.85.41,6.36-2.2,7.81l-7.37,4.09Z"/>
  <path class="st0" d="M84.92,152.65c-1.02,1.43-4.75,2.04-6.32,1.44-1.89-.72-4.11-4.71-3.01-6.85,1.89-3.67,3.9-6.43,6.6-9.69,1.46-1.76,5.8-1.38,7.34.05,1.77,1.63,2.3,5.4.91,7.35l-5.52,7.7Z"/>
  <path class="st0" d="M409.59,282.28c-.75,1.77-5.43,2.26-7.01,1.31-2.08-1.24-3.38-4.5-2.52-6.98l2.96-8.56c.82-2.38,4.52-3.87,6.62-3.27,7.19,2.04,2.46,11.55-.05,17.49Z"/>
  <path class="st0" d="M76.81,241.43c.52,3.56-3.67,5.06-5.85,4.86-6.02-.54-7.95-11.63-7.21-16.15.27-1.63,3.75-3.25,5.23-3.09,5.08.56,7.01,8.82,7.82,14.38Z"/>
  <path class="st0" d="M331.56,76.7c1.59,1.25.94,6.14-.39,7.41-1.45,1.39-5.39,2.03-7.17.66l-7.65-5.89c-1.63-1.26-1.82-5.42-.65-7.21,1.32-2.02,5.59-3.08,7.67-1.44l8.2,6.46Z"/>
  <path class="st0" d="M92.44,265.89c.1,2.53-.22,5.76-1.43,6.93s-5.58,1.58-6.75.37c-3.84-3.96-10.8-11.25-5.96-15.79,1.32-1.25,5.95-1.81,7.14-.31l7,8.8Z"/>
  <path class="st0" d="M298.63,68.43l-8.32-3.56c-2.46-1.05-3.76-4.51-3.07-6.86s4.44-4.64,6.93-3.55l9.29,4.04c1.82.79,2.78,4.72,2.25,6.46-.73,2.4-4.17,4.73-7.08,3.48Z"/>
  <path class="st0" d="M269.26,58.35l-8.76-1.75c-1.54-.31-3.6-2.74-3.97-4.19-.42-1.65,1.12-5.74,2.98-5.98,5.1-.65,9.41.06,14.19,1.91,1.82.7,2.71,4.82,2.03,6.64-.77,2.09-4.11,3.84-6.46,3.37Z"/>
  <path class="st0" d="M353.45,98.91c1.8,2.16,1.51,6.24-.07,7.64-2.74,2.43-6.56,1.91-8.62-.61l-5.53-6.74c-1.43-1.74-.82-5.91,1.09-7.48,1.73-1.42,5.99-1.35,7.67.66l5.45,6.53Z"/>
  <path class="st0" d="M160.54,242.19c9.42-3.68,19.08.39,22.54,9.21,3.25,8.29-.43,18.26-9.5,21.89-7.91,3.17-17.54-.14-21.44-8.2s-.93-19.24,8.4-22.89ZM165.47,252.23c-3.77,1.27-4.8,5.3-3.48,7.7,1.39,2.52,4.62,3.88,6.85,3.2,3.36-1.03,4.72-4.45,3.86-7.43-.73-2.54-4.02-4.55-7.23-3.47Z"/>
  <path class="st0" d="M303.48,280.98c10.01-1.32,17.97,6.03,19.03,14.63,1.17,9.48-5.46,17.7-14.6,18.91-9.07,1.19-17.5-5.08-18.92-14.06s4.44-18.16,14.49-19.48ZM303.68,292.37c-3.91,1.76-4.52,5.7-2.71,8.68,1.14,1.87,4.63,3.05,7.47,1.77,2.19-.98,3.76-4.78,2.61-7.38-1.07-2.42-4.51-4.37-7.38-3.08Z"/>
</svg>