<svg width="22" height="22" viewBox="0 0 22 22" fill="none" xmlns="http://www.w3.org/2000/svg">
<path d="M14.2175 6.18229L13.9195 6.96441C13.7521 7.40346 13.3781 7.55503 12.9602 7.62868C12.4791 7.71326 12.029 7.61538 11.7421 7.17395C11.5867 6.93495 11.2615 6.88696 11.0295 7.06324C10.5476 7.43054 9.835 7.28942 9.55873 6.7292L9.02695 5.65249C8.74099 5.78078 8.49148 5.90432 8.23504 6.04354C8.13957 6.46834 8.01596 6.81378 7.82271 7.19344C7.90988 7.50182 8.00305 7.84013 8.11143 8.15564L8.88766 8.74246C9.03479 8.85365 9.14733 9.06795 9.15701 9.25516C9.19299 9.9622 9.23588 10.2083 8.79127 10.7087C9.395 11.171 9.61131 11.8576 9.52506 12.5989C9.46556 13.1092 9.18653 13.5221 9.04125 13.9887C8.94393 14.5067 9.14825 15.0921 9.10766 15.6233C9.52783 16.0638 10.0942 16.3294 9.80686 17.0516C10.2782 17.2555 11.1338 17.0426 11.1209 17.4664C11.1158 17.6299 10.9954 17.7349 10.8142 17.7268C8.44812 17.6209 6.36204 16.1531 5.3612 13.9298C5.08263 14.1565 4.93458 13.9935 4.62234 13.7421C4.52871 13.667 4.51948 13.4813 4.57022 13.4019C4.65416 13.2708 4.81927 13.2498 4.94242 13.3321C5.01437 13.38 5.07387 13.4138 5.16749 13.4475C4.55085 11.6072 4.71412 9.62674 5.65684 7.95274L5.32984 7.60588C5.24221 7.51274 5.29294 7.28942 5.3898 7.23192C5.77445 7.00385 5.86808 7.70804 6.43676 7.70709C6.68074 7.70661 6.90166 7.53413 7.06401 7.34834C7.43806 6.92069 7.66498 6.38519 7.73831 5.80454C7.83655 5.02527 7.2794 4.34864 6.55529 4.27832C5.82565 4.20752 5.16565 4.77581 5.1186 5.5546C5.08678 6.08298 5.42116 6.52298 5.02498 6.59806C4.6929 6.66078 4.84141 6.38946 4.52364 6.11244C4.39634 6.00173 4.44384 5.78268 4.6025 5.69763C4.56053 4.46553 5.61395 3.60074 6.74255 3.75992C6.82925 3.77227 7.00682 3.61547 7.09215 3.66346C7.16225 3.7029 7.23743 3.84639 7.2794 3.93763C7.80057 4.26026 8.16171 4.73875 8.26686 5.42013C10.6384 4.22225 13.3984 4.61141 15.3341 6.38851C15.6288 6.01931 16.0388 5.86963 16.4124 5.72471C16.4903 5.6943 16.5858 5.53132 16.6587 5.53132C16.7726 5.53132 16.8653 5.6121 16.9585 5.71331L17.3828 5.84635C17.5152 5.88769 17.5991 6.03737 17.5802 6.15473C17.5548 6.31201 17.3902 6.41322 17.2361 6.35287C16.7791 6.17326 16.2971 6.24216 15.9143 6.55387C14.9932 7.30415 15.5416 8.78 16.215 9.44855C16.5245 9.75551 16.9216 9.77024 17.2394 9.46566C17.7845 8.94346 18.2374 7.89763 17.9589 7.10838C17.9012 6.9454 17.9464 6.77814 18.0889 6.72873C18.2642 6.66838 18.3915 6.77387 18.4542 6.94968C18.6364 7.46143 18.5501 7.97793 18.4344 8.49015C18.4574 8.5695 18.4902 8.70635 18.4953 8.79663C18.4999 8.87598 18.2919 8.9292 18.2457 8.99667C17.9851 9.3768 17.743 9.8035 17.3261 10.0601C17.6918 12.2724 17.0129 14.4297 15.4397 15.9773C15.5296 15.9982 15.6145 15.9692 15.7114 15.9378C15.8585 15.8899 16.0088 15.9478 16.0513 16.1008C16.1426 16.4296 15.6883 16.5123 15.4245 16.5674C15.2589 16.6021 15.1547 16.4197 15.1344 16.2533C14.2511 16.9913 13.2323 17.4736 12.1033 17.657C11.9718 17.6784 11.8464 17.5572 11.8233 17.447C11.7966 17.3177 11.8865 17.1695 12.0285 17.1419C12.5571 17.0388 13.0492 16.8977 13.5653 16.6473C12.8251 16.1322 12.403 15.2892 12.2877 14.4183C12.1826 13.6238 12.5695 12.8635 13.206 12.5053C13.9246 12.1004 14.7585 12.2135 15.3922 12.7946C15.62 12.1869 15.6615 11.9508 15.4129 11.3853C15.2395 10.9914 14.5555 11.3145 14.2023 11.0522L13.2923 10.377C12.7499 9.97456 12.7817 9.0784 13.1968 8.6959C13.4122 8.49728 13.7009 8.41508 13.9989 8.47495L14.6971 8.61464C14.8124 8.63793 14.9831 8.59136 15.062 8.51201C14.889 7.95274 14.8346 7.41106 15.0564 6.84467C14.7732 6.59568 14.5371 6.40799 14.2189 6.18372L14.2175 6.18229ZM12.1973 6.90786C12.3708 7.17205 12.6318 7.14497 12.8901 7.09793C13.1041 7.05896 13.3499 7.01763 13.438 6.77957L13.7576 5.91477C12.4441 5.22056 10.9617 5.07184 9.52783 5.48238L10.0093 6.47499C10.1528 6.77102 10.5028 6.81188 10.7358 6.63179C11.2103 6.26497 11.8653 6.40277 12.1973 6.90786ZM8.30699 10.454L8.64229 10.0563L8.63722 9.21002L7.73416 8.54242C7.60548 8.29819 7.52892 8.0454 7.43621 7.72657C7.07923 8.11145 6.62909 8.32717 6.11299 8.20268C5.63517 9.05607 5.36213 9.95745 5.322 10.9524C5.6324 10.9752 5.86485 11.0831 6.07517 11.372C6.54514 10.5457 7.39609 10.1532 8.30745 10.4535L8.30699 10.454ZM15.7492 13.3164C15.9355 13.7084 15.9267 14.1018 15.9272 14.548C16.7818 13.2613 17.0733 11.7165 16.8321 10.2297C16.0623 10.2297 15.6173 9.64765 15.2746 9.04277C15.1132 9.09028 14.8899 9.17629 14.7253 9.14445L13.9675 8.99905C13.8324 8.97339 13.6659 8.98575 13.5602 9.07128C13.3555 9.23711 13.3126 9.73223 13.5851 9.9356L14.4739 10.5984C14.6755 10.7486 15.7736 10.32 16.025 11.5454C16.0919 11.8724 16.1444 12.1441 16.0416 12.4777C15.9544 12.7595 15.8663 13.0346 15.7501 13.3159L15.7492 13.3164ZM8.22904 14.0823C8.67873 13.6362 8.94485 13.0408 9.02187 12.4064C9.12288 11.574 8.47626 10.8707 7.70003 10.8826C6.90397 10.8954 6.29194 11.6205 6.41508 12.4559C6.50825 13.0883 6.77806 13.6808 7.22313 14.1023C7.52523 14.3883 7.92003 14.3883 8.22858 14.0823H8.22904ZM5.8999 12.032L5.63286 11.66C5.56506 11.5659 5.47005 11.5055 5.32154 11.5008C5.34691 12.0786 5.42992 12.5461 5.59873 13.0864C5.64854 13.0565 5.74586 12.9619 5.75554 12.9058L5.8999 12.0325V12.032ZM14.634 15.9721C15.0624 15.5373 15.3142 14.9666 15.4014 14.3565C15.5227 13.5055 14.8816 12.7771 14.0768 12.7918C13.2997 12.806 12.6807 13.5235 12.7979 14.3522C12.8855 14.9709 13.1451 15.5473 13.569 15.9773C13.8817 16.2947 14.306 16.3047 14.634 15.9721ZM6.00598 13.9959L6.52116 14.1365L6.10422 13.3601C6.01244 13.4575 5.90267 13.5844 5.83948 13.6841C5.83672 13.7568 5.93265 13.9764 6.00598 13.9963V13.9959ZM9.31152 16.5522L8.63491 15.8846L8.52007 14.5409L8.00397 14.8435C7.9025 14.9029 7.85869 15.094 7.6945 15.0673C7.60825 15.0531 7.5137 14.9129 7.42883 14.8587C7.17286 14.6943 6.94594 14.5589 6.71948 14.3622C6.71211 14.5542 6.58158 14.672 6.38234 14.6948C6.7038 15.1334 7.04787 15.5444 7.46066 15.8594C7.59579 15.724 7.72078 15.6836 7.83839 15.744C8.11466 15.8851 7.80795 16.183 8.13726 16.3702C8.46795 16.5579 8.83969 16.7461 9.19898 16.8701C9.24741 16.8867 9.35626 16.7993 9.36179 16.7485C9.3664 16.7076 9.34334 16.5845 9.31106 16.5527L9.31152 16.5522Z" fill="#CE2029"/>
<path d="M16.5318 6.83705C16.9829 6.71256 17.3962 7.00431 17.4967 7.43053C17.5931 7.8406 17.3431 8.26967 16.9534 8.38466C16.5318 8.50867 16.1089 8.25969 15.9862 7.83489C15.8635 7.4101 16.0812 6.96107 16.5318 6.83705ZM16.5826 7.39394C16.4345 7.49943 16.4437 7.70327 16.5494 7.80781C16.6287 7.88621 16.7938 7.90997 16.8754 7.84725C17.0083 7.74556 17.0309 7.57878 16.9635 7.4752C16.8796 7.3469 16.7195 7.29606 16.5826 7.39347V7.39394Z" fill="#CE2029"/>
<path d="M6.29339 4.83915C6.74307 4.75267 7.12081 5.07388 7.19553 5.46019C7.28454 5.92157 6.99997 6.33306 6.59272 6.41336C6.16148 6.49794 5.76945 6.23422 5.67582 5.81371C5.58219 5.39319 5.82571 4.92943 6.29339 4.83915ZM6.29477 5.39984C6.15087 5.48347 6.14165 5.67781 6.22513 5.7966C6.29108 5.89068 6.46219 5.9325 6.55905 5.86787C6.68219 5.78567 6.7237 5.62412 6.66882 5.50105C6.61393 5.37798 6.43821 5.31716 6.29477 5.40031V5.39984Z" fill="#CE2029"/>
<path d="M10.2813 20.2695C9.99447 20.271 9.43871 20.156 9.55217 19.8138C9.59736 19.6784 9.74357 19.6076 9.8764 19.648L10.2823 19.7711C10.3579 19.7939 10.4502 19.9203 10.4621 19.993C10.4755 20.0733 10.3865 20.2691 10.2809 20.2695H10.2813Z" fill="#CE2029"/>
<path d="M14.0163 18.3612C13.9633 18.4957 13.7963 18.5565 13.6718 18.5094C13.5588 18.4667 13.4891 18.2899 13.5408 18.1602L13.6934 17.7758C13.7469 17.6408 13.889 17.5696 14.0144 17.6076C14.1399 17.6456 14.228 17.8257 14.1763 17.9568L14.0163 18.3612Z" fill="#CE2029"/>
<path d="M8.16814 17.9136C8.20826 18.0499 8.1234 18.2148 8.01963 18.2414C7.8808 18.2775 7.72214 18.2167 7.67925 18.0723L7.55703 17.6632C7.51874 17.5339 7.599 17.3667 7.71338 17.3301C7.85912 17.2835 8.00579 17.361 8.05191 17.5178L8.16814 17.9136Z" fill="#CE2029"/>
<path d="M19.2594 11.1864C19.2756 11.4339 19.3424 11.9428 19.0454 11.9699C18.9274 11.9808 18.7613 11.8825 18.7581 11.7471C18.7507 11.4111 18.6949 11.0319 19.0035 11.0172C19.0819 11.0134 19.2534 11.0961 19.2594 11.1859V11.1864Z" fill="#CE2029"/>
<path d="M8.97674 19.0892C9.07267 19.1866 9.10173 19.3424 9.03854 19.4484C8.98688 19.5344 8.78118 19.6033 8.69678 19.5315C8.51414 19.3752 8.08521 19.0402 8.33749 18.8036C8.43758 18.71 8.61053 18.7181 8.69862 18.8074L8.97674 19.0892Z" fill="#CE2029"/>
<path d="M11.3274 20.3393C11.2236 20.3592 11.0899 20.2072 11.0857 20.125C11.0811 20.0314 11.1365 19.8541 11.219 19.8361L11.6978 19.7306C11.8417 19.6987 11.9809 19.8038 12.0031 19.9411C12.0229 20.0632 11.9376 20.2224 11.8011 20.2485L11.3269 20.3393H11.3274Z" fill="#CE2029"/>
<path d="M19.1025 10.0686C19.1482 10.2254 19.0274 10.3832 18.9079 10.4007C18.7774 10.4202 18.6464 10.3342 18.6063 10.1969L18.496 9.81773C18.4568 9.68325 18.5242 9.5274 18.6459 9.48179C18.7589 9.43997 18.9379 9.50317 18.9762 9.63479L19.1021 10.0686H19.1025Z" fill="#CE2029"/>
<path d="M3.24467 9.97851C3.24605 10.1097 3.1063 10.2318 2.99377 10.2356C2.66169 10.247 2.7258 9.75139 2.73087 9.51428C2.73318 9.39501 2.89737 9.28335 2.99284 9.29143C3.11737 9.30188 3.23821 9.41307 3.23959 9.54754L3.24421 9.97851H3.24467Z" fill="#CE2029"/>
<path d="M12.926 19.6978C12.8227 19.7876 12.6235 19.732 12.5704 19.6488C12.487 19.5172 12.5183 19.3552 12.623 19.2668L12.9385 19.0017C13.0201 18.9332 13.1857 18.9366 13.2609 18.9964C13.36 19.0753 13.3919 19.2939 13.2969 19.3766L12.926 19.6982V19.6978Z" fill="#CE2029"/>
<path d="M18.1162 14.7828C18.035 14.8883 17.8339 14.8811 17.75 14.7942C17.6775 14.7196 17.6536 14.5447 17.7232 14.4483L17.9889 14.0791C18.0474 13.9973 18.2379 13.9812 18.3136 14.0297C18.6064 14.2178 18.2688 14.5842 18.1166 14.7823L18.1162 14.7828Z" fill="#CE2029"/>
<path d="M16.9309 15.8903C16.8322 15.963 16.6426 15.9022 16.5849 15.8085C16.5185 15.7007 16.5448 15.5192 16.6546 15.4408L17.0203 15.1794C17.1038 15.1196 17.3132 15.1775 17.3598 15.2702C17.4022 15.3543 17.3893 15.552 17.31 15.6109L16.9309 15.8912V15.8903Z" fill="#CE2029"/>
<path d="M9.28062 2.91368C9.14548 2.95169 8.99882 2.87804 8.95777 2.75783C8.91672 2.63761 8.9836 2.44945 9.12242 2.41096L9.53383 2.29692C9.66435 2.26081 9.81425 2.38435 9.83039 2.50076C9.8493 2.63571 9.7732 2.77493 9.64268 2.81199L9.28108 2.91368H9.28062Z" fill="#CE2029"/>
<path d="M11.0522 2.62235L10.6224 2.64468C10.5011 2.65086 10.383 2.51496 10.3752 2.3995C10.3678 2.29116 10.4642 2.12485 10.5832 2.11963L11.0578 2.09825C11.168 2.09349 11.2828 2.25837 11.2851 2.35673C11.2879 2.47125 11.185 2.61522 11.0527 2.62235H11.0522Z" fill="#CE2029"/>
<path d="M3.39171 8.51011C3.35112 8.64981 3.21553 8.74104 3.09699 8.72251C2.97846 8.70398 2.85578 8.56285 2.88945 8.4203C2.92819 8.2559 2.96601 8.12523 3.0172 7.96842C3.06102 7.83395 3.23028 7.77693 3.35297 7.82112C3.46412 7.86151 3.53376 8.02117 3.49641 8.14946L3.39171 8.50963V8.51011Z" fill="#CE2029"/>
<path d="M7.99195 3.51534C7.90939 3.56238 7.73828 3.53387 7.67325 3.4607C7.60821 3.38752 7.59392 3.16134 7.67786 3.1048C7.85635 2.98411 8.29404 2.64009 8.43379 2.94942C8.49513 3.08484 8.4527 3.25162 8.33232 3.32052L7.99241 3.51486L7.99195 3.51534Z" fill="#CE2029"/>
<path d="M3.91672 7.25338C3.86967 7.32133 3.69764 7.35032 3.62523 7.32181C3.53806 7.2876 3.43567 7.09801 3.4864 6.99632C3.57357 6.82194 3.66628 6.69079 3.7908 6.53589C3.85814 6.45226 4.05831 6.47032 4.12934 6.53827C4.21097 6.61572 4.23542 6.79485 4.17131 6.88751L3.91672 7.25338Z" fill="#CE2029"/>
<path d="M18.8909 13.4128C18.8563 13.4969 18.6405 13.5202 18.5676 13.475C18.4717 13.4161 18.4117 13.2612 18.4514 13.1434L18.5879 12.7366C18.6257 12.6236 18.7964 12.5528 18.8932 12.5813C19.2248 12.6782 19.0067 13.1301 18.8909 13.4123V13.4128Z" fill="#CE2029"/>
<path d="M3.54263 11.4719C3.56661 11.641 3.37336 11.7123 3.27282 11.7028C2.99516 11.6772 2.90615 11.1502 2.94028 10.9354C2.95273 10.858 3.11323 10.781 3.18149 10.7886C3.41579 10.8152 3.50481 11.2077 3.54217 11.4719H3.54263Z" fill="#CE2029"/>
<path d="M15.2921 3.6445C15.3655 3.7039 15.3355 3.93625 15.2742 3.9966C15.2073 4.06264 15.0256 4.09305 14.9435 4.02796L14.5906 3.74809C14.5155 3.68822 14.5067 3.49055 14.5607 3.40549C14.6215 3.30951 14.8185 3.25914 14.9144 3.33707L15.2926 3.64403L15.2921 3.6445Z" fill="#CE2029"/>
<path d="M4.26351 12.6341C4.26813 12.7543 4.25337 12.9078 4.19756 12.9634C4.14175 13.019 3.9402 13.0384 3.88624 12.9809C3.70913 12.7928 3.38813 12.4464 3.61136 12.2307C3.67224 12.1713 3.88578 12.1447 3.94066 12.2159L4.26351 12.6341Z" fill="#CE2029"/>
<path d="M13.7733 3.25155L13.3896 3.08239C13.2761 3.0325 13.2162 2.86809 13.248 2.75643C13.2798 2.64476 13.4528 2.53595 13.5676 2.58774L13.9961 2.77971C14.08 2.81725 14.1243 3.00399 14.0999 3.08666C14.0662 3.2007 13.9075 3.31142 13.7733 3.25202V3.25155Z" fill="#CE2029"/>
<path d="M12.4187 2.77268L12.0147 2.68953C11.9437 2.6748 11.8486 2.55933 11.8316 2.49043C11.8122 2.41203 11.8832 2.21769 11.969 2.20629C12.2042 2.1754 12.403 2.20914 12.6235 2.29704C12.7074 2.3303 12.7485 2.52607 12.7171 2.61255C12.6816 2.71186 12.5276 2.79501 12.4192 2.77268H12.4187Z" fill="#CE2029"/>
<path d="M16.3018 4.69979C16.3848 4.80242 16.3714 4.99629 16.2985 5.06281C16.1722 5.17827 15.996 5.15357 15.901 5.03382L15.6459 4.71357C15.58 4.63089 15.6081 4.43274 15.6962 4.35814C15.776 4.29067 15.9725 4.294 16.0499 4.38951L16.3013 4.69979H16.3018Z" fill="#CE2029"/>
<path d="M7.40425 11.5079C7.83871 11.3331 8.28425 11.5265 8.44383 11.9456C8.59373 12.3395 8.424 12.8132 8.00567 12.9857C7.64085 13.1363 7.1967 12.979 7.01683 12.596C6.83695 12.2131 6.97393 11.6818 7.40425 11.5084V11.5079ZM7.63163 11.985C7.45775 12.0453 7.41025 12.2368 7.47113 12.3509C7.53523 12.4706 7.68421 12.5352 7.78706 12.5029C7.94203 12.454 8.00475 12.2915 7.96509 12.1499C7.93142 12.0292 7.77968 11.9337 7.63163 11.985Z" fill="#CE2029"/>
<path d="M13.9969 13.3511C14.4585 13.2884 14.8257 13.6376 14.8746 14.0462C14.9285 14.4967 14.6227 14.8873 14.2012 14.9448C13.7829 15.0013 13.3941 14.7034 13.3286 14.2767C13.2631 13.85 13.5333 13.4138 13.9969 13.3511ZM14.0061 13.8923C13.8258 13.9759 13.7976 14.1631 13.8811 14.3047C13.9337 14.3936 14.0946 14.4496 14.2256 14.3888C14.3266 14.3423 14.399 14.1617 14.346 14.0382C14.2967 13.9232 14.138 13.8305 14.0056 13.8918L14.0061 13.8923Z" fill="#CE2029"/>
</svg>
