<svg xmlns="http://www.w3.org/2000/svg" width="23" height="20" fill="none" viewBox="0 0 23 20">
  <path fill="#727272" d="m18.211 9.959-6.257-3.31-.595.834c.218.27.258.587.096.87-.142.246-.534.428-.849.266l-2.73-1.402c-.313-.16-.433-.493-.35-.821.085-.328.396-.511.788-.468a8.365 8.365 0 0 1 1.635-3.204c-.228-.279-.28-.576-.11-.855.142-.235.51-.448.82-.288l2.807 1.448c.297.153.375.53.291.797-.098.316-.378.5-.781.463l-.32.962 6.516 2.638c.32.13.597.388.72.696.181.457.01.947-.345 1.247-.355.301-.846.387-1.336.128Zm-5.184-6.162c.103.053.288-.073.272-.132-.014-.05-.068-.167-.128-.198l-2.646-1.364c-.068-.035-.189-.01-.238.014-.05.023-.028.243.04.279l2.7 1.401Zm-2.143 3.458c.785-.95 1.286-1.978 1.622-3.175L10.4 2.991a7.823 7.823 0 0 0-1.614 3.197l2.098 1.067Zm7.67 2.346c.363.192.758-.169.838-.411.097-.296-.019-.679-.352-.814l-6.57-2.66a5.05 5.05 0 0 0-.257.54l6.34 3.345Zm-7.785-1.433c.067.035.236-.026.256-.088.02-.061-.038-.213-.105-.248L8.241 6.47c-.059-.03-.212.011-.232.069-.02.058.024.22.096.258l2.664 1.371Zm-.842 8.279 6.5-.003c-.786-1.043-.7-2.257.035-3.272l-10.452-.01c-.967 0-1.734.555-1.818 1.515-.076.866.586 1.724 1.524 1.755l.86.028.007.484c-.364.005-.668.023-1.014-.015a2.126 2.126 0 0 1-1.887-2.187c.035-1.07.898-2.072 2.076-2.074l11.225-.016c.094 0 .26.118.277.193.017.075-.037.226-.098.29-.995 1.064-1.091 2.323-.013 3.35.05.047.11.177.12.24.012.076-.144.225-.226.225l-7.1.001c-.029-.143-.032-.244-.016-.503v-.001Zm4.005-4.291H7.134c-.177 0-.38-.107-.457-.22a.622.622 0 0 1-.048-.492l.298-.725c.082-.2.304-.324.536-.324l6.194.002c.211 0 .411.153.481.329l.31.773c.04.102 0 .341-.062.43a.6.6 0 0 1-.454.227Zm.03-.498-.313-.765H7.427l-.31.766h6.845v-.001Z"/>
  <path fill="#727272" d="m8.942 17.597-.687-.952-.688.937c-.041.057-.201.122-.27.115-.083-.01-.19-.17-.19-.27v-3.111l-.656-.01c-.102-.001-.252-.144-.259-.236-.008-.114.138-.27.273-.27h5.537c.152 0 .284.134.28.27-.001.098-.15.237-.273.237l-2.604.001-.004 3.11a.41.41 0 0 1-.134.252c-.065.046-.275-.002-.326-.073h.001Zm-.437-1.451.376.45.01-2.287H7.613l.018 2.294.389-.502c.047-.061.192-.174.264-.146.06.023.165.123.22.19h.001Zm4.856-6.259-5.628.002c-.108 0-.242-.168-.242-.253 0-.086.131-.25.24-.25h5.605c.08 0 .217.133.245.201.033.08-.091.3-.22.3Z"/>
  <path fill="#727272" d="m14.869 15.82-4.932.004a1.315 1.315 0 0 1 .005-.512l4.9.002c.087 0 .21.152.232.224.023.073-.124.281-.205.281Z"/>
</svg>
