<svg width="16" height="13" viewBox="0 0 16 13" fill="none" xmlns="http://www.w3.org/2000/svg">
<path d="M7.10198 9.13772H6.20522L4.46325 10.6684C4.25022 10.8539 4.06297 10.9879 3.90148 11.0704C3.74343 11.1529 3.57679 11.1941 3.40157 11.1941C3.14731 11.1941 2.94803 11.1133 2.80373 10.9519C2.65942 10.7904 2.58727 10.5688 2.58727 10.287V9.13772H2.43781C1.96022 9.13772 1.53761 9.03636 1.16998 8.83365C0.805775 8.63093 0.518881 8.3406 0.309294 7.96266C0.103142 7.58471 6.65081e-05 7.13462 6.65081e-05 6.61237V2.52541C6.65081e-05 2.0066 0.101424 1.55822 0.30414 1.18027C0.506855 0.80233 0.795467 0.512001 1.16998 0.309285C1.54792 0.103134 1.99974 5.78091e-05 2.52542 5.78091e-05H8.98827C9.51396 5.78091e-05 9.96577 0.103134 10.3437 0.309285C10.7217 0.512001 11.0103 0.80233 11.2096 1.18027C11.4123 1.55822 11.5136 2.0066 11.5136 2.52541V3.38094H10.1839V2.60787C10.1839 2.18526 10.0774 1.86745 9.86441 1.65442C9.65483 1.43796 9.33701 1.32973 8.91096 1.32973H2.60788C2.1784 1.32973 1.85715 1.43796 1.64412 1.65442C1.43454 1.86745 1.32974 2.18526 1.32974 2.60787V6.53506C1.32974 6.95767 1.43454 7.27549 1.64412 7.48851C1.85715 7.70153 2.1784 7.80804 2.60788 7.80804H3.24695C3.40157 7.80804 3.51838 7.84584 3.59741 7.92143C3.67987 7.99358 3.7211 8.11555 3.7211 8.28735V9.71494L5.33423 8.13273C5.46136 8.00561 5.57646 7.91971 5.67954 7.87504C5.78605 7.83038 5.92864 7.80804 6.1073 7.80804H6.56084L7.10198 9.13772ZM8.29251 10.1942C7.80118 10.1942 7.37857 10.1066 7.02468 9.9314C6.67422 9.75617 6.4045 9.50364 6.21553 9.1738C6.03 8.84395 5.93723 8.44711 5.93723 7.98327V4.82916C5.93723 4.34814 6.03 3.93583 6.21553 3.59225C6.4045 3.24866 6.67422 2.98582 7.02468 2.80372C7.37857 2.61818 7.80118 2.52541 8.29251 2.52541H13.2814C13.7761 2.52541 14.1987 2.61818 14.5492 2.80372C14.8997 2.98582 15.1677 3.24866 15.3532 3.59225C15.5422 3.93583 15.6367 4.34814 15.6367 4.82916V7.98327C15.6367 8.44711 15.5473 8.84395 15.3687 9.1738C15.19 9.50364 14.9323 9.75617 14.5956 9.9314C14.2589 10.1066 13.8534 10.1942 13.3793 10.1942H13.2968V11.2868C13.2968 11.5617 13.2247 11.7816 13.0804 11.9465C12.9361 12.1115 12.7385 12.1939 12.4877 12.1939C12.3296 12.1939 12.1613 12.1458 11.9826 12.0496C11.804 11.9568 11.6201 11.8297 11.4312 11.6682L9.71495 10.1942H8.29251ZM8.4832 8.92642H9.72011C9.86441 8.92642 10.0087 8.95906 10.153 9.02434C10.2973 9.08618 10.4313 9.17723 10.555 9.29749L12.163 10.7766V9.4521C12.163 9.28374 12.2111 9.1549 12.3073 9.06557C12.4035 8.9728 12.5272 8.92642 12.6784 8.92642H13.0958C13.5047 8.92642 13.8139 8.8199 14.0235 8.60688C14.2331 8.39386 14.3379 8.08978 14.3379 7.69466V5.03015C14.3379 4.63159 14.2331 4.3258 14.0235 4.11278C13.8139 3.89976 13.5047 3.79324 13.0958 3.79324H8.4832C8.0709 3.79324 7.75995 3.89976 7.55036 4.11278C7.34421 4.3258 7.24114 4.63159 7.24114 5.03015V7.69466C7.24114 8.08978 7.34421 8.39386 7.55036 8.60688C7.75995 8.8199 8.0709 8.92642 8.4832 8.92642Z" fill="#CE2029"/>
</svg>
