<svg width="16" height="16" viewBox="0 0 16 16" fill="none" xmlns="http://www.w3.org/2000/svg">
<path d="M7.48915 0.0161981C13.8449 -0.379193 18.1297 6.5437 14.8583 12.0496C11.8253 17.1542 4.45673 17.2871 1.2586 12.2793C-2.01444 7.15401 1.45985 0.391354 7.48915 0.0167451V0.0161981ZM14.6614 8.88542H13.6995C12.877 8.88542 12.0457 8.32925 12.0867 7.43893C12.1091 6.94675 12.4313 6.50815 12.4843 6.11221C12.5374 5.71628 11.7974 6.15706 11.6006 6.21339C10.9941 6.38839 10.4188 6.42175 9.95556 5.91698C9.02259 4.90034 10.1699 3.95534 9.77126 3.03167C9.65696 2.76753 9.39829 2.38581 9.23477 2.13589C9.14563 1.99917 8.72563 1.35003 8.64196 1.29589C8.40024 1.13893 7.17142 1.26854 6.83509 1.32542C6.12852 1.44518 5.40282 1.70878 4.77556 2.04948C4.7061 2.79323 4.63063 3.57581 4.67165 4.32339C4.68259 4.52518 4.71704 4.93425 4.78321 5.11253C4.94563 5.55057 5.7572 5.56479 6.14767 5.67198C7.19657 5.96018 7.66306 6.65034 7.43774 7.74026C7.40001 7.92182 7.06532 8.68143 7.20915 8.78589C7.31524 8.863 7.90368 8.5737 8.06227 8.52831C9.7554 8.03995 10.5106 9.47878 10.1388 10.9728C9.86641 12.0666 9.29056 12.6485 8.48118 13.3671C7.97806 13.8139 7.40931 14.1945 6.92532 14.6555C8.48556 14.9087 10.1191 14.5844 11.4699 13.7756C11.5563 13.6996 11.3233 13.4026 11.2708 13.279C10.3887 11.2146 12.3924 9.22393 14.458 9.9901L14.6631 8.88487L14.6614 8.88542ZM14.7429 7.65768C14.6078 5.00807 12.8923 2.633 10.4248 1.68198L10.9022 2.55534C11.3616 3.59878 10.9372 3.87276 10.824 4.78331C10.8103 4.89378 10.7813 5.07643 10.9246 5.11471C11.0679 5.153 11.5666 4.89706 11.746 4.84565C12.3066 4.68378 12.8485 4.628 13.3112 5.05839C13.7848 5.49862 13.7563 6.0805 13.5945 6.65307C13.5469 6.82206 13.2751 7.39518 13.3134 7.50948C13.3325 7.5669 13.7213 7.65823 13.7815 7.65823H14.7434L14.7429 7.65768ZM5.73751 13.9604C6.24118 13.5891 6.74923 13.2139 7.22993 12.8136C8.01743 12.1579 8.9061 11.4885 9.00618 10.3746C9.02423 10.1771 8.95751 9.64721 8.70321 9.62151C8.56431 9.60784 8.06665 9.85448 7.88345 9.90589C6.77548 10.2187 5.81517 9.70518 5.94642 8.4605C5.9836 8.10831 6.34017 7.3826 6.26032 7.113C6.18048 6.84339 5.15837 6.74276 4.87673 6.65471C3.17048 6.12096 3.50517 4.46284 3.42423 3.03221C1.92743 4.34143 1.1454 6.36815 1.23345 8.35276C2.72204 8.32214 5.47774 7.86057 5.15181 10.2034C5.10751 10.5228 4.95493 10.852 4.92267 11.161C4.86634 11.7002 5.07142 12.1732 5.24423 12.6709C5.39517 13.1046 5.58876 13.5246 5.73696 13.9593L5.73751 13.9604ZM4.26313 13.5918C3.99899 12.7343 3.57079 11.926 3.70149 11.0046C3.7436 10.7071 4.03126 9.93432 3.91587 9.70354C3.8661 9.60346 3.42642 9.54768 3.30282 9.53893C2.70017 9.49464 2.04227 9.5619 1.43907 9.58159C1.76774 11.0696 2.66681 12.392 3.85845 13.3222C3.90657 13.3599 4.23579 13.6214 4.26313 13.5924V13.5918ZM13.9652 11.1369C12.8294 10.7185 11.8215 11.9682 12.5133 12.9782C13.1198 12.4811 13.5786 11.8134 13.9652 11.1369Z" fill="#CE2029"/>
</svg>
