<svg width="18" height="18" viewBox="0 0 18 18" fill="none" xmlns="http://www.w3.org/2000/svg">
<path d="M11.0104 15.1784H3.37295C3.22386 15.1784 3.08087 15.1191 2.97544 15.0137C2.87002 14.9083 2.81079 14.7653 2.81079 14.6162V3.37295C2.81079 3.22386 2.87002 3.08087 2.97544 2.97544C3.08087 2.87002 3.22386 2.81079 3.37295 2.81079H14.6162C14.7653 2.81079 14.9083 2.87002 15.0137 2.97544C15.1191 3.08087 15.1784 3.22386 15.1784 3.37295V11.0104C15.1784 11.0842 15.1638 11.1573 15.1356 11.2255C15.1073 11.2937 15.0659 11.3557 15.0137 11.4079L11.4079 15.0137C11.3557 15.0659 11.2937 15.1073 11.2255 15.1356C11.1573 15.1638 11.0842 15.1784 11.0104 15.1784V15.1784Z" stroke="#CE2029" stroke-width="1.34919" stroke-linecap="round" stroke-linejoin="round"/>
<path d="M15.1278 11.2427H11.2432V15.1272" stroke="#CE2029" stroke-width="1.34919" stroke-linecap="round" stroke-linejoin="round"/>
</svg>
