<svg width="64" height="64" viewBox="0 0 64 64" fill="none" xmlns="http://www.w3.org/2000/svg">
<path d="M37.6223 52.8973C36.654 55.4618 34.3456 57.0927 31.7232 57.1142C29.1008 57.1357 26.6751 55.5015 25.7184 52.9006H16.4467C15.366 55.2553 12.9337 56.4665 10.4617 55.9311C8.07893 55.4139 6.33233 53.2592 6.33399 50.7756C6.33564 48.292 8.03101 46.2133 10.3675 45.6597C12.8494 45.0731 15.3611 46.2728 16.4401 48.6737H25.7233C26.6652 46.0844 29.0083 44.4799 31.6125 44.4568C34.2613 44.4337 36.6507 46.0497 37.6058 48.6721H46.8873C47.9515 46.3058 50.407 45.1062 52.8575 45.635C55.308 46.1637 56.9901 48.3052 56.9934 50.7756C56.9967 53.2195 55.2981 55.3544 52.9649 55.9063C50.4648 56.4979 47.9763 55.2867 46.8824 52.9006L37.6206 52.894L37.6223 52.8973ZM30.9185 48.8224C29.7221 49.2686 29.2859 50.5756 29.7254 51.615C30.165 52.656 31.3498 53.127 32.3379 52.7833C33.5045 52.3768 34.0267 51.1507 33.6532 50.0948C33.2798 49.0389 32.0834 48.3895 30.9185 48.8241V48.8224Z" fill="#CE2029"/>
<path d="M31.6731 41.2987L21.2315 31.6355C15.1787 26.0338 15.5357 16.3904 21.2761 10.7259C27.0662 5.01191 36.3626 5.03835 42.113 10.7854C47.8253 16.4928 48.0914 26.0983 42.0403 31.6983L31.6731 41.2971V41.2987ZM31.6731 35.5616L39.1899 28.5818C43.4861 24.5946 43.1391 17.7206 39.0643 13.7135C34.9448 9.66508 28.3782 9.67169 24.2571 13.7184C20.2252 17.6776 19.8154 24.5681 24.0687 28.5108L31.6731 35.5599V35.5616Z" fill="#CE2029"/>
<path d="M31.5307 14.9114C35.1181 14.8304 37.9139 17.6858 37.9883 21.098C38.0643 24.5962 35.285 27.4647 31.8413 27.5589C28.3531 27.6531 25.4482 24.8986 25.3391 21.4483C25.2301 17.9981 27.9317 14.9924 31.5307 14.9114ZM31.0399 19.2258C29.8188 19.5976 29.2966 20.8782 29.6816 21.954C30.0667 23.0297 31.2118 23.5618 32.2396 23.2594C33.3979 22.9173 34.0076 21.7408 33.6821 20.6403C33.3566 19.5398 32.233 18.864 31.0383 19.2258H31.0399Z" fill="#CE2029"/>
</svg>
