<svg width="48" height="48" viewBox="0 0 48 48" fill="none" xmlns="http://www.w3.org/2000/svg">
<g clip-path="url(#clip0_2_5529)">
<path d="M0.788105 22.8175C0.460972 22.7482 0.311036 22.2327 0.277579 21.9365C0.154904 20.8411 0.265187 18.7185 0.530364 17.6429C0.95415 15.9242 2.2602 14.5587 3.8017 13.7681C1.2342 10.5178 3.79302 5.94664 7.9206 6.59595C9.6554 6.86856 10.6393 7.99866 11.3084 9.51785C11.3357 9.57857 11.2824 9.71115 11.4546 9.64548C11.7892 9.51537 12.2489 8.91934 12.7086 8.90323C10.8883 6.7843 11.3939 3.4758 13.8858 2.15115C17.8523 0.042135 22.1385 4.46959 19.6491 8.37784C19.5214 8.57734 19.2798 8.68267 19.2947 8.90323C20.4198 9.33322 21.338 10.2043 21.9564 11.2254C23.1558 11.1238 24.3367 11.1238 25.5362 11.2254C26.1521 10.1969 27.0839 9.358 28.1979 8.90323V8.76693C25.8981 6.4423 27.4904 2.12761 30.6799 1.69391C34.9277 1.11647 37.4493 5.59101 34.7839 8.90323C35.2437 8.91934 35.7021 9.51661 36.0379 9.64548C36.209 9.71115 36.1569 9.57857 36.1842 9.51785C36.7703 8.18577 37.4654 7.24898 38.909 6.76695C43.1754 5.34318 46.4938 10.3035 43.6909 13.7681C45.2423 14.5773 46.5756 15.9676 46.9833 17.7148C47.2299 18.7693 47.334 20.8647 47.215 21.9365C47.1877 22.1868 46.9994 22.8175 46.7045 22.8175H36.919C37.2771 25.8547 36.5175 28.867 34.9847 31.4767L44.7578 41.2746C46.8284 44.1147 43.479 47.4777 40.6277 45.4046L30.8298 35.6315C27.9736 37.3217 24.8051 37.9958 21.5041 37.4431C14.612 36.2907 9.75205 29.7667 10.5761 22.8175H0.788105ZM15.3753 3.08547C12.8487 3.45225 12.1411 6.96026 14.2923 8.38651C16.8722 10.0965 20.0939 7.3667 18.5983 4.54393C17.9552 3.32958 16.7061 2.89216 15.374 3.08547H15.3753ZM30.8645 3.08547C27.3317 3.59847 27.9315 9.48067 32.0219 8.88093C35.629 8.35182 35.2238 2.45226 30.8645 3.08547ZM7.11144 7.92059C3.06441 7.96892 3.2986 14.1944 7.46584 13.8201C11.1386 13.4905 10.9119 7.87599 7.11144 7.92059ZM40.3179 7.92059C36.2325 7.96892 36.5187 14.1931 40.6723 13.8201C44.3427 13.4905 44.0899 7.87599 40.3179 7.92059ZM20.4991 11.5934C20.0629 10.8735 18.6293 9.81028 17.7705 9.928C17.0184 10.0321 16.6813 10.3506 15.7185 10.2997C15.0766 10.265 14.3146 9.86976 13.7991 9.94411C13.2836 10.0185 12.1647 10.7508 11.8251 11.1275C11.2427 11.7756 11.1845 13.0618 10.4831 13.7669C11.6033 14.3616 12.5959 15.2105 13.2179 16.3232C15.0804 14.0556 17.5859 12.2117 20.4991 11.5922V11.5934ZM34.318 16.3245C34.8595 15.1782 35.9215 14.3678 37.0082 13.7681C36.8496 13.3976 36.5423 13.1064 36.3713 12.7421C35.8261 11.5761 36.1123 11.2749 34.8323 10.4782C33.2499 9.4943 33.2685 10.2192 31.7728 10.2997C30.8088 10.3506 30.473 10.0321 29.7208 9.928C28.8423 9.80657 27.4966 10.8648 26.9922 11.5476C29.9488 12.2601 32.3664 14.0556 34.318 16.3245ZM23.0765 12.5488C13.5513 13.1262 8.51539 24.1434 14.4323 31.7121C19.5586 38.2672 29.6762 37.572 33.9302 30.4519C38.7814 22.3318 32.4767 11.9788 23.0765 12.5488ZM10.8524 21.426C10.9714 20.8547 11.1337 20.2785 11.3394 19.7333C11.4782 19.3665 12.3072 17.773 12.2923 17.6132C12.2229 16.8251 10.8066 15.5128 10.1139 15.1609C8.81526 14.5017 8.902 15.0432 7.71862 15.1857C7.10401 15.26 6.62198 15.203 6.02843 15.0729C5.11023 14.8722 5.26512 14.6231 4.23168 15.1299C3.2763 15.5996 1.76207 17.2166 1.76207 18.3182V21.426H10.8524ZM45.728 21.426V18.3182C45.728 17.2166 44.2138 15.5983 43.2584 15.1299C42.2262 14.6231 42.3799 14.8722 41.4617 15.0729C40.8681 15.203 40.3861 15.26 39.7715 15.1857C38.5881 15.0432 38.6748 14.5017 37.3762 15.1609C36.6835 15.5128 35.2672 16.8251 35.1978 17.6132C35.1842 17.773 36.0132 19.3653 36.1507 19.7333C36.3564 20.2785 36.52 20.8547 36.6377 21.426H45.728ZM34.0975 32.6538L32.007 34.8174L39.2696 42.0118C39.5274 41.7318 41.3923 40.0193 41.3625 39.852L34.0975 32.6551V32.6538ZM41.6983 40.2547L39.6054 42.4146C40.0899 42.8334 41.4282 44.5075 42.0701 44.6078C43.3489 44.8073 44.1618 44.0019 43.9598 42.7182C43.8668 42.1234 42.168 40.6401 41.6996 40.2535L41.6983 40.2547Z" fill="#CE2029"/>
<path d="M23.2624 13.9403C31.9029 13.4868 37.2783 23.3591 32.261 30.4531C28.1285 36.2957 19.3603 36.2969 15.2291 30.4531C10.4373 23.6775 15.0283 14.3728 23.2624 13.9403ZM30.2388 30.6093C35.1284 25.851 32.6291 17.2811 26.0653 15.6281C17.2179 13.4001 10.9813 23.9613 17.1596 30.5634L17.6999 28.877C18.2798 27.7109 19.281 26.6477 20.4979 26.1558C19.7457 24.9191 19.2575 23.8349 19.6144 22.3516C20.6354 18.0964 26.8336 18.0803 27.8757 22.3516C28.2363 23.8287 27.7394 24.9241 26.9922 26.1558C28.7159 26.8894 30.1322 28.7022 30.24 30.6093H30.2388ZM23.4458 20.5251C19.8275 20.8733 20.2315 26.3169 23.8795 26.1583C27.67 25.9935 27.3441 20.1497 23.4458 20.5251ZM21.9378 27.126C21.4223 27.0963 20.3752 27.7531 19.9861 28.1025C19.1274 28.8732 18.3257 30.5077 18.5524 31.6749C18.6193 32.0194 19.8932 32.6154 20.2501 32.7604C22.8361 33.8112 25.9501 33.6724 28.3516 32.2028C29.0318 31.7865 29.012 31.6923 28.9278 30.8534C28.7753 29.354 27.2153 27.1769 25.6093 27.131C25.2463 27.1211 24.3739 27.5635 23.6973 27.5573C23.0208 27.5511 22.3479 27.1508 21.9378 27.1273V27.126Z" fill="#CE2029"/>
<path d="M23.4458 20.5251C27.3441 20.1497 27.67 25.9935 23.8795 26.1583C20.2314 26.3169 19.8275 20.8733 23.4458 20.5251Z" fill="white"/>
</g>
<defs>
<clipPath id="clip0_2_5529">
<rect width="47.583" height="47.583" fill="white"/>
</clipPath>
</defs>
</svg>
