<svg width="16" height="16" viewBox="0 0 16 16" fill="none" xmlns="http://www.w3.org/2000/svg">
<g clip-path="url(#clip0_2_1948)">
<path d="M0 3.74243V3.43035C0.06625 3.1891 0.19 3.0166 0.4025 2.86243L3.65125 0.503268C3.94875 0.287018 4.3275 0.271601 4.63042 0.492018L7.96375 2.91493C8.33167 3.18243 8.39375 3.68702 8.1475 4.04202C7.90125 4.39702 7.44625 4.4991 7.04792 4.27452L7.04458 6.92535C7.04375 7.50785 6.57333 7.98285 5.98833 7.98285H2.30958C1.70042 7.98285 1.24917 7.48743 1.24917 6.8941L1.25 4.27618C0.978333 4.42077 0.712083 4.42952 0.444167 4.3016C0.22875 4.19868 0.09125 3.9841 0 3.74285V3.74243ZM4.33208 1.68327L7.27625 3.82368C7.43667 3.94035 7.63458 3.89993 7.73583 3.75743C7.83708 3.61493 7.81458 3.42243 7.66167 3.3116L4.34583 0.901601C4.23625 0.822018 4.08125 0.808268 3.96917 0.889934L0.635 3.31202C0.474167 3.42868 0.461667 3.63868 0.57375 3.77535C0.68 3.90452 0.866667 3.93535 1.01958 3.8241L3.97583 1.6766C4.09125 1.59285 4.20333 1.59035 4.33208 1.68368V1.68327ZM4.54125 4.36785C4.92292 4.36743 5.18792 4.65952 5.18792 5.02202V7.48202L5.99042 7.4866C6.31292 7.47035 6.55458 7.22118 6.54833 6.89118L6.54667 3.90993L4.14958 2.16785L1.75042 3.90993L1.74875 6.92285C1.75833 7.24035 1.99667 7.47118 2.30667 7.48702L3.10958 7.48243L3.10875 5.0216C3.10875 4.66077 3.37542 4.36952 3.7425 4.3691L4.54167 4.36785H4.54125ZM4.68833 7.48327V4.99077C4.67375 4.93285 4.6125 4.86743 4.56083 4.86743H3.73667C3.69208 4.86702 3.60875 4.93535 3.60875 4.99077V7.48618L4.68875 7.48327H4.68833Z" fill="#CE2029"/>
<path d="M13.6595 15.6941H9.98072C9.40989 15.6941 8.92781 15.2333 8.92656 14.6599L8.92114 11.9887C8.52572 12.2087 8.05864 12.102 7.81614 11.7466C7.57364 11.3912 7.64072 10.8916 8.00781 10.6249L11.3628 8.18867C11.6416 7.98617 12.0211 8.00034 12.297 8.20075L15.6341 10.6237C15.9895 10.8978 16.0728 11.3658 15.8357 11.7303C15.5986 12.0949 15.1303 12.2199 14.7199 11.9858L14.717 14.6291C14.7161 15.2153 14.2503 15.6945 13.6586 15.6945L13.6595 15.6941ZM11.9982 9.39075L14.9599 11.5428C15.1145 11.6549 15.3128 11.6053 15.4099 11.4658C15.5066 11.3274 15.4836 11.1316 15.3278 11.0183L12.0291 8.62117C11.9049 8.53075 11.7578 8.51659 11.6311 8.60867L8.31364 11.0187C8.15697 11.1324 8.13322 11.3262 8.23114 11.4662C8.32906 11.6062 8.52697 11.6553 8.68156 11.5433L11.6553 9.38325C11.7657 9.30325 11.8753 9.30117 11.9986 9.39075H11.9982ZM12.242 12.0816C12.6049 12.0828 12.8595 12.3828 12.8595 12.7245V15.1937L13.6299 15.1983C13.9566 15.1987 14.2141 14.9599 14.2199 14.6266V11.6233L11.822 9.87992L9.42322 11.6203L9.42031 14.6266C9.42697 14.9612 9.68406 15.1995 10.0111 15.1987L10.7816 15.1941V12.7253C10.7816 12.367 11.0545 12.0787 11.4157 12.0799L12.2424 12.0824L12.242 12.0816ZM12.3607 15.1937V12.7228C12.3553 12.6528 12.2932 12.5774 12.2274 12.5774H11.4141C11.3516 12.5774 11.2803 12.6528 11.2803 12.7233L11.2811 15.1974L12.3607 15.1937Z" fill="#CE2029"/>
<path d="M12.9218 6.97619L11.9509 5.74244C11.8655 5.63411 11.9114 5.47494 12.0009 5.40661C12.0989 5.33119 12.2543 5.33244 12.3397 5.43744L12.8697 6.09036L12.8759 4.05494C12.8768 3.84036 12.7209 3.68827 12.5051 3.68827H9.54635C9.39927 3.68786 9.30552 3.56869 9.30094 3.44744C9.29635 3.32619 9.39302 3.18994 9.54719 3.18994L12.5651 3.19411C13.0343 3.19494 13.373 3.60536 13.3739 4.05036L13.3784 6.09327L13.9005 5.44577C13.988 5.33744 14.1418 5.32286 14.2539 5.41161C14.3384 5.47869 14.3809 5.63911 14.2934 5.75036L13.3193 6.98452C13.2155 7.11619 13.0214 7.10119 12.923 6.97577L12.9218 6.97619Z" fill="#CE2029"/>
<path d="M6.33572 13.1451C6.50114 13.1451 6.59655 13.2722 6.59447 13.3968C6.59239 13.5347 6.48405 13.6439 6.33072 13.6439L3.36864 13.6426C2.91364 13.6426 2.52655 13.2784 2.52572 12.8201L2.52072 10.7272L1.99614 11.3884C1.90905 11.4984 1.74989 11.5034 1.65364 11.4289C1.55739 11.3543 1.51614 11.193 1.60489 11.0805L2.57864 9.84678C2.67655 9.72261 2.87155 9.72719 2.9678 9.84886L3.93239 11.0714C4.01864 11.1805 3.99739 11.3297 3.91197 11.4105C3.8103 11.5064 3.64447 11.5043 3.55197 11.3901L3.0253 10.7401L3.02114 12.7889C3.02114 12.9797 3.16989 13.1434 3.36989 13.1434L6.33655 13.1447L6.33572 13.1451Z" fill="#CE2029"/>
</g>
<defs>
<clipPath id="clip0_2_1948">
<rect width="16" height="16" fill="white"/>
</clipPath>
</defs>
</svg>
