<svg width="24" height="24" viewBox="0 0 24 24" fill="none" xmlns="http://www.w3.org/2000/svg">
<path d="M10.4727 3.06445C10.2069 3.7215 10.0444 4.43157 10.0078 5.1748C8.84189 5.4497 7.76406 6.04258 6.90332 6.90332C5.68433 8.12231 5 9.77609 5 11.5L5.00781 11.8223C5.0875 13.4288 5.76051 14.9539 6.90332 16.0967C8.12231 17.3157 9.77609 18 11.5 18C13.2239 18 14.8777 17.3157 16.0967 16.0967C17.2388 14.9546 17.9109 13.4307 17.9912 11.8252C18.708 11.6569 19.378 11.3701 19.9814 10.9863C19.9918 11.1569 20 11.3281 20 11.5C20 13.4247 19.345 15.2803 18.1621 16.7744L20.6797 19.293C21.0702 19.6835 21.0702 20.3165 20.6797 20.707C20.2892 21.0974 19.6561 21.0975 19.2656 20.707L16.7441 18.1855C15.2552 19.3535 13.4118 20 11.5 20C9.24566 20 7.08332 19.1048 5.48926 17.5107C3.8952 15.9167 3 13.7543 3 11.5C3 9.24566 3.8952 7.08332 5.48926 5.48926C6.83918 4.13934 8.5969 3.29277 10.4727 3.06445Z" fill="url(#paint0_linear_47_14)"/>
<path d="M20.7645 1.07573C20.6851 1.02624 20.5935 1 20.5 1C20.3957 0.999937 20.2939 1.03254 20.209 1.09324C20.1242 1.15394 20.0604 1.23968 20.0267 1.33846L19.8518 1.8519L19.339 2.02688L19.28 2.05087C19.1912 2.0944 19.1172 2.16334 19.0675 2.24896C19.0178 2.33457 18.9947 2.43301 19.001 2.5318C19.0073 2.63059 19.0428 2.72528 19.103 2.80387C19.1632 2.88246 19.2453 2.94142 19.339 2.97326L19.8523 3.14824L20.0272 3.66118L20.0512 3.71967C20.0947 3.80859 20.1635 3.88261 20.2491 3.93233C20.3347 3.98206 20.4331 4.00526 20.5318 3.999C20.6306 3.99273 20.7252 3.95728 20.8038 3.89715C20.8824 3.83701 20.9414 3.75488 20.9733 3.66118L21.1482 3.14774L21.661 2.97276L21.72 2.94876C21.8088 2.90524 21.8828 2.8363 21.9325 2.75068C21.9822 2.66506 22.0053 2.56662 21.999 2.46783C21.9927 2.36904 21.9572 2.27435 21.897 2.19576C21.8368 2.11717 21.7547 2.05822 21.661 2.02638L21.1477 1.8514L20.9728 1.33846L20.9488 1.27997C20.9077 1.19598 20.8438 1.12522 20.7645 1.07573Z" fill="url(#paint1_linear_47_14)"/>
<path d="M15.2948 9.79806C15.5063 9.93004 15.7507 10 16 10C16.2782 10.0002 16.5495 9.91322 16.7759 9.75136C17.0022 9.5895 17.1722 9.36084 17.2621 9.09744L17.7286 7.72827L19.096 7.26167L19.2532 7.19767C19.4903 7.08161 19.6875 6.89777 19.8199 6.66945C19.9524 6.44114 20.0141 6.17863 19.9973 5.91519C19.9804 5.65175 19.8858 5.39924 19.7253 5.18967C19.5649 4.9801 19.3458 4.82289 19.096 4.73797L17.7272 4.27136L17.2608 2.90353L17.1968 2.74755C17.0809 2.51042 16.8972 2.31305 16.6691 2.18044C16.4409 2.04784 16.1785 1.98597 15.9152 2.00267C15.6518 2.01938 15.3994 2.11391 15.1898 2.27428C14.9802 2.43465 14.8229 2.65365 14.7379 2.90353L14.2714 4.27269L12.904 4.7393L12.7468 4.8033C12.5097 4.91936 12.3125 5.1032 12.1801 5.33152C12.0476 5.55983 11.9859 5.82234 12.0027 6.08578C12.0196 6.34922 12.1142 6.60172 12.2747 6.8113C12.4351 7.02087 12.6542 7.17808 12.904 7.263L14.2728 7.72961L14.7392 9.09744L14.8032 9.25342C14.9129 9.47739 15.0832 9.66609 15.2948 9.79806Z" fill="url(#paint2_linear_47_14)"/>
<defs>
<linearGradient id="paint0_linear_47_14" x1="11.9863" y1="3.06445" x2="11.9863" y2="20.9998" gradientUnits="userSpaceOnUse">
<stop stop-color="#CE2029"/>
<stop offset="0.495192" stop-color="#AE1B23"/>
<stop offset="1" stop-color="#B736C8"/>
</linearGradient>
<linearGradient id="paint1_linear_47_14" x1="20.5" y1="1" x2="20.5" y2="4" gradientUnits="userSpaceOnUse">
<stop stop-color="#CE2029"/>
<stop offset="0.495192" stop-color="#AE1B23"/>
<stop offset="1" stop-color="#B736C8"/>
</linearGradient>
<linearGradient id="paint2_linear_47_14" x1="16" y1="10" x2="16" y2="2" gradientUnits="userSpaceOnUse">
<stop stop-color="#CE2029"/>
<stop offset="0.495192" stop-color="#AE1B23"/>
<stop offset="1" stop-color="#B736C8"/>
</linearGradient>
</defs>
</svg>
