<svg width="14" height="14" viewBox="0 0 14 14" fill="none" xmlns="http://www.w3.org/2000/svg">
<path d="M6.12408 13.4901C5.85764 13.4901 5.62604 13.4122 5.42928 13.2564C5.23252 13.1048 5.10545 12.9018 5.04806 12.6477L4.80212 11.6024L4.66685 11.5594L3.763 12.1128C3.53345 12.2521 3.2957 12.3054 3.04975 12.2726C2.80381 12.2398 2.58655 12.1292 2.398 11.9406L1.53104 11.0798C1.33838 10.8871 1.2277 10.6678 1.19901 10.4219C1.17032 10.1718 1.22565 9.93615 1.36502 9.7148L1.92455 8.8171L1.87536 8.68797L0.842387 8.44203C0.588243 8.38464 0.383288 8.25757 0.227522 8.06081C0.0758556 7.85996 2.22181e-05 7.62631 2.22181e-05 7.35987V6.15473C2.22181e-05 5.88829 0.0758556 5.65669 0.227522 5.45993C0.379189 5.26318 0.584144 5.13406 0.842387 5.07257L1.86921 4.82047L1.9184 4.6852L1.35887 3.7875C1.2195 3.56615 1.16417 3.3325 1.19286 3.08656C1.22155 2.83651 1.33428 2.61516 1.53104 2.4225L2.39185 1.55554C2.58041 1.37108 2.79766 1.26246 3.0436 1.22966C3.28955 1.19277 3.52525 1.24401 3.7507 1.38338L4.65455 1.94291L4.80212 1.88757L5.04806 0.842299C5.10545 0.592254 5.23252 0.389348 5.42928 0.233582C5.62604 0.0778167 5.85764 -6.62026e-05 6.12408 -6.62026e-05H7.3784C7.64484 -6.62026e-05 7.87644 0.0778167 8.0732 0.233582C8.26996 0.385249 8.39703 0.588155 8.45441 0.842299L8.69421 1.88757L8.84178 1.94291L9.75178 1.38338C9.97313 1.24401 10.2068 1.19277 10.4527 1.22966C10.7028 1.26246 10.92 1.37108 11.1045 1.55554L11.9714 2.4225C12.1682 2.61516 12.2789 2.83651 12.3035 3.08656C12.3322 3.3325 12.2789 3.56615 12.1436 3.7875L11.5779 4.6852L11.6333 4.82047L12.6601 5.07257C12.9142 5.13406 13.1171 5.26318 13.2688 5.45993C13.4246 5.65669 13.5025 5.88829 13.5025 6.15473V7.35987C13.5025 7.62631 13.4246 7.85996 13.2688 8.06081C13.1171 8.25757 12.9142 8.38464 12.6601 8.44203L11.6271 8.68797L11.5718 8.8171L12.1375 9.7148C12.2768 9.93615 12.3322 10.1718 12.3035 10.4219C12.2748 10.6678 12.1641 10.8871 11.9714 11.0798L11.1045 11.9406C10.9159 12.1292 10.6966 12.2398 10.4466 12.2726C10.2006 12.3054 9.96698 12.2521 9.74563 12.1128L8.83563 11.5594L8.69421 11.6024L8.45441 12.6477C8.39703 12.9018 8.26996 13.1048 8.0732 13.2564C7.87644 13.4122 7.64484 13.4901 7.3784 13.4901H6.12408ZM6.32083 12.2603H7.18164C7.28002 12.2603 7.33536 12.2132 7.34766 12.1189L7.71658 10.6125C7.92563 10.5674 8.12239 10.5059 8.30685 10.428C8.49131 10.3502 8.66552 10.26 8.82948 10.1575L10.1453 10.963C10.2273 11.0204 10.3011 11.0122 10.3666 10.9384L10.9692 10.3358C11.0348 10.2743 11.0409 10.2026 10.9877 10.1206L10.176 8.8048C10.2703 8.64903 10.3564 8.47687 10.4343 8.28831C10.5122 8.09565 10.5757 7.90095 10.6249 7.70419L12.1375 7.34757C12.2276 7.33117 12.2727 7.27379 12.2727 7.17541V6.33304C12.2727 6.23876 12.2276 6.18343 12.1375 6.16703L10.6249 5.79811C10.5798 5.59315 10.5163 5.3964 10.4343 5.20784C10.3523 5.01518 10.2683 4.84507 10.1822 4.6975L10.9938 3.38169C11.0471 3.29971 11.0409 3.22592 10.9754 3.16034L10.3728 2.56392C10.3031 2.50243 10.2273 2.49424 10.1453 2.53933L8.82948 3.33865C8.66962 3.24437 8.49541 3.15624 8.30685 3.07426C8.12239 2.99228 7.92563 2.92874 7.71658 2.88365L7.34766 1.37108C7.33536 1.2768 7.28002 1.22966 7.18164 1.22966H6.32083C6.22245 1.22966 6.16507 1.2768 6.14867 1.37108L5.79205 2.87135C5.58709 2.92054 5.38214 2.98818 5.17718 3.07426C4.97633 3.15624 4.80417 3.24232 4.6607 3.3325L3.35104 2.53318C3.26495 2.48809 3.18912 2.49833 3.12354 2.56392L2.51482 3.15419C2.45333 3.21978 2.44923 3.29561 2.50252 3.38169L3.31414 4.6975C3.22806 4.84507 3.14403 5.01518 3.06205 5.20784C2.98007 5.3964 2.91653 5.5952 2.87144 5.80426L1.36502 6.16703C1.27484 6.18343 1.22975 6.23876 1.22975 6.33304V7.17541C1.22975 7.27379 1.27484 7.33117 1.36502 7.34757L2.87759 7.70419C2.92268 7.90505 2.98417 8.09975 3.06205 8.28831C3.13993 8.47277 3.22601 8.64493 3.32029 8.8048L2.50252 10.1206C2.45743 10.2067 2.46563 10.2805 2.52712 10.342L3.12968 10.9445C3.19527 11.0142 3.26905 11.0224 3.35104 10.9691L4.673 10.1575C4.83286 10.26 5.00707 10.3522 5.19563 10.4342C5.38829 10.5121 5.58504 10.5715 5.7859 10.6125L6.14867 12.1189C6.16507 12.2132 6.22245 12.2603 6.32083 12.2603ZM6.75124 9.06919C6.32083 9.06919 5.92937 8.96466 5.57685 8.75561C5.22432 8.54656 4.94354 8.26577 4.73448 7.91324C4.52953 7.56072 4.42705 7.17131 4.42705 6.745C4.42705 6.3146 4.52953 5.92518 4.73448 5.57676C4.94354 5.22424 5.22432 4.94345 5.57685 4.73439C5.92937 4.52534 6.32083 4.42081 6.75124 4.42081C7.17755 4.42081 7.56491 4.52534 7.91333 4.73439C8.26586 4.94345 8.54664 5.22424 8.7557 5.57676C8.96475 5.92518 9.06928 6.3146 9.06928 6.745C9.06928 7.17131 8.96475 7.56072 8.7557 7.91324C8.54664 8.26577 8.26586 8.54656 7.91333 8.75561C7.56491 8.96466 7.17755 9.06919 6.75124 9.06919ZM6.75124 7.93784C6.96849 7.93784 7.1673 7.88455 7.34766 7.77797C7.52802 7.6714 7.67149 7.52793 7.77806 7.34757C7.88464 7.16311 7.93793 6.96225 7.93793 6.745C7.93793 6.52365 7.88464 6.32279 7.77806 6.14243C7.67149 5.96207 7.52802 5.81861 7.34766 5.71203C7.1673 5.60545 6.96849 5.55216 6.75124 5.55216C6.52989 5.55216 6.32903 5.60545 6.14867 5.71203C5.96831 5.81861 5.82484 5.96207 5.71827 6.14243C5.61169 6.32279 5.5584 6.52365 5.5584 6.745C5.5584 6.96225 5.61169 7.16311 5.71827 7.34757C5.82484 7.52793 5.96831 7.6714 6.14867 7.77797C6.32903 7.88455 6.52989 7.93784 6.75124 7.93784Z" fill="#CE2029"/>
</svg>
