<svg xmlns="http://www.w3.org/2000/svg" width="11" height="11" fill="none" viewBox="0 0 11 11">
  <g clip-path="url(#a)">
    <path fill="#A9A9A9" d="M3.667 2.509V9.68c0 .012-.037.104-.046.126-.138.334-.598.37-.8.077a1.018 1.018 0 0 1-.076-.16V2.51L1.222 4.02a.46.46 0 0 1-.696-.59l2.39-2.391a.467.467 0 0 1 .58 0l2.336 2.338a.46.46 0 0 1-.599.685L3.667 2.509Zm4.567 6.004L9.756 7a.46.46 0 0 1 .696.589l-2.39 2.392a.467.467 0 0 1-.58 0L5.147 7.644a.46.46 0 0 1 .6-.685l1.566 1.554V1.34c0-.011.036-.103.045-.126.14-.335.598-.37.8-.076a.923.923 0 0 1 .077.16v7.215Z"/>
  </g>
  <defs>
    <clipPath id="a">
      <path fill="#fff" d="M0 0h11v11H0z"/>
    </clipPath>
  </defs>
</svg>
