<svg width="63" height="63" viewBox="0 0 63 63" fill="none" xmlns="http://www.w3.org/2000/svg">
<g clip-path="url(#clip0_56_928)">
<path d="M62.0929 40.2632V41.7185C61.5508 43.7268 60.0216 45.1215 57.8362 45.1203L40.4902 45.1118C40.7522 46.1002 41.0008 46.9649 41.1573 47.9872C41.5744 50.7159 39.5067 53.4579 36.6131 53.4616L4.98948 53.4955C2.42816 53.4979 0.57993 51.8656 -0.000976562 49.4813V47.9047C1.45553 40.5555 6.21678 34.3996 13.3999 31.6818C6.88501 26.8902 6.36474 17.483 12.135 12.005C16.7774 7.59786 23.9775 7.47173 28.7642 11.7139C34.8376 17.1082 34.4726 26.7593 27.8364 31.6673C29.3233 32.2882 30.6731 32.9552 32.0095 33.8247C33.8371 31.1033 36.3196 29.0271 39.3248 27.7089C34.5939 23.6716 34.4398 16.5213 38.8809 12.3009C42.7278 8.64446 48.743 8.64689 52.5801 12.3094C57.0346 16.5625 56.8308 23.6995 52.1217 27.7173C57.5294 30.0337 60.925 34.7464 62.0917 40.2656L62.0929 40.2632ZM26.8323 27.7355C30.4087 24.0718 30.2813 18.2252 26.6528 14.7118C23.0243 11.1985 17.6894 11.4508 14.3313 14.9471C10.7585 18.6678 10.9513 24.6539 14.7873 28.1212C18.2533 31.2549 23.5239 31.1264 26.8323 27.7355ZM50.2517 24.4732C52.8591 21.7906 52.7584 17.5642 50.128 15.0005C47.6552 12.5907 43.7901 12.6004 41.3198 15.009C38.619 17.6406 38.6299 22.0065 41.3525 24.6212C43.8605 27.0309 47.7813 27.0152 50.2529 24.472L50.2517 24.4732ZM58.1018 41.4735C58.3249 41.4735 58.4838 40.9884 58.4413 40.8793C57.9199 38.0136 56.5325 35.4668 54.4623 33.5228C48.5417 27.9672 39.1174 29.2575 34.8728 36.1229C36.5537 37.7177 37.8671 39.4822 38.9452 41.4772L58.103 41.4735H58.1018ZM36.3633 49.8439C37.1079 49.8439 37.684 49.2739 37.5578 48.5293C36.8605 44.4205 34.7394 40.7289 31.5935 38.0621C25.0714 32.5307 15.5137 32.7005 9.18316 38.4489C6.28227 41.083 4.32975 44.6036 3.66152 48.5111C3.53176 49.2727 4.10296 49.8439 4.86942 49.8439H36.3621H36.3633Z" fill="#CE2029"/>
</g>
<defs>
<clipPath id="clip0_56_928">
<rect width="62.0927" height="62.0927" fill="white"/>
</clipPath>
</defs>
</svg>
