<svg width="18" height="12" viewBox="0 0 18 12" fill="none" xmlns="http://www.w3.org/2000/svg">
<path d="M17.052 10.386C17.052 11.058 16.446 11.67 15.786 11.67H1.266C0.606 11.67 0 11.052 0 10.398V1.272C0 0.618 0.606 0 1.266 0H15.786C16.446 0 17.052 0.618 17.052 1.272V10.38V10.386ZM8.844 6.336L15.348 0.9H1.698L8.196 6.366C8.4 6.522 8.628 6.522 8.844 6.336ZM5.652 5.382L0.894 1.392V10.146L5.652 5.388V5.382ZM16.158 10.14V1.392L11.4 5.388L16.158 10.14ZM10.638 5.97L9.192 7.164C8.724 7.446 8.148 7.428 7.704 7.11L6.324 5.97L1.518 10.776H15.528L10.632 5.97H10.638Z" fill="#727272" fill-opacity="0.5"/>
</svg>
