<svg width="18" height="18" viewBox="0 0 18 18" fill="none" xmlns="http://www.w3.org/2000/svg">
<g clip-path="url(#clip0_56_480)">
<path d="M18 7.83018V16.5964C17.8756 17.3531 17.3206 17.8976 16.5612 18H1.47344C0.77383 18 0.0584005 17.2758 0.0562033 16.5823L0.0302755 8.0042C0.0298361 7.82491 0.0983908 7.66934 0.227151 7.55684L3.19346 4.96055L3.19258 3.75469C3.20357 3.43785 3.44439 3.22559 3.75288 3.22603H5.15562L7.94043 0.465827C8.48843 -0.0777768 9.4482 -0.146331 10.0164 0.411774L12.8812 3.22471L14.2813 3.22647C14.6052 3.22647 14.85 3.45806 14.842 3.79073L14.8412 4.96055L17.8606 7.60386L18 7.83018ZM11.3778 3.22208L9.37569 1.22872C9.15684 1.0503 8.87822 1.04986 8.65894 1.22872L6.65327 3.22383L11.3778 3.22208ZM10.0573 10.2801L12.0432 12.0155L13.7896 10.4867L13.7887 4.27852H4.24595L4.24507 10.4876L5.99365 12.0151L7.98613 10.2709C8.59478 9.76993 9.43985 9.76158 10.0573 10.2801ZM3.1895 9.55811L3.18731 6.36768L1.36182 7.96026L3.1895 9.55811ZM16.6719 7.95938L14.8429 6.36241V9.56558L16.6719 7.95938ZM5.19341 12.7165L1.08892 9.12437L1.09024 16.3059L5.19341 12.7165ZM16.9439 16.3055L16.9457 9.12525L12.8408 12.7165L16.9439 16.3055ZM16.0751 16.9458L9.3603 11.0681C9.14673 10.9059 8.88877 10.9059 8.6752 11.0681L1.95991 16.9458H16.0751Z" fill="#727272" fill-opacity="0.5"/>
<path d="M12.226 6.38261L5.82804 6.38393C5.52306 6.38393 5.30992 6.14135 5.30201 5.87592C5.29322 5.59072 5.51163 5.33188 5.82804 5.33188H12.2071C12.5108 5.33188 12.7244 5.57006 12.7332 5.8434C12.7411 6.09565 12.5495 6.38261 12.2265 6.38261H12.226Z" fill="#727272" fill-opacity="0.5"/>
<path d="M12.226 8.48759L5.82804 8.48891C5.52306 8.48891 5.30992 8.24633 5.30201 7.9809C5.29322 7.6957 5.51163 7.43686 5.82804 7.43686H12.2071C12.5108 7.43686 12.7244 7.67504 12.7332 7.94838C12.7411 8.20063 12.5495 8.48759 12.2265 8.48759H12.226Z" fill="#727272" fill-opacity="0.5"/>
</g>
<defs>
<clipPath id="clip0_56_480">
<rect width="18" height="18" fill="white"/>
</clipPath>
</defs>
</svg>
