<svg width="23" height="23" viewBox="0 0 23 23" fill="none" xmlns="http://www.w3.org/2000/svg">
<path d="M5.01212 4.08736C4.77254 4.08736 4.60483 4.22632 4.60483 4.45153V20.2592C4.60483 20.4701 4.78691 20.609 4.98337 20.609H13.4455C13.6611 20.609 13.7952 20.7767 13.8048 20.9492C13.8144 21.1313 13.6755 21.3278 13.4455 21.3278H4.98337C4.37483 21.3278 3.89087 20.863 3.89087 20.2449V4.48028C3.89087 3.85736 4.28379 3.50278 4.8492 3.3734L14.1642 1.27465C14.859 1.11653 15.5538 1.60049 15.5682 2.31445L15.5825 3.36861H16.009C16.6463 3.36861 17.1446 3.81903 17.1446 4.47549V13.7857C17.1446 14.0109 16.9673 14.1499 16.79 14.1499C16.6032 14.1499 16.4307 14.0157 16.4307 13.7857V4.44674C16.4307 4.22632 16.2582 4.08257 16.0425 4.08257H5.01212V4.08736ZM14.859 3.3734V2.37674C14.8398 2.13236 14.6242 1.90715 14.3511 1.96945L8.19858 3.36861H14.859V3.3734Z" fill="#CE2029"/>
<path d="M10.1344 6.1861C12.535 5.97048 14.6002 7.75777 14.8015 10.0961C15.0027 12.4344 13.2442 14.5524 10.8819 14.7584C8.53878 14.9596 6.46399 13.2299 6.23399 10.8915C6.00399 8.55318 7.7242 6.40652 10.1344 6.19089V6.1861ZM10.1632 10.1153V6.96714C9.1617 7.40798 8.76399 9.15693 8.73045 10.1105H10.1632V10.1153ZM12.3098 10.1105C12.2667 9.28631 12.0942 8.52443 11.7204 7.81527C11.5096 7.46548 11.2892 7.13964 10.8819 6.96235V10.1057H12.3098V10.1105ZM8.0117 10.1057C8.04045 9.08027 8.30399 8.18902 8.78316 7.32652C7.77211 7.9111 7.08211 8.8886 6.94795 10.1009H8.0069L8.0117 10.1057ZM14.0875 10.0913C13.939 8.85027 13.249 7.90152 12.2523 7.32652C12.7411 8.19381 12.995 9.10902 13.0286 10.1057C13.3927 10.1153 13.7425 10.1153 14.0875 10.0913ZM8.01649 10.834H6.94795C7.08211 11.9888 7.71941 13.0142 8.75441 13.5844C8.2992 12.698 8.03086 11.8259 8.01649 10.834ZM10.1584 13.963V10.8292H8.72565C8.74961 11.7636 9.17607 13.5844 10.1584 13.963ZM12.3098 10.8292H10.8771V13.9726C11.8786 13.5269 12.2763 11.7684 12.305 10.8292H12.3098ZM14.0875 10.834H13.019C13.019 11.8307 12.7171 12.7028 12.2954 13.5749C13.34 12.9855 13.9582 11.9696 14.0875 10.834Z" fill="#CE2029"/>
<path d="M16.3682 14.8876C18.1747 14.7247 19.7128 16.0759 19.8661 17.8153C20.0195 19.5547 18.7066 21.1551 16.9432 21.3132C15.1799 21.4713 13.6178 20.1776 13.4453 18.4286C13.2728 16.6797 14.5474 15.0505 16.3682 14.8876ZM16.2772 15.6207C14.8684 15.8316 13.9628 17.1397 14.1688 18.4909C14.3749 19.8422 15.6638 20.7957 17.0343 20.5801C18.4047 20.3645 19.3247 19.1091 19.133 17.7578C18.9413 16.4066 17.6907 15.4051 16.2724 15.6207H16.2772Z" fill="#CE2029"/>
<path d="M12.348 18.8169H6.2051C5.98468 18.8169 5.85052 18.6156 5.8601 18.4384C5.86968 18.2467 6.01343 18.0981 6.23864 18.0981H12.3289C12.5541 18.0981 12.7074 18.2419 12.7122 18.4384C12.7218 18.6156 12.602 18.8169 12.348 18.8169Z" fill="#CE2029"/>
<path d="M12.5157 17.3795H7.63783C7.41741 17.3795 7.28803 17.1782 7.29762 17.0057C7.3072 16.8141 7.45574 16.6655 7.67616 16.6655H12.5062C12.7074 16.6655 12.8368 16.8476 12.8416 17.0057C12.8512 17.1495 12.7457 17.3843 12.5205 17.3843L12.5157 17.3795Z" fill="#CE2029"/>
<path d="M15.9659 19.1762L15.1418 18.3472C14.998 18.2035 15.022 17.9591 15.1705 17.8297C15.3095 17.7147 15.5203 17.7147 15.6689 17.8632L16.2391 18.4287L17.6574 17.0103C17.7964 16.8714 18.0216 16.881 18.1557 17.0103C18.2851 17.1301 18.3139 17.3649 18.1557 17.5182L16.5026 19.1762C16.3445 19.3343 16.1193 19.3295 15.9659 19.1762Z" fill="#CE2029"/>
</svg>
