<?xml version="1.0" encoding="UTF-8"?>
<svg id="Ebene_1" xmlns="http://www.w3.org/2000/svg" version="1.1" viewBox="0 0 320 320">
  <!-- Generator: Adobe Illustrator 30.1.0, SVG Export Plug-In . SVG Version: 2.1.1 Build 136)  -->
  <defs>
    <style>
      .st0 {
        fill: #ce2029;
      }
    </style>
  </defs>
  <path class="st0" d="M139.86,277l31.22.23c1.69.01,3.72,3.01,3.58,4.37s-2.29,3.59-4.18,3.59l-92.95-.02c-4.73,0-8.34-3.39-9.92-7.39l-7.29-18.41-35.93.02c-2.44,0-4.65-1.7-4.73-4.1-.06-1.92,2.42-3.86,4.69-3.86l32.7-.05-5.35-14.03c-1.27-3.34-1.19-7.19.62-10.02s5.46-4.91,9.12-4.91h50.17c3.36.01,7.78,2.47,8.99,5.44l7.96,19.53,7.78-12.94-14.01-25.09c-3.85-6.89.14-15.74,6.47-19.12l28.33-15.14c.36-4.85.43-19.34,8.13-15.82,19.1,8.74,18.76-.79,31.5,12.69,3.67,3.89,7.45,7.32,7.5,13.36l23.3,20.67c1.42,1.26,2.68,2.89,4.37,4.73l3.51-11.81c1.69-5.69-2.37-12.15-7.94-13.54l-14.8-3.69c-1.52-.38-2.88-3.47-2.49-5.08.34-1.38,3.25-2.86,4.7-2.51l14.09,3.36c10.12,2.69,17.19,13.44,14.01,23.93l-15.3,50.44,40.86.12c1.85,0,3.92,2.88,3.68,4.55-.26,1.83-2.39,3.46-4.8,3.46h-133.78s6.2,17.05,6.2,17.05ZM201.7,216.81l-5.13-4.16c-2.33,6.07-6.99,6.42-11.74,7.84-7.44,2.22-12.98,1.14-18.49-4.29-3.3-3.26-6.88-5.49-7.65-11.09l-5.87,3.27,8.2,13.17c.8,1.28-.38,4.48-1.58,5.11s-4.38-.05-5.17-1.26l-10.47-16.13c-1.11-1.71-.92-4.78,1-5.84l16.21-8.91c1.46-.8,4.14-2.37,5.49-1.52,1.05.65,1.99,3.22,1.77,4.45l-1.53,8.36,9.7,8.11,11.99-2.43,7.31-23.06c1.68-5.31-1.39-7.28-4.36-10.28-10.84-10.96-5.37-3.31-25.49-9.67-2.06,5.08-.6,11.64,4.31,14.71,9.44,5.89,21.09-3.11,20.36,5.28-.59,6.81-23.94,8.23-31.23-5.45l-26.27,13.86c-3.09,1.63-5.67,5.86-3.58,9.51l13.75,24.02c1.29,2.25,1.59,5.03.34,7.21l-8.14,14.26,49.9.02,36.76-24.36c5.89-3.9,3.9-12.59-.47-16.39l-19.32-16.84-3.29,9.96,12.9,10.54c1.53,1.25.35,5.38-1.21,6.23l-16.67,9.1c-1.56.85-4.53.08-5.25-1.24-.96-1.78.02-4.94,1.59-5.81l11.3-6.26ZM131.52,277.09l-18.29-46.69-53.23-.02c-.51.59-1.41,2.89-1.06,3.8l16.83,42.77,55.75.14ZM219.47,251.83l4.77-15.99-23.54,15.6,18.77.39Z"/>
  <path class="st0" d="M185.89,82.31c10-5.95,5.13-14.43,11.15-14.45,2.47,0,4.39,2.44,3.95,5.29-.94,6.09-4.59,12.03-10.27,15.42l-51.7,30.89c-1.04.62-3.74.79-4.55.18-4.16-3.07-4.23-27.58,14.21-38.58l30.16-18-47.05,4.42c-6.84.64-12.86,5.11-15.03,11.92l22.94-3.72c1.48-.24,4.08,1.48,4.39,2.78s-1.12,4.59-2.61,4.85l-28.88,5.12c-1.06.19-3.48-.49-3.91-1.3-4.19-8,6.23-25.76,20.95-27.27l57.94-5.93-21.41-19.4c-5.59-5.07-14.36-6.31-20.8-1.78l17.26,15.36c1.1.98.92,4.53-.25,5.49s-4.49.88-5.84-.33l-21.44-19.26c2.18-7.11,9.11-10.91,15.85-11.77,9.45-1.21,17.66,3.54,24.45,9.65l9.98,8.98c1.73-5.97,4.09-10.13,8.36-11.65,5.13-1.82,11.38-.25,13.88,4.76l3.97,7.95,28.66-17.45c14.02-8.54,33.56.06,35.67,9.05.23,1-1.24,3.37-2.23,3.85l-28.56,13.62c16.1-.55,28.56,10.33,28.89,26.01.02.9-.9,3.09-1.64,3.51s-2.73.74-3.64.53l-21.34-4.86c-2.4-.55-3.95-3.32-3.26-5.57.5-1.62,3.41-2.6,5.49-2.14l15.53,3.43c-1.96-7.25-8.26-12.41-15.62-12.54l-30.77-.56c-1.43-.03-3.53-3.01-3.34-4.38.77-5.59,8.8-2.43,11.92-3.9l38.12-18.04c-6.65-4.22-14.99-5.06-21.65-.97l-35.88,22.01c-1.11.68-4.56-.64-4.95-1.85-1.86-5.75,4.31-1.24-1.58-12.89-.39-.78-1.85-2.02-2.64-2.32-.95-.36-3.62.75-4,1.76l-3.12,8.39,7.97,7.47c1.69,1.58,1.59,5.24-.64,6.55l-44.76,26.2c-8.14,4.77-13.66,12.66-13.94,22.59l45.61-27.14Z"/>
  <path class="st0" d="M222.07,162.54c.47,1.35-.93,4.39-2.31,4.82-1.86.57-4.72-.85-5.56-3.13-8.17-22.27-15.46-43.95-19.92-67.24-.41-2.16,1.09-5.1,2.7-5.4,1.85-.35,4.53,1.32,4.89,3.04l2.29,10.82c5.08.57,9.11.72,14.06-.02l-7.02-17.02-6.2-4.13c-1.15-.77-1.86-4.04-1.22-5.32.86-1.72,3.94-2.48,5.75-1.23l36.87,25.61c.14-10.48-5.99-18.31-14.13-22.96l-24.92-14.26c-1.15-.66-1.84-3.86-1.23-5.01.78-1.48,3.99-2.52,5.57-1.62l25.05,14.27c23.49,13.39,20.45,46.78,11.12,40.29l-24.39-16.97,30.97,81.28c7.07,18.55,12.26,36.5,17.73,55.68.42,1.46-1.02,4.56-2.23,5.11-1.56.71-4.65-.36-5.26-2.57-7.59-27.28-16.66-53.52-26.71-80.42l-18.08.14,2.16,6.26ZM224.91,121.96l-3.5-8.48-15.23.81,5.35,17.87c5.19-3.42,8.84-6.29,13.37-10.2ZM216.69,147.28c6.63.87,11.64,1.29,18.17.88l-6.76-18.06-13.93,10.06,2.51,7.12Z"/>
  <path class="st0" d="M186.79,143.55H20.62c-2.72,0-4.6-1.92-4.6-4.07,0-1.65,2.38-3.91,4.27-3.9l19.94.06c-6.94-11.52-7.52-26.27,0-38.76,6.58-10.92,19.08-18.4,33.04-17.67,12.99.68,24.04,8.28,29.77,18.38,6.97,12.28,6.5,25.57-.09,37.98l84.54.08c1.62,0,3.59,2.59,3.66,3.9.07,1.47-1.5,4.01-4.37,4.01ZM92.95,135.29c8.43-8.95,9.15-21.98,4.14-32.13-4.58-9.27-14.14-15.94-25.56-15.99s-21.52,6.97-26.02,16.55c-4.87,10.38-3.65,23.36,4.58,31.66,13.93.39,28.9.47,42.86-.09Z"/>
  <path class="st0" d="M135.68,161.25h-64.29c-2.34,0-4.39-1.93-4.38-3.8s2.22-4.13,4.43-4.13l65.18.04c1.48,0,3.61,2.88,3.55,4.16-.09,1.73-2.21,3.74-4.49,3.74Z"/>
  <path class="st0" d="M46.43,161.27h-17.11c-2.07,0-4.31-1.9-4.33-3.81s2.23-4.19,4.31-4.18l17.55.09c1.41,0,3.6,2.61,3.59,3.99,0,1.51-2.28,3.91-4.01,3.91Z"/>
  <path class="st0" d="M76.49,178.29l-12.12-.16c-1.48-.02-3.63-2.46-3.73-3.77-.12-1.64,2.09-4.2,3.73-4.2l11.1.02c1.45,0,3.88,2.2,3.91,3.48s-1.59,3.49-2.89,4.63Z"/>
  <path class="st0" d="M91.07,194.96l-8.33-.28c-1.42-.05-3.22-2.77-3.07-4.07s2.26-3.77,3.58-3.78l6.44-.03c1.19,0,3.57,1.85,3.83,2.99.31,1.36-1.13,3.77-2.44,5.17Z"/>
  <path class="st0" d="M93.98,178.3c-2.82.1-5.27-1.75-5.46-3.77-.22-2.41,2.21-4.52,5-4.5,2.42.01,5.04,1.59,5.31,3.44.35,2.41-1.61,4.72-4.85,4.83Z"/>
  <path class="st0" d="M71.85,187.37c1.23.4,2.36,3.91,1.79,5-.66,1.27-3.08,2.55-5.22,2.62-1.25.04-3.76-1.28-4.49-2.2-.85-1.07-.12-4.31,1.19-5.13,1.48-.92,4.4-1.04,6.73-.29Z"/>
  <path class="st0" d="M46.08,178.3c-3.25-.03-5.36-2.31-5.03-4.88.24-1.87,2.94-3.47,5.58-3.39,1.96.06,4.57,2.03,4.73,3.55.28,2.53-2.02,4.74-5.28,4.72Z"/>
  <path class="st0" d="M109.91,178.29c-2.83,0-5.08-1.82-5.23-3.91-.16-2.25,2.11-4.32,4.8-4.37,2.5-.04,5.14,1.55,5.38,3.44.32,2.48-1.64,4.83-4.96,4.84Z"/>
</svg>