<svg width="77" height="12" viewBox="0 0 77 12" fill="none" xmlns="http://www.w3.org/2000/svg">
<path d="M0.703087 8.25V7.54688L5.01559 1.10937H0.656212V0.25H6.17184V0.953125L1.85934 7.39062H6.21871V8.25H0.703087ZM11.83 5.79687V2.25H12.7518V8.25H11.83V7.23437H11.7675C11.6268 7.53906 11.4081 7.79818 11.1112 8.01172C10.8143 8.22266 10.4393 8.32813 9.98621 8.32813C9.61121 8.32813 9.27788 8.24609 8.98621 8.08203C8.69455 7.91536 8.46538 7.66536 8.29871 7.33203C8.13205 6.99609 8.04871 6.57292 8.04871 6.0625V2.25H8.97059V6C8.97059 6.4375 9.09298 6.78646 9.33778 7.04688C9.58517 7.30729 9.90028 7.4375 10.2831 7.4375C10.5123 7.4375 10.7453 7.37891 10.9823 7.26172C11.2219 7.14453 11.4224 6.96484 11.5839 6.72266C11.7479 6.48047 11.83 6.17187 11.83 5.79687ZM14.7703 8.25V2.25H15.6609V3.1875H15.7391C15.8641 2.86719 16.0659 2.61849 16.3445 2.44141C16.6232 2.26172 16.9578 2.17188 17.3484 2.17188C17.7443 2.17188 18.0737 2.26172 18.3367 2.44141C18.6023 2.61849 18.8094 2.86719 18.9578 3.1875H19.0203C19.174 2.8776 19.4044 2.63151 19.7117 2.44922C20.019 2.26432 20.3875 2.17188 20.8172 2.17188C21.3536 2.17188 21.7924 2.33984 22.1336 2.67578C22.4747 3.00911 22.6453 3.52865 22.6453 4.23437V8.25H21.7234V4.23437C21.7234 3.79167 21.6023 3.47526 21.3602 3.28516C21.118 3.09505 20.8328 3 20.5047 3C20.0828 3 19.756 3.1276 19.5242 3.38281C19.2924 3.63542 19.1766 3.95573 19.1766 4.34375V8.25H18.2391V4.14062C18.2391 3.79948 18.1284 3.52474 17.907 3.31641C17.6857 3.10547 17.4005 3 17.0516 3C16.812 3 16.588 3.0638 16.3797 3.19141C16.174 3.31901 16.0073 3.49609 15.8797 3.72266C15.7547 3.94661 15.6922 4.20573 15.6922 4.5V8.25H14.7703ZM28.5377 8.25H27.5221L30.4596 0.25H31.4596L34.3971 8.25H33.3815L30.9909 1.51562H30.9284L28.5377 8.25ZM28.9127 5.125H33.0065V5.98437H28.9127V5.125ZM35.8482 8.25V2.25H36.7388V3.15625H36.8013C36.9107 2.85938 37.1086 2.61849 37.3951 2.43359C37.6815 2.2487 38.0045 2.15625 38.3638 2.15625C38.4315 2.15625 38.5162 2.15755 38.6177 2.16016C38.7193 2.16276 38.7961 2.16667 38.8482 2.17188V3.10937C38.817 3.10156 38.7453 3.08984 38.6334 3.07422C38.524 3.05599 38.4081 3.04687 38.2857 3.04687C37.994 3.04687 37.7336 3.10807 37.5045 3.23047C37.2779 3.35026 37.0982 3.51693 36.9654 3.73047C36.8352 3.94141 36.7701 4.18229 36.7701 4.45312V8.25H35.8482ZM43.2563 2.25V3.03125H40.147V2.25H43.2563ZM41.0532 0.8125H41.9751V6.53125C41.9751 6.79167 42.0128 6.98698 42.0884 7.11719C42.1665 7.24479 42.2654 7.33073 42.3852 7.375C42.5076 7.41667 42.6365 7.4375 42.772 7.4375C42.8735 7.4375 42.9569 7.43229 43.022 7.42187C43.0871 7.40885 43.1391 7.39844 43.1782 7.39062L43.3657 8.21875C43.3032 8.24219 43.216 8.26563 43.104 8.28906C42.992 8.3151 42.8501 8.32813 42.6782 8.32813C42.4178 8.32813 42.1626 8.27214 41.9126 8.16016C41.6652 8.04818 41.4595 7.8776 41.2954 7.64844C41.1339 7.41927 41.0532 7.13021 41.0532 6.78125V0.8125ZM44.9731 8.25V2.25H45.8949V8.25H44.9731ZM45.4418 1.25C45.2621 1.25 45.1072 1.1888 44.977 1.06641C44.8494 0.94401 44.7856 0.796875 44.7856 0.625C44.7856 0.453125 44.8494 0.30599 44.977 0.183593C45.1072 0.0611978 45.2621 0 45.4418 0C45.6215 0 45.7751 0.0611978 45.9027 0.183593C46.0329 0.30599 46.0981 0.453125 46.0981 0.625C46.0981 0.796875 46.0329 0.94401 45.9027 1.06641C45.7751 1.1888 45.6215 1.25 45.4418 1.25ZM48.7728 6.0625L48.7571 4.92188H48.9446L51.5696 2.25H52.7103L49.9134 5.07812H49.8353L48.7728 6.0625ZM47.9134 8.25V0.25H48.8353V8.25H47.9134ZM51.7259 8.25L49.3821 5.28125L50.0384 4.64062L52.8978 8.25H51.7259ZM56.4954 8.375C55.9172 8.375 55.4185 8.2474 54.9993 7.99219C54.5826 7.73438 54.261 7.375 54.0344 6.91406C53.8105 6.45052 53.6985 5.91146 53.6985 5.29688C53.6985 4.68229 53.8105 4.14062 54.0344 3.67187C54.261 3.20052 54.5761 2.83333 54.9797 2.57031C55.386 2.30469 55.8599 2.17188 56.4016 2.17188C56.7141 2.17188 57.0227 2.22396 57.3274 2.32812C57.6321 2.43229 57.9094 2.60156 58.1594 2.83594C58.4094 3.06771 58.6086 3.375 58.7571 3.75781C58.9055 4.14062 58.9797 4.61198 58.9797 5.17187V5.5625H54.3547V4.76562H58.0422C58.0422 4.42708 57.9745 4.125 57.8391 3.85937C57.7063 3.59375 57.5162 3.38411 57.2688 3.23047C57.024 3.07682 56.7349 3 56.4016 3C56.0344 3 55.7167 3.09115 55.4485 3.27344C55.1829 3.45312 54.9784 3.6875 54.8352 3.97656C54.692 4.26562 54.6204 4.57552 54.6204 4.90625V5.4375C54.6204 5.89063 54.6985 6.27474 54.8547 6.58984C55.0136 6.90234 55.2336 7.14062 55.5149 7.30469C55.7961 7.46615 56.123 7.54688 56.4954 7.54688C56.7375 7.54688 56.9563 7.51302 57.1516 7.44531C57.3495 7.375 57.5201 7.27083 57.6633 7.13281C57.8066 6.99219 57.9172 6.81771 57.9954 6.60937L58.886 6.85938C58.7922 7.16146 58.6347 7.42708 58.4133 7.65625C58.192 7.88281 57.9185 8.0599 57.593 8.1875C57.2675 8.3125 56.9016 8.375 56.4954 8.375ZM61.6339 0.25V8.25H60.7121V0.25H61.6339ZM72.1465 8.25L71.5449 7.65625L74.0215 5.17969H67.6074V4.32031H74.0215L71.5449 1.85156L72.1465 1.25L75.6465 4.75L72.1465 8.25Z" fill="#727272" fill-opacity="0.6"/>
<path d="M-3.8147e-05 10.4375H76.7324V11.1875H-3.8147e-05V10.4375Z" fill="#727272" fill-opacity="0.6"/>
</svg>
