<svg width="33" height="33" viewBox="0 0 33 33" fill="none" xmlns="http://www.w3.org/2000/svg">
<path d="M16.4457 0.000349898C7.419 -0.0555304 0.0561408 7.21673 0.000260453 16.2435C-0.0556199 25.2702 7.21664 32.6331 16.2434 32.6889C25.2701 32.7448 32.633 25.4726 32.6888 16.4458C32.7447 7.41909 25.4725 0.0562302 16.4457 0.000349898ZM13.5768 25.382C13.1821 25.7289 12.6782 25.8007 12.2169 25.5921C11.8054 25.4057 11.4939 24.9728 11.4977 24.4646L11.5204 21.2855L16.3249 22.9672L13.5768 25.382ZM25.1175 7.44187L22.7182 22.6452C22.5705 23.4119 21.8153 23.8583 21.0731 23.598L12.7592 20.6881L21.2493 10.2819L10.7153 19.9742L5.00465 17.9758C4.52238 17.8072 4.22737 17.3799 4.1839 16.9292C4.13411 16.4176 4.39087 15.9438 4.85802 15.7026L23.3353 6.14708C23.7665 5.92392 24.2597 5.98724 24.6257 6.25672C24.9766 6.51455 25.1942 6.95417 25.1169 7.44065L25.1175 7.44187Z" fill="url(#paint0_linear_2_4906)"/>
<defs>
<linearGradient id="paint0_linear_2_4906" x1="24.5678" y1="-0.416977" x2="0.330943" y2="28.1478" gradientUnits="userSpaceOnUse">
<stop stop-color="#FFC2C6"/>
<stop offset="1" stop-color="#B70009"/>
</linearGradient>
</defs>
</svg>
