<svg width="38" height="38" viewBox="0 0 38 38" fill="none" xmlns="http://www.w3.org/2000/svg">
<g filter="url(#filter0_d_2_4899)">
<path d="M30.5255 12.258C32.116 19.6703 26.5949 26.5696 19.1731 26.7943C11.6891 27.0218 5.81821 20.4253 6.93732 13.0041C8.03867 5.70241 15.4824 1.04143 22.6254 3.43068C26.5819 4.75409 29.64 8.13129 30.5255 12.258ZM23.3797 17.8359L20.3441 14.803L23.4501 11.6923C23.8894 11.2523 23.8484 10.5561 23.4282 10.1495C23.008 9.74302 22.3453 9.71774 21.9155 10.1468L18.8007 13.2575L15.6566 10.1236C15.2255 9.69383 14.5293 9.77718 14.1473 10.1735C13.747 10.5895 13.721 11.2612 14.1508 11.6916L17.256 14.8016L14.1726 17.8905C13.7463 18.3175 13.7791 18.9946 14.1754 19.4052C14.5716 19.8158 15.2569 19.8801 15.6853 19.4531L18.8001 16.3471L22.0003 19.5221C22.445 19.9634 23.1904 19.7728 23.5197 19.354C23.9023 18.8668 23.8101 18.2656 23.3797 17.8359Z" fill="url(#paint0_radial_2_4899)"/>
<path d="M7.03638 13.0188C8.12865 5.77817 15.5104 1.15628 22.594 3.52563C26.517 4.83797 29.5499 8.18698 30.428 12.2786C32.0053 19.6294 26.53 26.4716 19.1702 26.6946C11.7484 26.9202 5.92658 20.3782 7.03638 13.0188ZM23.4973 10.0774C23.0407 9.63599 22.3159 9.60621 21.845 10.0764L18.8 13.1155L15.7268 10.053C15.2496 9.57734 14.4894 9.6745 14.0754 10.1038C13.6399 10.5564 13.6096 11.2904 14.0803 11.762L17.1135 14.801L14.1018 17.8196C13.6337 18.2884 13.6729 19.0284 14.1038 19.4749C14.5333 19.9197 15.2828 19.9955 15.7561 19.5237L18.8 16.4875L21.9299 19.593C22.1794 19.8406 22.5111 19.9082 22.8186 19.8596C23.1243 19.8112 23.4164 19.6468 23.5979 19.4163L23.5989 19.4153C24.0175 18.8817 23.9102 18.2239 23.4504 17.7649L20.4846 14.802L23.5208 11.7629C24.0021 11.2808 23.955 10.5202 23.4973 10.0774Z" stroke="black" stroke-width="0.2"/>
</g>
<defs>
<filter id="filter0_d_2_4899" x="4.86374e-05" y="4.86374e-05" width="37.6" height="37.6" filterUnits="userSpaceOnUse" color-interpolation-filters="sRGB">
<feFlood flood-opacity="0" result="BackgroundImageFix"/>
<feColorMatrix in="SourceAlpha" type="matrix" values="0 0 0 0 0 0 0 0 0 0 0 0 0 0 0 0 0 0 127 0" result="hardAlpha"/>
<feOffset dy="4"/>
<feGaussianBlur stdDeviation="3.4"/>
<feComposite in2="hardAlpha" operator="out"/>
<feColorMatrix type="matrix" values="0 0 0 0 0 0 0 0 0 0 0 0 0 0 0 0 0 0 0.25 0"/>
<feBlend mode="normal" in2="BackgroundImageFix" result="effect1_dropShadow_2_4899"/>
<feBlend mode="normal" in="SourceGraphic" in2="effect1_dropShadow_2_4899" result="shape"/>
</filter>
<radialGradient id="paint0_radial_2_4899" cx="0" cy="0" r="1" gradientUnits="userSpaceOnUse" gradientTransform="translate(18.8 14.8) rotate(90.9878) scale(16.9781)">
<stop stop-color="white"/>
<stop offset="1" stop-color="#D5D5D5"/>
</radialGradient>
</defs>
</svg>
