<svg width="76" height="76" viewBox="0 0 76 76" fill="none" xmlns="http://www.w3.org/2000/svg">
<g clip-path="url(#clip0_12_8009)">
<path d="M33.6299 76C31.6408 75.4221 30.3148 73.7596 30.5127 71.6221L32.4622 47.7949C33.9267 46.9834 36.5729 47.0567 36.7332 44.7965C36.8322 43.413 35.237 40.945 35.2567 39.4052H40.8855V36.4424H33.4775V34.96H40.8855V31.8488H33.7011C33.2954 31.4965 33.5349 30.8552 33.4795 30.3664H40.8875V26.2932C40.8875 26.2339 40.3392 25.5867 40.2185 25.3333C39.0746 22.9247 38.9123 20.4745 37.9247 18.0718H44.8874C43.8721 20.6506 43.7078 23.1978 42.3976 25.7312C42.2927 25.935 41.9246 26.2576 41.9246 26.2952V30.3683H49.3326C49.2772 30.8572 49.5166 31.4965 49.1109 31.8507H41.9265V34.962H49.3346V36.4444H41.9265V39.4072H50.148C50.2074 39.4072 50.7972 39.9792 50.6527 40.1949C50.5577 40.569 49.9679 40.5571 49.8432 40.7332C49.6849 40.9608 50.0352 43.1419 50.0708 43.6288C50.7734 53.2158 51.5809 62.7891 52.2994 72.3742C52.1667 74.2287 50.8941 75.4716 49.1841 75.998H47.8502C46.1857 75.4716 45.0635 74.4088 44.7548 72.6493L42.5163 44.1473H40.2937L38.0553 72.6493C37.7307 74.4187 36.6422 75.4656 34.9599 75.998H33.6259L33.6299 76Z" fill="#CE2029"/>
<path d="M36.2227 17.1852C36.1099 17.1536 35.8466 16.7162 35.4508 16.6251C34.0218 16.2966 34.1604 17.0487 33.4796 17.5533C32.7176 18.1174 31.5499 18.5251 30.5999 19.2653C29.8161 19.8749 28.7197 21.2207 28.0527 21.6067C27.6371 21.8481 25.6797 22.2103 25.6302 22.4478L26.7425 24.2944C28.7078 22.2083 30.5227 20.1856 33.058 18.7606C33.3687 18.5865 34.0337 18.4499 34.2198 18.2916C34.5147 18.0382 34.4533 17.1813 35.2628 17.5533L35.5597 18.0105L33.6418 27.3443L33.1193 27.562C32.013 27.1899 32.9966 25.9509 32.8165 25.187C32.106 25.9529 31.2926 26.6338 30.592 27.4056C29.8419 28.2329 28.1516 30.7821 27.267 31.0433C26.3823 31.3046 25.2403 31.1364 24.5951 30.4437C23.4016 29.1612 22.1706 25.7273 21.0148 24.0984C20.9138 23.9579 20.8248 23.7719 20.6407 23.7264L2.81831 28.4467L1.04102 21.3375L34.1545 12.4788C35.0649 14.0067 35.9951 15.3862 37.6279 16.2253L39.8525 17.1852C38.9104 17.013 37.0341 17.4188 36.2227 17.1852Z" fill="#CE2029"/>
<path d="M42.9639 17.1831L45.3784 16.1183C47.2963 14.9942 48.4422 13.2842 48.9924 11.1407C49.1369 10.5806 49.0894 9.87009 49.2141 9.43665C49.3111 9.10217 50.077 8.70832 50.1067 8.17988L71.2185 2.54321L71.4797 2.66196L73.3124 9.28821L73.1877 9.55342L45.046 17.1158L42.9658 17.1811L42.9639 17.1831Z" fill="#CE2029"/>
<path d="M61.7776 15.1108L65.1798 15.1168L65.4826 16.2964H62.9631V30.6671H73.7773V16.2964H71.1114L71.4082 15.1108H74.9628V31.7042H61.7776V25.0383C60.5565 25.8201 59.6579 27.259 58.0132 26.9502L49.6315 23.7044C49.5899 24.4505 50.6844 27.1026 49.9264 27.4866C49.5068 27.6904 49.1189 27.4767 49.0476 27.0274L47.2466 18.1469C47.4999 17.0108 48.2184 17.4878 48.6973 18.1904L58.0053 21.7707L61.7756 18.7406V15.1108H61.7776Z" fill="#CE2029"/>
<path d="M40.7391 0.148438C40.8361 0.843125 40.3908 2.40667 41.319 2.60063C42.5144 2.47 41.9543 1.0074 42.0731 0.148438L43.7831 0.587812C44.0641 1.01333 43.5218 2.04844 44.2561 2.49375C44.9904 2.93906 45.5346 2.05042 45.3347 1.33396C46.8152 2.28198 47.9235 4.01375 48.258 5.74156C48.3193 6.05229 48.2283 6.6401 48.3589 6.82615C48.5113 7.0399 49.0041 6.82021 49.305 7.3724C49.6909 8.08094 48.9903 8.82312 48.2283 8.7499C43.8326 8.43521 38.9163 9.14375 34.5839 8.7499C34.0119 8.69844 33.531 8.58958 33.4677 7.93052C33.3529 6.72719 34.2455 7.12104 34.4533 6.82812C34.5859 6.64208 34.4949 6.05625 34.5542 5.74354C34.8847 4.04146 36.0208 2.27208 37.4775 1.33594C37.2776 2.05042 37.8337 2.93312 38.5561 2.49573C39.2785 2.05833 38.7461 1.01531 39.0291 0.589792L40.7391 0.150417V0.148438Z" fill="#CE2029"/>
<path d="M48.2955 9.48218C47.7117 18.5191 35.1182 18.4973 34.5186 9.48218H48.2955Z" fill="#CE2029"/>
<path d="M34.509 39.8584C34.6733 41.2478 35.8904 43.2705 35.9657 44.5569C36.0151 45.408 35.4986 45.8276 34.8118 46.1462C34.1963 46.4312 31.4532 47.308 30.8911 47.2684C29.1098 47.1437 28.9218 43.0627 28.1479 41.7802L34.509 39.8584ZM34.1844 40.9252C33.84 40.5729 33.177 40.848 33.1711 41.4061C33.1592 42.5144 34.9701 41.7287 34.1844 40.9252Z" fill="#CE2029"/>
<path d="M66.5692 16.6884C65.9042 16.0571 65.7617 14.7172 65.924 13.8503C66.1081 12.8667 70.4484 12.4827 70.672 14.1393C71.0203 16.7142 68.4296 18.4558 66.5692 16.6884Z" fill="#CE2029"/>
<path d="M34.6277 38.9243L27.8867 41.1568C27.5957 41.23 27.091 41.0875 26.9881 40.7887C26.8951 40.3018 26.9089 39.9792 27.3681 39.7358C28.0826 39.3577 33.1156 37.7487 33.8954 37.6616C34.8494 37.5547 35.0334 38.1366 34.6297 38.9243H34.6277Z" fill="#CE2029"/>
<path d="M28.14 34.9719L29.3334 38.3701L27.9361 38.6789L26.6694 35.4924C26.713 35.2984 27.9816 34.8373 28.138 34.9739L28.14 34.9719Z" fill="#CE2029"/>
<path d="M30.5067 35.1223L31.3993 37.5369L30.1603 38.0614L29.0361 35.5577L30.5067 35.1223Z" fill="#CE2029"/>
<path d="M67.5551 27.1127L67.1276 27.6233L67.2602 28.1517L67.7748 27.9994L67.85 28.2962C67.2147 28.3576 67.2463 29.074 66.8109 29.4065C65.7936 30.1844 65.2751 29.1908 64.2954 29.4837L64.5923 28.5971H64.0816L64.0005 28.3022C64.6477 28.2309 64.521 27.5382 65.0415 27.1938C66.041 26.5367 66.5991 27.4551 67.5531 27.1147L67.5551 27.1127ZM65.5917 27.2849C64.6813 27.4729 64.6318 28.987 65.473 29.268C67.3057 29.8776 67.4304 26.9049 65.5917 27.2849Z" fill="#CE2029"/>
<path d="M21.185 15.1089L17.3335 15.9996C17.7313 14.3747 20.1597 13.6998 21.185 15.1089Z" fill="#CE2029"/>
<path d="M72.0735 22.9623C72.22 22.9583 72.5644 22.5902 72.5921 23.2572C70.8346 23.37 69.0929 23.4353 67.3275 23.4116C66.7238 23.4037 66.0964 23.2473 65.3998 23.2513C64.9644 23.2513 64.0144 23.6035 63.7769 23.2572L63.9273 22.9603C66.6407 22.9089 69.3621 23.0296 72.0755 22.9603L72.0735 22.9623Z" fill="#CE2029"/>
<path d="M71.9267 23.9994C72.0553 23.9954 72.5224 23.5937 72.5204 24.1478C70.183 24.7634 67.6616 24.2606 65.2529 24.2884C64.8413 24.2943 64.4058 24.4803 64.0753 24.4526C63.6023 24.413 63.7369 23.9994 63.9269 23.9994C66.5889 23.9994 69.2667 24.0647 71.9267 23.9994Z" fill="#CE2029"/>
<path d="M71.7783 22.0737C71.9426 22.0638 72.2988 21.7986 72.5917 21.9272L72.2216 22.3706C70.8322 22.4497 69.4627 22.5348 68.0674 22.5269C67.0204 22.519 65.9358 22.3429 64.8096 22.3646C64.493 22.3706 63.3767 22.7605 63.9269 22.0757C66.5117 21.9688 69.2074 22.2201 71.7783 22.0757V22.0737Z" fill="#CE2029"/>
<path d="M69.9261 25.0384C70.1655 25.2224 69.9241 25.3075 69.7064 25.3333C68.4001 25.4995 66.9652 25.1749 65.7045 25.1749C65.368 25.1749 63.7075 25.547 63.7075 25.1096C63.8856 24.8385 64.0994 24.8998 64.3646 24.88C66.2131 24.7415 68.0815 25.0364 69.9261 25.0364V25.0384Z" fill="#CE2029"/>
<path d="M67.0363 19.2593C67.1016 19.2593 67.727 18.9109 67.4084 19.4849C66.4762 19.8688 65.7024 19.6017 64.8117 19.5443C64.4693 19.5225 63.3709 19.9322 63.9231 19.2612C64.9602 19.2494 65.9973 19.2771 67.0343 19.2612L67.0363 19.2593Z" fill="#CE2029"/>
<path d="M72.7405 28.7415C72.796 29.068 72.604 29.0937 72.3625 29.1769C71.2859 29.547 70.1478 29.0284 69.0375 29.1848C68.9663 28.7474 69.1404 28.9413 69.4017 28.882C70.3853 28.6563 71.6856 29.1274 72.7405 28.7415Z" fill="#CE2029"/>
<path d="M67.5551 18.517C66.2647 18.9405 65.0277 18.6061 63.7036 18.6654C64.1628 18.0064 64.9564 18.3884 65.5482 18.3785C66.0944 18.3686 66.5972 18.2755 67.0821 18.2538C67.3215 18.2439 67.4858 18.2419 67.5551 18.517Z" fill="#CE2029"/>
<path d="M69.0372 28.2961C68.9758 27.9082 69.0966 28.0309 69.3578 27.9577C70.3019 27.6905 71.6635 28.2565 72.7402 27.8528C72.8689 28.1002 72.4869 28.2961 72.3701 28.2961H69.0372Z" fill="#CE2029"/>
</g>
<defs>
<clipPath id="clip0_12_8009">
<rect width="76" height="76" fill="white"/>
</clipPath>
</defs>
</svg>
