<svg width="11" height="22" viewBox="0 0 11 22" fill="none" xmlns="http://www.w3.org/2000/svg">
<circle cx="5.09756" cy="11.1786" r="5.09756" fill="#D42E2A"/>
<path d="M5.06257 9.19368C4.87054 9.19368 4.7224 9.14704 4.61815 9.05377C4.51939 8.95501 4.47001 8.81784 4.47001 8.64227C4.47001 8.4667 4.51939 8.33227 4.61815 8.239C4.7224 8.14573 4.87054 8.09909 5.06257 8.09909C5.24912 8.09909 5.39177 8.14573 5.49053 8.239C5.59478 8.33227 5.6469 8.4667 5.6469 8.64227C5.6469 8.81784 5.59478 8.95501 5.49053 9.05377C5.39177 9.14704 5.24912 9.19368 5.06257 9.19368ZM5.49876 9.885V14H4.61815V9.885H5.49876Z" fill="white"/>
</svg>
