<svg width="15" height="15" viewBox="0 0 15 15" fill="none" xmlns="http://www.w3.org/2000/svg">
<path d="M6.75226 11V6.31455H8.24392V11H6.75226ZM7.49962 5.76852C7.29016 5.76852 7.11018 5.69938 6.95969 5.56109C6.80921 5.42077 6.73396 5.25198 6.73396 5.05472C6.73396 4.85949 6.80921 4.69274 6.95969 4.55445C7.11018 4.41413 7.29016 4.34397 7.49962 4.34397C7.71112 4.34397 7.89109 4.41413 8.03954 4.55445C8.19003 4.69274 8.26528 4.85949 8.26528 5.05472C8.26528 5.25198 8.19003 5.42077 8.03954 5.56109C7.89109 5.69938 7.71112 5.76852 7.49962 5.76852Z" fill="#727272"/>
<circle cx="7.5" cy="7.5" r="6.8" stroke="#727272" stroke-width="1.4"/>
</svg>
