<svg width="16" height="17" viewBox="0 0 16 17" fill="none" xmlns="http://www.w3.org/2000/svg">
<path d="M12.48 8.18081C13.4954 8.52568 14.3638 9.33539 14.7983 10.3735C15.8792 12.9563 14.2613 15.8308 11.6504 16.1066H2.47834C1.62375 16.0145 0.948752 15.3013 0.840836 14.4L0.842086 2.6018C0.965002 1.72037 1.61584 1.04081 2.44709 0.927032H10.8083C11.6813 0.995652 12.3738 1.76109 12.4717 2.67219L12.48 8.18081ZM11.4775 7.98646V2.70096C11.4775 2.42383 11.03 1.96253 10.7458 1.98732L2.54167 1.98865C2.19084 2.02893 1.86209 2.39151 1.83875 2.76604L1.84 14.2999C1.8275 14.5704 2.24542 15.0454 2.47959 15.0454H8.70167C6.12709 12.4454 7.92958 7.84479 11.4775 7.9869V7.98646ZM11.0658 9.05693C8.91375 9.25925 7.75459 11.8571 8.98834 13.7629C10.1883 15.6174 12.8758 15.4288 13.8338 13.4225C14.835 11.3258 13.2688 8.84974 11.0658 9.05649V9.05693Z" fill="#727272"/>
<path d="M3.95375 4.44922L8.68375 4.44347C9.21292 4.52005 9.31917 5.23503 8.84375 5.46966L3.885 5.49888C3.33417 5.32667 3.36875 4.53865 3.95333 4.44922H3.95375Z" fill="#727272"/>
<path d="M3.85917 7.29805L7.43667 7.29274C7.99542 7.47248 7.92209 8.27422 7.34167 8.34727C6.30459 8.47831 5.04084 8.26006 3.98 8.34727C3.39334 8.27245 3.31459 7.51232 3.85875 7.29805H3.85917Z" fill="#727272"/>
<path d="M12.2179 10.8109C12.6383 10.7388 12.9396 11.1483 12.7721 11.5653L11.2388 13.2171C11.0763 13.3118 10.88 13.318 10.7179 13.2171C10.6313 13.163 9.95083 12.4366 9.89167 12.3383C9.58083 11.8212 10.1321 11.2585 10.6196 11.6313C10.6913 11.6862 10.9321 12.004 10.9896 11.9934L12.0229 10.9021C12.0767 10.8596 12.1517 10.8224 12.2179 10.8109Z" fill="#727272"/>
</svg>
