<svg width="18" height="18" viewBox="0 0 18 18" fill="none" xmlns="http://www.w3.org/2000/svg">
<g clip-path="url(#clip0_2_5587)">
<path d="M16.9102 6.10336e-07C17.4899 0.154337 17.871 0.534376 18 1.125V9.38672C17.8481 10.0382 17.389 10.4548 16.7161 10.511C14.8936 10.6636 12.8658 10.3985 11.0218 10.511C10.2811 10.4351 9.79488 9.93727 9.73687 9.19442L9.73863 1.28356C9.75234 0.687657 10.2663 0.0755865 10.8629 -0.000350952H16.9098L16.9102 6.10336e-07ZM10.993 1.13168L10.89 1.23961L10.8615 9.12481C10.858 9.22992 10.8953 9.3368 11.0018 9.37125L16.6131 9.38848C16.7013 9.3948 16.842 9.34559 16.8683 9.25699L16.8567 1.23152L16.7688 1.14363L10.9934 1.13203L10.993 1.13168Z" fill="#CE2029"/>
<path d="M7.13672 18H1.125C0.537891 17.8734 0.154336 17.4846 0 16.9102V8.61328C0.151875 7.96184 0.611016 7.54524 1.28391 7.48899C3.10641 7.33641 5.13422 7.60149 6.97816 7.48899C7.71891 7.56492 8.20512 8.06274 8.26312 8.80559L8.26137 16.7164C8.24766 17.3123 7.73367 17.9244 7.13707 18.0004L7.13672 18ZM1.29059 8.62067C1.20059 8.64844 1.12008 8.70152 1.12324 8.80488L1.14328 16.7688L1.23117 16.8567L7.03125 16.8578L7.1209 16.7365L7.13848 8.8759C7.14199 8.77078 7.10473 8.66391 6.9982 8.62945L1.29094 8.62137L1.29059 8.62067Z" fill="#CE2029"/>
<path d="M7.13671 0C7.78816 0.151875 8.20476 0.611367 8.26101 1.28391C8.35347 2.38711 8.19351 3.61195 8.26101 4.72816C8.18542 5.4682 7.68831 5.95512 6.94441 6.01312C5.11066 5.89781 3.09585 6.16324 1.28355 6.01137C0.611009 5.95512 0.151516 5.53816 -0.000358582 4.88707V1.08984C0.151868 0.521719 0.521712 0.151875 1.08984 0H7.13671ZM1.25542 1.13238L1.12324 1.3166L1.14257 4.78125L1.38691 4.88848L6.9982 4.87125C7.11843 4.82625 7.12792 4.73836 7.13847 4.6248C7.23269 3.59754 7.06359 2.42965 7.13847 1.38727L7.03124 1.14293L1.25542 1.13273V1.13238Z" fill="#CE2029"/>
<path d="M18 13.1133V16.875C17.8692 17.472 17.4737 17.871 16.875 18H10.8633C10.2118 17.8481 9.79523 17.3886 9.73898 16.7161C9.64652 15.6129 9.80648 14.388 9.73898 13.2718C9.81457 12.5318 10.3117 12.0449 11.0556 11.9869C12.8893 12.1022 14.9041 11.8368 16.7164 11.9886C17.3204 12.0393 17.9195 12.4794 18.0003 13.1129L18 13.1133ZM11.0289 13.1207C10.8886 13.1569 10.8731 13.2483 10.8615 13.3752C10.767 14.4134 10.9364 15.5936 10.8622 16.6472L10.9684 16.8574L16.7685 16.8564L16.8564 16.7685L16.8574 13.2184L16.6131 13.1112L11.0292 13.1203L11.0289 13.1207Z" fill="#CE2029"/>
</g>
<defs>
<clipPath id="clip0_2_5587">
<rect width="18" height="18" fill="white"/>
</clipPath>
</defs>
</svg>
