<svg width="14" height="11" viewBox="0 0 14 11" fill="none" xmlns="http://www.w3.org/2000/svg">
<path d="M1.96804 10.9549C1.32558 10.9549 0.835984 10.7884 0.499268 10.4556C0.166423 10.1266 1.01142e-06 9.64476 1.01142e-06 9.01003V1.93321C1.01142e-06 1.30235 0.160618 0.822433 0.481852 0.493459C0.803086 0.164484 1.24817 -3.24473e-06 1.8171 -3.24473e-06H3.44843C3.65742 -3.24473e-06 3.83739 0.0154779 3.98833 0.0464402C4.14315 0.0735323 4.28248 0.119976 4.40633 0.185771C4.53405 0.251566 4.66951 0.340582 4.81271 0.452821L5.1262 0.70826C5.29649 0.84372 5.45711 0.940477 5.60805 0.998532C5.75899 1.05272 5.94283 1.07981 6.15957 1.07981H11.4309C12.0695 1.07981 12.5552 1.24623 12.8881 1.57907C13.2248 1.91192 13.3931 2.39571 13.3931 3.03043V9.01003C13.3931 9.64476 13.2306 10.1266 12.9055 10.4556C12.5842 10.7884 12.1334 10.9549 11.5528 10.9549H1.96804ZM2.07254 9.66605H11.3206C11.5722 9.66605 11.7657 9.60219 11.9011 9.47447C12.0366 9.34288 12.1043 9.14356 12.1043 8.87651V3.16976C12.1043 2.89884 12.0366 2.69952 11.9011 2.5718C11.7657 2.44021 11.5722 2.37442 11.3206 2.37442H5.81124C5.60225 2.37442 5.42034 2.36087 5.26553 2.33378C5.11459 2.30282 4.97332 2.25444 4.84173 2.18865C4.71401 2.12285 4.58049 2.03383 4.44116 1.9216L4.12767 1.66616C3.95737 1.52683 3.79676 1.43007 3.64581 1.37588C3.49874 1.31783 3.31877 1.2888 3.10591 1.2888H2.06674C1.81904 1.2888 1.62746 1.35653 1.492 1.49199C1.35654 1.62358 1.28881 1.81323 1.28881 2.06093V8.87651C1.28881 9.14356 1.3546 9.34288 1.48619 9.47447C1.62165 9.60219 1.8171 9.66605 2.07254 9.66605ZM0.818567 4.60951V3.51228H12.592V4.60951H0.818567Z" fill="#727272"/>
</svg>
