<svg xmlns="http://www.w3.org/2000/svg" width="21" height="20" fill="none" viewBox="0 0 21 20">
  <path fill="#727272" d="m11.273 5.321-.016-2.82H3.72v13.616l6.743.003c.06 0 .182.122.175.179a.863.863 0 0 1-.124.294h-7.03c-.105 0-.218-.158-.218-.272V2.304c0-.12.106-.272.214-.272h8.085c.254.25.453.475.675.72l1.161 1.28 1.084 1.214-.013 3.92c-.04.071-.251.13-.312.094-.061-.036-.13-.177-.131-.27l-.007-3.412-2.537-.004c-.086 0-.21-.169-.212-.253Zm2.414-.244-.678-.778-1.037-1.147c-.067-.075-.219-.223-.262-.142l.004 2.088 1.972-.021Z"/>
  <path fill="#727272" d="M10.822 14.752a4.506 4.506 0 0 1-.007-1.603c.393-2.122 2.266-3.516 4.28-3.315 2.007.2 3.548 1.948 3.577 4.038.029 2.112-1.47 3.906-3.473 4.157-2.035.256-3.968-1.108-4.377-3.277Zm.408-.42c.148 1.758 1.535 3.058 3.078 3.23 1.69.19 3.183-.868 3.71-2.429.569-1.681-.137-3.48-1.532-4.334a3.41 3.41 0 0 0-4.394.708c-.679.793-.956 1.724-.863 2.825ZM9.264 8.533c-.01-1.031-.765-1.901-1.74-1.93-.98-.03-1.83.78-1.85 1.844-.002.115-.134.239-.22.237-.516-.013-.212-1.61.958-2.302a.68.68 0 0 0 .111-.091c.018-.019-.02-.058-.06-.098-.581-.598-.588-1.595.005-2.182a1.389 1.389 0 0 1 2.053.068c.562.647.518 1.59-.173 2.227.923.301 1.723 2.031 1.2 2.367-.056.037-.283-.038-.284-.14ZM7.187 4.118c-.56.175-.822.778-.648 1.315.158.487.709.817 1.19.657.506-.169.833-.72.683-1.25-.149-.53-.663-.898-1.225-.723v.001Zm2.356 6.319h-4.06c-.117 0-.258-.083-.28-.169-.03-.124.085-.305.233-.305h4.078c.062 0 .193.126.206.188.016.075-.073.204-.177.285Zm-.013 1.949-4.088.002c-.095 0-.237-.153-.242-.235-.009-.13.126-.252.28-.252h3.985c.105 0 .24.107.262.186.023.078-.099.298-.198.298v.001Zm.073 1.79-4.24.004c-.075 0-.176-.178-.165-.246.014-.082.149-.226.255-.226H9.48c.093 0 .203.122.242.174.04.052-.05.295-.118.295Z"/>
  <path fill="#727272" d="m13.991 15.194-.973-1.02c-.054-.058-.04-.239-.012-.288.035-.062.24-.088.292-.036l.845.84 1.799-1.858c.076-.079.33-.086.38 0 .068.115.01.274-.085.374l-1.938 2.012c-.05.052-.235.053-.308-.023Z"/>
</svg>
