<svg xmlns="http://www.w3.org/2000/svg" width="22" height="22" fill="none" viewBox="0 0 22 22">
  <path fill="#727272" d="m14.217 6.182-.298.782c-.167.44-.54.591-.959.665-.48.084-.931-.014-1.218-.455a.49.49 0 0 0-.713-.11.976.976 0 0 1-1.47-.335l-.532-1.077a11.37 11.37 0 0 0-.792.392c-.095.424-.219.77-.412 1.15.087.308.18.646.288.962l.777.586c.147.112.26.326.269.513.036.707.079.953-.366 1.454.604.462.82 1.149.734 1.89-.06.51-.338.923-.484 1.39-.097.518.107 1.103.067 1.634.42.44.986.706.699 1.429.471.204 1.327-.01 1.314.414-.005.164-.126.269-.307.26-2.366-.105-4.452-1.573-5.453-3.796-.278.226-.426.063-.739-.188-.093-.075-.103-.26-.052-.34a.261.261 0 0 1 .372-.07.95.95 0 0 0 .225.115c-.616-1.84-.453-3.82.49-5.494l-.327-.347c-.088-.093-.037-.317.06-.374.384-.228.478.476 1.047.475.244 0 .465-.173.627-.359.374-.427.601-.963.674-1.543.099-.78-.459-1.456-1.183-1.527-.73-.07-1.39.498-1.436 1.277-.032.528.302.968-.094 1.043-.332.063-.184-.209-.501-.486-.128-.11-.08-.33.079-.414a1.87 1.87 0 0 1 2.14-1.938c.086.012.264-.145.35-.097.07.04.144.183.186.275.522.322.883.8.988 1.482 2.371-1.198 5.131-.809 7.067.969.295-.37.705-.52 1.078-.664.078-.03.174-.194.247-.194.114 0 .206.081.3.182l.424.133a.297.297 0 0 1 .197.309.255.255 0 0 1-.344.198 1.292 1.292 0 0 0-1.322.2c-.92.751-.372 2.227.301 2.896.31.307.707.321 1.024.017.546-.523.998-1.568.72-2.358-.058-.163-.013-.33.13-.38.175-.06.303.046.365.222.182.511.096 1.028-.02 1.54.023.08.056.216.061.307.005.079-.203.132-.25.2-.26.38-.502.806-.919 1.063.366 2.212-.313 4.37-1.886 5.917.09.021.175-.008.271-.04.147-.047.298.01.34.164.092.329-.363.411-.626.466-.166.035-.27-.147-.29-.314a6.246 6.246 0 0 1-3.032 1.404c-.131.021-.257-.1-.28-.21a.266.266 0 0 1 .205-.305 6.057 6.057 0 0 0 1.537-.495c-.74-.515-1.162-1.358-1.277-2.229-.105-.794.281-1.554.918-1.913.719-.405 1.553-.292 2.186.29.228-.608.27-.844.02-1.41-.173-.394-.857-.07-1.21-.333l-.91-.675c-.542-.402-.51-1.299-.095-1.681a.902.902 0 0 1 .802-.221l.698.14a.461.461 0 0 0 .365-.103c-.173-.56-.227-1.1-.006-1.667a9.241 9.241 0 0 0-.837-.661l-.002-.002Zm-2.02.726c.174.264.435.237.693.19.214-.039.46-.08.548-.318l.32-.865a5.631 5.631 0 0 0-4.23-.433l.481.993c.144.296.494.337.727.157.474-.367 1.13-.23 1.461.276Zm-3.89 3.546.335-.398-.005-.846-.903-.668c-.129-.244-.205-.497-.298-.815-.357.384-.807.6-1.323.476a6.021 6.021 0 0 0-.791 2.75.93.93 0 0 1 .753.419c.47-.826 1.321-1.219 2.232-.918Zm7.442 2.862c.186.392.178.786.178 1.232.855-1.287 1.146-2.832.905-4.318-.77 0-1.215-.582-1.557-1.187-.162.047-.385.133-.55.101L13.967 9c-.135-.026-.301-.013-.407.072-.205.166-.247.661.025.865l.889.662c.201.15 1.3-.278 1.551.947.067.327.12.6.017.933a9.532 9.532 0 0 1-.292.838Zm-7.52.766c.45-.446.716-1.041.793-1.676.1-.832-.546-1.535-1.322-1.523-.796.012-1.408.738-1.285 1.573.093.632.363 1.225.808 1.646.302.286.697.286 1.006-.02Zm-2.33-2.05-.266-.372a.37.37 0 0 0-.311-.16c.025.579.108 1.046.277 1.586.05-.03.147-.124.157-.18l.144-.873v-.001Zm8.735 3.94c.428-.435.68-1.005.767-1.615.122-.851-.52-1.58-1.324-1.565-.777.014-1.396.732-1.28 1.56.088.619.348 1.195.772 1.625.313.318.737.328 1.065-.005Zm-8.628-1.976.515.14-.417-.776a2.476 2.476 0 0 0-.265.324c-.002.073.094.292.167.312Zm3.306 2.556-.677-.667-.115-1.344-.516.303c-.101.059-.145.25-.31.223-.086-.014-.18-.154-.265-.208-.256-.165-.483-.3-.71-.497-.007.192-.137.31-.337.333.322.438.666.85 1.079 1.164.135-.135.26-.175.377-.115.277.141-.03.439.3.626.33.188.702.376 1.061.5.048.017.157-.07.163-.122.004-.04-.019-.164-.05-.195Z"/>
  <path fill="#727272" d="M16.532 6.837c.45-.124.864.167.965.594a.813.813 0 0 1-.544.954c-.421.124-.844-.125-.967-.55-.123-.425.095-.874.546-.998Zm.05.557a.274.274 0 0 0-.033.414c.08.078.245.102.326.04.133-.102.156-.27.088-.373-.083-.128-.244-.179-.38-.082ZM6.293 4.839c.45-.086.828.235.903.621.089.461-.196.873-.603.953a.772.772 0 0 1-.917-.6c-.094-.42.15-.884.617-.974Zm.002.56c-.144.084-.153.279-.07.397.066.095.237.136.334.072a.302.302 0 0 0 .11-.367c-.055-.123-.23-.184-.374-.1V5.4Zm3.986 14.871c-.287 0-.842-.114-.729-.456a.262.262 0 0 1 .324-.166l.406.123c.076.023.168.15.18.222.014.08-.075.276-.181.276Zm3.735-1.909c-.053.135-.22.195-.344.148-.113-.042-.183-.22-.131-.349l.152-.384c.054-.135.196-.206.321-.168.126.038.214.218.162.349l-.16.404Zm-5.848-.447c.04.136-.045.3-.148.327-.14.037-.298-.024-.34-.169l-.123-.409c-.038-.13.042-.296.156-.333a.264.264 0 0 1 .339.188l.116.396Zm11.092-6.728c.016.248.082.757-.215.784-.118.01-.284-.088-.287-.223-.007-.336-.063-.715.245-.73.079-.004.25.079.256.169ZM8.977 19.09c.096.097.125.252.062.358-.052.086-.258.155-.342.084-.183-.157-.612-.492-.36-.728a.272.272 0 0 1 .362.003l.278.282Zm2.35 1.25c-.103.02-.237-.133-.241-.215-.005-.094.05-.27.133-.289l.479-.105a.259.259 0 0 1 .305.21c.02.122-.065.281-.202.308l-.474.09Zm7.775-10.271c.046.156-.075.314-.194.332a.278.278 0 0 1-.302-.204l-.11-.38c-.04-.134.028-.29.15-.335.113-.042.292.021.33.153l.126.434ZM3.245 9.978c.001.132-.139.254-.251.258-.332.01-.268-.485-.263-.722.002-.12.166-.23.262-.223.124.01.245.122.247.256l.004.431Zm9.681 9.72c-.103.09-.303.034-.356-.05a.294.294 0 0 1 .053-.381l.316-.265c.081-.069.247-.065.322-.005.099.078.13.297.036.38l-.371.321Zm5.19-4.915c-.081.105-.282.098-.366.011-.073-.074-.096-.25-.027-.346l.266-.369c.058-.082.249-.098.325-.05.292.189-.045.555-.197.753ZM16.93 15.89c-.098.073-.287.012-.345-.081-.067-.108-.04-.29.07-.368l.365-.261c.084-.06.293-.002.34.09.042.084.03.282-.05.341l-.38.28ZM9.28 2.914c-.135.038-.281-.036-.322-.156-.041-.12.026-.309.164-.347l.412-.114c.13-.036.28.087.296.204.02.135-.057.274-.187.311l-.362.102Zm1.772-.292-.43.023c-.12.006-.239-.13-.247-.245-.007-.109.09-.275.208-.28l.475-.022c.11-.004.225.16.227.259.003.114-.1.258-.232.265ZM3.392 8.51c-.04.14-.176.231-.295.213-.119-.019-.241-.16-.208-.303.04-.164.077-.295.128-.452.044-.134.213-.191.336-.147.111.04.18.2.143.328l-.104.36v.001Zm4.6-4.995c-.083.047-.254.019-.319-.054-.065-.074-.08-.3.005-.356.178-.121.616-.465.756-.156.061.136.019.303-.102.371l-.34.195ZM3.917 7.253c-.047.068-.22.097-.292.069-.087-.034-.19-.224-.139-.326.088-.174.18-.305.305-.46.067-.084.267-.066.338.002.082.078.106.257.042.35l-.254.365Zm14.973 6.16c-.034.084-.25.107-.322.062a.307.307 0 0 1-.117-.332l.137-.406c.038-.113.208-.184.305-.156.332.097.114.55-.002.831ZM3.543 11.472c.024.169-.17.24-.27.23-.278-.025-.367-.552-.333-.767.013-.077.173-.154.241-.146.235.026.324.419.361.683Zm11.749-7.828c.074.06.043.292-.018.353-.067.066-.248.096-.33.031l-.353-.28c-.075-.06-.084-.257-.03-.343.06-.095.258-.146.353-.068l.379.307Zm-11.028 8.99c.004.12-.01.274-.066.33-.056.055-.258.074-.312.017-.177-.188-.498-.535-.275-.75.061-.06.275-.086.33-.015l.323.418Zm9.509-9.382-.383-.17c-.114-.05-.174-.214-.142-.326.032-.111.205-.22.32-.168l.428.192c.084.037.128.224.104.307-.034.114-.192.224-.327.165Zm-1.354-.479-.404-.084c-.071-.014-.166-.13-.183-.199-.02-.078.051-.272.137-.284.235-.03.434.003.655.09.083.034.124.23.093.316-.035.1-.19.183-.298.16ZM16.302 4.7c.083.102.07.296-.003.363a.268.268 0 0 1-.398-.03l-.255-.32c-.066-.082-.038-.28.05-.355.08-.067.277-.064.354.032l.251.31Zm-8.898 6.808c.435-.175.88.019 1.04.438a.81.81 0 0 1-.438 1.04.773.773 0 0 1-.99-.39c-.18-.383-.042-.914.388-1.088Zm.228.477c-.174.06-.222.252-.16.366.063.12.212.184.315.152.155-.049.218-.212.178-.353a.263.263 0 0 0-.333-.165Zm6.365 1.366c.462-.063.829.287.878.695a.798.798 0 0 1-.674.899.785.785 0 0 1-.872-.668c-.066-.427.204-.863.668-.926Zm.01.541c-.181.084-.21.271-.126.413.053.089.214.145.345.084.1-.047.173-.227.12-.35-.05-.116-.208-.208-.34-.147Z"/>
</svg>
