<svg width="17" height="16" viewBox="0 0 17 16" fill="none" xmlns="http://www.w3.org/2000/svg">
<path d="M8.49129 8.42363C8.22485 8.42773 7.95021 8.39494 7.66737 8.32525C7.38863 8.25147 7.0812 8.13874 6.74507 7.98708L0.670207 5.20789C0.448855 5.11361 0.280792 4.97629 0.166017 4.79593C0.0553417 4.61147 3.86173e-06 4.41676 3.86173e-06 4.21181C3.86173e-06 4.00685 0.0553417 3.8142 0.166017 3.63383C0.280792 3.45347 0.448855 3.31411 0.670207 3.21573L6.74507 0.436537C7.0812 0.28897 7.38863 0.180344 7.66737 0.110659C7.95021 0.0368753 8.22485 0.00203292 8.49129 0.00613202C8.75773 0.00203292 9.03237 0.0368753 9.31521 0.110659C9.59804 0.180344 9.90753 0.28897 10.2437 0.436537L16.3185 3.21573C16.5399 3.31411 16.7059 3.45347 16.8166 3.63383C16.9313 3.8142 16.9887 4.00685 16.9887 4.21181C16.9887 4.41676 16.9313 4.61147 16.8166 4.79593C16.7059 4.97629 16.5399 5.11361 16.3185 5.20789L10.2437 7.98708C9.90753 8.13874 9.59804 8.25147 9.31521 8.32525C9.03237 8.39494 8.75773 8.42773 8.49129 8.42363ZM8.49129 7.23694C8.68804 7.23694 8.88685 7.2103 9.08771 7.15701C9.29266 7.09962 9.52426 7.01354 9.7825 6.89877L15.2732 4.40242C15.3675 4.35733 15.4147 4.29379 15.4147 4.21181C15.4147 4.13392 15.3675 4.07244 15.2732 4.02735L9.7825 1.531C9.52426 1.41212 9.29266 1.32604 9.08771 1.27275C8.88685 1.21947 8.68804 1.19282 8.49129 1.19282C8.29453 1.19282 8.09572 1.21947 7.89487 1.27275C7.69401 1.32604 7.46446 1.41212 7.20622 1.531L1.71548 4.02735C1.6212 4.07244 1.57406 4.13392 1.57406 4.21181C1.57406 4.29379 1.6212 4.35733 1.71548 4.40242L7.20622 6.89877C7.46446 7.01354 7.69401 7.09962 7.89487 7.15701C8.09572 7.2103 8.29453 7.23694 8.49129 7.23694ZM2.41642 8.78025V5.56451H3.59081V8.78025C3.59081 9.09179 3.70559 9.39307 3.93514 9.68411C4.16879 9.97104 4.50081 10.2272 4.93122 10.4527C5.36163 10.674 5.87811 10.8503 6.48068 10.9815C7.08325 11.1167 7.75345 11.1844 8.49129 11.1844C9.23322 11.1844 9.90343 11.1167 10.5019 10.9815C11.1045 10.8503 11.621 10.674 12.0514 10.4527C12.4859 10.2272 12.8179 9.97104 13.0474 9.68411C13.2811 9.39307 13.3979 9.09179 13.3979 8.78025V5.56451H14.5723V8.78025C14.5723 9.26805 14.4247 9.7251 14.1296 10.1514C13.8386 10.5736 13.4246 10.9446 12.8876 11.2643C12.3506 11.5881 11.7091 11.8402 10.963 12.0206C10.217 12.201 9.39309 12.2911 8.49129 12.2911C7.58949 12.2911 6.76557 12.201 6.01953 12.0206C5.27759 11.8402 4.63609 11.5881 4.095 11.2643C3.55802 10.9446 3.14401 10.5736 2.85298 10.1514C2.56194 9.7251 2.41642 9.26805 2.41642 8.78025ZM8.50973 4.99269C8.28018 4.99269 8.05883 4.95989 7.84568 4.89431C7.63663 4.82462 7.46446 4.73239 7.32919 4.61762C7.19802 4.49874 7.13244 4.36347 7.13244 4.21181C7.13244 4.06424 7.19802 3.93307 7.32919 3.81829C7.46446 3.70352 7.63663 3.61334 7.84568 3.54775C8.05883 3.48217 8.28018 3.44938 8.50973 3.44938C8.74338 3.44938 8.96473 3.48217 9.17379 3.54775C9.38694 3.61334 9.5591 3.70352 9.69027 3.81829C9.82145 3.93307 9.88703 4.06424 9.88703 4.21181C9.88703 4.36347 9.82145 4.49874 9.69027 4.61762C9.5591 4.73239 9.38899 4.82462 9.17994 4.89431C8.97088 4.95989 8.74748 4.99269 8.50973 4.99269ZM4.93122 6.48681L4.02737 6.00721L7.98095 3.95971L8.38676 4.67296L4.93122 6.48681ZM4.02737 12.494V6.03181L4.93122 6.48681V12.5002L4.02737 12.494ZM3.48629 12.6416C3.48629 12.3834 3.56417 12.1743 3.71994 12.0144C3.8798 11.8587 4.0909 11.7808 4.35325 11.7808H4.59919C4.85744 11.7808 5.06444 11.8587 5.22021 12.0144C5.38007 12.1743 5.46 12.3834 5.46 12.6416V14.2894C5.46 14.5518 5.38007 14.7608 5.22021 14.9166C5.06444 15.0765 4.85744 15.1564 4.59919 15.1564H4.35325C4.0909 15.1564 3.8798 15.0765 3.71994 14.9166C3.56417 14.7608 3.48629 14.5518 3.48629 14.2894V12.6416Z" fill="#727272"/>
</svg>
