<svg width="16" height="13" viewBox="0 0 16 13" fill="none" xmlns="http://www.w3.org/2000/svg">
<path d="M7.10192 9.13766H6.20516L4.46318 10.6683C4.25016 10.8539 4.0629 10.9879 3.90142 11.0703C3.74337 11.1528 3.57673 11.194 3.4015 11.194C3.14725 11.194 2.94797 11.1133 2.80366 10.9518C2.65936 10.7903 2.5872 10.5687 2.5872 10.287V9.13766H2.43774C1.96016 9.13766 1.53755 9.0363 1.16991 8.83359C0.80571 8.63087 0.518816 8.34054 0.309229 7.9626C0.103077 7.58465 1.65822e-06 7.13455 1.65822e-06 6.6123V2.52535C1.65822e-06 2.00654 0.101359 1.55816 0.304075 1.18021C0.506791 0.802269 0.795403 0.51194 1.16991 0.309224C1.54786 0.103072 1.99967 -3.2261e-06 2.52536 -3.2261e-06H8.9882C9.51389 -3.2261e-06 9.96571 0.103072 10.3437 0.309224C10.7216 0.51194 11.0102 0.802269 11.2095 1.18021C11.4122 1.55816 11.5136 2.00654 11.5136 2.52535V3.38088H10.1839V2.60781C10.1839 2.1852 10.0774 1.86739 9.86435 1.65436C9.65476 1.4379 9.33694 1.32967 8.9109 1.32967H2.60782C2.17834 1.32967 1.85708 1.4379 1.64406 1.65436C1.43447 1.86739 1.32968 2.1852 1.32968 2.60781V6.535C1.32968 6.95761 1.43447 7.27542 1.64406 7.48845C1.85708 7.70147 2.17834 7.80798 2.60782 7.80798H3.24689C3.4015 7.80798 3.51832 7.84578 3.59734 7.92137C3.6798 7.99352 3.72104 8.11549 3.72104 8.28728V9.71488L5.33417 8.13267C5.4613 8.00554 5.5764 7.91965 5.67947 7.87498C5.78599 7.83032 5.92857 7.80798 6.10724 7.80798H6.56077L7.10192 9.13766ZM8.29244 10.1942C7.80112 10.1942 7.37851 10.1066 7.02461 9.93134C6.67415 9.75611 6.40444 9.50358 6.21547 9.17374C6.02993 8.84389 5.93716 8.44705 5.93716 7.98321V4.82909C5.93716 4.34807 6.02993 3.93577 6.21547 3.59219C6.40444 3.2486 6.67415 2.98576 7.02461 2.80366C7.37851 2.61812 7.80112 2.52535 8.29244 2.52535H13.2813C13.7761 2.52535 14.1987 2.61812 14.5491 2.80366C14.8996 2.98576 15.1676 3.2486 15.3531 3.59219C15.5421 3.93577 15.6366 4.34807 15.6366 4.82909V7.98321C15.6366 8.44705 15.5473 8.84389 15.3686 9.17374C15.1899 9.50358 14.9322 9.75611 14.5955 9.93134C14.2588 10.1066 13.8534 10.1942 13.3792 10.1942H13.2968V11.2868C13.2968 11.5617 13.2246 11.7816 13.0803 11.9465C12.936 12.1114 12.7384 12.1939 12.4876 12.1939C12.3296 12.1939 12.1612 12.1458 11.9826 12.0495C11.8039 11.9568 11.6201 11.8297 11.4311 11.6682L9.71489 10.1942H8.29244ZM8.48313 8.92635H9.72004C9.86435 8.92635 10.0087 8.95899 10.153 9.02428C10.2973 9.08612 10.4313 9.17717 10.555 9.29743L12.1629 10.7766V9.45204C12.1629 9.28368 12.211 9.15484 12.3072 9.06551C12.4034 8.97274 12.5271 8.92635 12.6783 8.92635H13.0958C13.5046 8.92635 13.8139 8.81984 14.0235 8.60682C14.233 8.3938 14.3378 8.08972 14.3378 7.6946V5.03009C14.3378 4.63153 14.233 4.32574 14.0235 4.11272C13.8139 3.89969 13.5046 3.79318 13.0958 3.79318H8.48313C8.07083 3.79318 7.75989 3.89969 7.5503 4.11272C7.34415 4.32574 7.24107 4.63153 7.24107 5.03009V7.6946C7.24107 8.08972 7.34415 8.3938 7.5503 8.60682C7.75989 8.81984 8.07083 8.92635 8.48313 8.92635Z" fill="#727272"/>
</svg>
