<svg width="20" height="10" viewBox="0 0 20 10" fill="none" xmlns="http://www.w3.org/2000/svg">
<path d="M6.76903 9.57947C5.80725 9.57947 5.32637 9.23171 5.32637 8.53617C5.32637 8.15013 5.43785 7.76741 5.66082 7.38803C5.8838 7.00531 6.19496 6.66087 6.59431 6.3547C6.99699 6.0452 7.47122 5.79727 8.017 5.61091C8.56279 5.42454 9.15849 5.33136 9.80411 5.33136C10.4531 5.33136 11.0488 5.42454 11.5912 5.61091C12.137 5.79727 12.6112 6.0452 13.0139 6.3547C13.4166 6.66087 13.7294 7.00531 13.9524 7.38803C14.1754 7.76741 14.2868 8.15013 14.2868 8.53617C14.2868 9.23171 13.806 9.57947 12.8442 9.57947H6.76903ZM6.84391 8.36145H12.7693C12.8092 8.36145 12.8359 8.35313 12.8492 8.33649C12.8658 8.31985 12.8741 8.29655 12.8741 8.2666C12.8741 8.12017 12.8042 7.95045 12.6645 7.75743C12.528 7.56441 12.3283 7.37638 12.0654 7.19334C11.8025 7.00698 11.4797 6.85389 11.097 6.73409C10.7176 6.61428 10.2867 6.55438 9.80411 6.55438C9.32156 6.55438 8.89059 6.61428 8.5112 6.73409C8.13182 6.85389 7.81067 7.00698 7.54776 7.19334C7.28486 7.37638 7.08352 7.56441 6.94374 7.75743C6.8073 7.95045 6.73908 8.12017 6.73908 8.2666C6.73908 8.29655 6.74573 8.31985 6.75904 8.33649C6.77568 8.35313 6.80397 8.36145 6.84391 8.36145ZM9.80411 4.86712C9.38146 4.86712 8.99875 4.75896 8.65597 4.54264C8.31319 4.323 8.0403 4.02847 7.83729 3.65907C7.63429 3.28634 7.53279 2.87368 7.53279 2.42108C7.52946 1.97847 7.63096 1.57412 7.83729 1.20805C8.04363 0.841975 8.31818 0.549116 8.66096 0.329472C9.00706 0.109828 9.38811 6.5444e-06 9.80411 6.5444e-06C10.2234 6.5444e-06 10.6045 0.109828 10.9473 0.329472C11.2934 0.545788 11.5679 0.836983 11.7709 1.20306C11.9772 1.56913 12.0804 1.97347 12.0804 2.41609C12.0804 2.87202 11.9789 3.28634 11.7759 3.65907C11.5729 4.02847 11.3 4.323 10.9572 4.54264C10.6145 4.75896 10.2301 4.86712 9.80411 4.86712ZM9.80411 3.65408C9.99713 3.65408 10.1718 3.60083 10.3283 3.49434C10.488 3.38452 10.6145 3.23643 10.7076 3.05006C10.8008 2.86037 10.8474 2.64904 10.8474 2.41609C10.8474 2.19312 10.7992 1.99178 10.7026 1.81207C10.6095 1.62903 10.483 1.48427 10.3233 1.37777C10.1669 1.27128 9.9938 1.21803 9.80411 1.21803C9.62107 1.21803 9.44968 1.27128 9.28994 1.37777C9.1302 1.48427 9.00207 1.62903 8.90556 1.81207C8.80905 1.99178 8.76246 2.19312 8.76579 2.41609C8.76579 2.65237 8.81238 2.8637 8.90556 3.05006C9.00207 3.23643 9.12853 3.38452 9.28495 3.49434C9.44469 3.60083 9.61774 3.65408 9.80411 3.65408ZM1.25297 9.58447C0.836978 9.58447 0.524152 9.48796 0.314492 9.29494C0.104832 9.10524 2.12854e-06 8.83235 2.12854e-06 8.47626C2.12854e-06 8.0636 0.101504 7.66924 0.304508 7.29318C0.507513 6.9138 0.787059 6.57767 1.14315 6.28482C1.50257 5.99196 1.91856 5.76067 2.39113 5.59094C2.86369 5.41789 3.3712 5.33136 3.91366 5.33136C4.12664 5.33136 4.35461 5.35299 4.59755 5.39626C4.84382 5.43619 5.08675 5.49277 5.32637 5.56598C5.56598 5.63587 5.78562 5.71907 5.9853 5.81558C5.77564 5.94204 5.59759 6.08348 5.45116 6.23989C5.30473 6.39297 5.18493 6.5627 5.09175 6.74906C4.99856 6.70913 4.88209 6.67252 4.74231 6.63924C4.60254 6.60596 4.45777 6.57934 4.30802 6.55937C4.16159 6.53608 4.03013 6.52443 3.91366 6.52443C3.55424 6.52443 3.21812 6.57601 2.90529 6.67918C2.59247 6.77902 2.31791 6.91546 2.08163 7.08851C1.84534 7.25824 1.66231 7.44793 1.53252 7.65759C1.40273 7.86725 1.33783 8.08024 1.33783 8.29655C1.33783 8.31985 1.34282 8.34148 1.35281 8.36145C1.36612 8.37809 1.39108 8.38641 1.42769 8.38641H4.49272C4.47275 8.59607 4.50603 8.81904 4.59256 9.05532C4.68241 9.29161 4.82052 9.46799 5.00688 9.58447H1.25297ZM3.91865 4.95697C3.54592 4.95697 3.20813 4.86046 2.90529 4.66744C2.60578 4.47442 2.36617 4.21484 2.18646 3.8887C2.01008 3.56256 1.92022 3.19982 1.91689 2.80047C1.91689 2.4111 2.00675 2.05501 2.18646 1.7322C2.36617 1.40939 2.60744 1.15314 2.91028 0.963444C3.21645 0.770424 3.55258 0.673914 3.91865 0.673914C4.28139 0.673914 4.61252 0.770424 4.91204 0.963444C5.21488 1.15314 5.45616 1.40939 5.63586 1.7322C5.8189 2.05168 5.91042 2.40611 5.91042 2.79547C5.91042 3.19483 5.82056 3.55924 5.64086 3.8887C5.46448 4.21484 5.22486 4.47442 4.92202 4.66744C4.61918 4.86046 4.28472 4.95697 3.91865 4.95697ZM3.91865 3.75891C4.06175 3.75891 4.1932 3.71731 4.31301 3.63411C4.43614 3.55092 4.53432 3.4361 4.60753 3.28967C4.68075 3.14324 4.71735 2.97851 4.71735 2.79547C4.71735 2.62242 4.67908 2.46601 4.60254 2.32623C4.52933 2.18646 4.43115 2.07498 4.30802 1.99178C4.18821 1.90858 4.05842 1.86698 3.91865 1.86698C3.77555 1.86698 3.64243 1.90858 3.5193 1.99178C3.39616 2.07498 3.29799 2.18813 3.22477 2.33123C3.15156 2.471 3.11495 2.62741 3.11495 2.80047C3.11495 2.9835 3.15156 3.14824 3.22477 3.29466C3.29799 3.43777 3.3945 3.55092 3.5143 3.63411C3.63744 3.71731 3.77222 3.75891 3.91865 3.75891ZM18.3602 9.58447H14.6063C14.796 9.46799 14.9341 9.29161 15.0206 9.05532C15.1105 8.81904 15.1454 8.59607 15.1255 8.38641H18.1855C18.2255 8.38641 18.2521 8.37809 18.2654 8.36145C18.2787 8.34148 18.2854 8.31985 18.2854 8.29655C18.2854 8.08024 18.2188 7.86725 18.0857 7.65759C17.9526 7.44793 17.7679 7.25824 17.5316 7.08851C17.2986 6.91546 17.0257 6.77902 16.7129 6.67918C16.4001 6.57601 16.0623 6.52443 15.6995 6.52443C15.5864 6.52443 15.4549 6.53608 15.3052 6.55937C15.1588 6.57934 15.0157 6.60596 14.8759 6.63924C14.7361 6.67252 14.6213 6.70913 14.5314 6.74906C14.4349 6.5627 14.3135 6.39297 14.167 6.23989C14.0206 6.08348 13.8426 5.94204 13.6329 5.81558C13.8326 5.71907 14.0522 5.63587 14.2918 5.56598C14.5314 5.49277 14.7727 5.43619 15.0157 5.39626C15.2619 5.35299 15.4899 5.33136 15.6995 5.33136C16.2453 5.33136 16.7545 5.41789 17.2271 5.59094C17.6996 5.76067 18.114 5.99196 18.4701 6.28482C18.8295 6.57767 19.1107 6.9138 19.3137 7.29318C19.5167 7.66924 19.6182 8.0636 19.6182 8.47626C19.6182 8.83235 19.5134 9.10524 19.3037 9.29494C19.094 9.48796 18.7796 9.58447 18.3602 9.58447ZM15.6995 4.95697C15.3335 4.95697 14.999 4.86046 14.6962 4.66744C14.3933 4.47442 14.1521 4.21484 13.9723 3.8887C13.796 3.55924 13.7078 3.19483 13.7078 2.79547C13.7078 2.40611 13.7976 2.05168 13.9773 1.7322C14.157 1.40939 14.3983 1.15314 14.7012 0.963444C15.004 0.770424 15.3368 0.673914 15.6995 0.673914C16.0656 0.673914 16.4001 0.770424 16.7029 0.963444C17.0091 1.15314 17.252 1.40939 17.4317 1.7322C17.6114 2.05501 17.7013 2.4111 17.7013 2.80047C17.698 3.19982 17.6065 3.56256 17.4267 3.8887C17.247 4.21484 17.0074 4.47442 16.7079 4.66744C16.4084 4.86046 16.0723 4.95697 15.6995 4.95697ZM15.6995 3.75891C15.846 3.75891 15.9791 3.71731 16.0989 3.63411C16.222 3.55092 16.3202 3.43777 16.3934 3.29466C16.4666 3.14824 16.5032 2.9835 16.5032 2.80047C16.5032 2.62741 16.4666 2.471 16.3934 2.33123C16.3202 2.18813 16.222 2.07498 16.0989 1.99178C15.9758 1.90858 15.8426 1.86698 15.6995 1.86698C15.5598 1.86698 15.4283 1.90858 15.3052 1.99178C15.1854 2.07498 15.0872 2.18646 15.0107 2.32623C14.9374 2.46601 14.9008 2.62242 14.9008 2.79547C14.9008 2.97851 14.9374 3.14324 15.0107 3.28967C15.0839 3.4361 15.1804 3.55092 15.3002 3.63411C15.4233 3.71731 15.5564 3.75891 15.6995 3.75891Z" fill="#727272"/>
</svg>
