<svg width="18" height="18" viewBox="0 0 18 18" fill="none" xmlns="http://www.w3.org/2000/svg">
<path d="M11.0104 15.1784H3.37297C3.22388 15.1784 3.08089 15.1192 2.97546 15.0137C2.87004 14.9083 2.81081 14.7653 2.81081 14.6162V3.37298C2.81081 3.22389 2.87004 3.0809 2.97546 2.97548C3.08089 2.87005 3.22388 2.81082 3.37297 2.81082H14.6162C14.7653 2.81082 14.9083 2.87005 15.0137 2.97548C15.1192 3.0809 15.1784 3.22389 15.1784 3.37298V11.0104C15.1784 11.0842 15.1638 11.1573 15.1356 11.2255C15.1073 11.2937 15.0659 11.3557 15.0137 11.4079L11.4079 15.0137C11.3557 15.0659 11.2937 15.1073 11.2255 15.1356C11.1573 15.1638 11.0842 15.1784 11.0104 15.1784V15.1784Z" stroke="#727272" stroke-width="1.34919" stroke-linecap="round" stroke-linejoin="round"/>
<path d="M15.1279 11.2427H11.2432V15.1272" stroke="#727272" stroke-width="1.34919" stroke-linecap="round" stroke-linejoin="round"/>
</svg>
