<svg xmlns="http://www.w3.org/2000/svg" width="16" height="16" fill="none" viewBox="0 0 16 16">
  <g clip-path="url(#a)">
    <path fill="#727272" d="M0 3.743V3.43a.983.983 0 0 1 .403-.567L3.65.503a.814.814 0 0 1 .98-.01l3.333 2.422c.368.268.43.772.184 1.127-.247.355-.702.457-1.1.233l-.003 2.65a1.058 1.058 0 0 1-1.057 1.058H2.31c-.61 0-1.06-.495-1.06-1.089V4.276a.847.847 0 0 1-.806.026C.23 4.199.091 3.984 0 3.743Zm4.332-2.06 2.944 2.14a.32.32 0 0 0 .46-.065.314.314 0 0 0-.074-.446L4.346.902A.324.324 0 0 0 3.969.89L.635 3.312a.32.32 0 1 0 .385.512l2.956-2.147c.115-.084.227-.087.356.007Zm.21 2.685c.38 0 .646.292.646.654v2.46l.802.005a.574.574 0 0 0 .558-.596l-.001-2.98L4.15 2.167 1.75 3.91v3.013c.01.317.248.548.558.564l.803-.004-.001-2.461c0-.361.266-.652.634-.653l.799-.001Zm.146 3.115V4.991c-.014-.058-.075-.123-.127-.123h-.824c-.045 0-.128.067-.128.123v2.495l1.08-.003Zm8.972 8.211H9.98a1.05 1.05 0 0 1-1.053-1.034l-.006-2.671c-.395.22-.862.113-1.105-.242a.816.816 0 0 1 .192-1.122l3.355-2.436a.798.798 0 0 1 .934.012l3.337 2.423a.816.816 0 0 1 .202 1.106.818.818 0 0 1-1.116.256l-.003 2.643a1.06 1.06 0 0 1-1.058 1.066Zm-1.662-6.303 2.962 2.152a.318.318 0 0 0 .45-.077.32.32 0 0 0-.082-.448l-3.299-2.397c-.124-.09-.271-.104-.398-.012l-3.317 2.41a.318.318 0 0 0-.083.447c.098.14.296.19.45.077l2.974-2.16c.11-.08.22-.082.344.008Zm.244 2.69c.363.002.617.302.617.644v2.469l.77.004a.573.573 0 0 0 .59-.571v-3.004L11.823 9.88l-2.399 1.74-.003 3.007a.573.573 0 0 0 .591.572l.77-.005v-2.469c0-.358.274-.646.635-.645l.826.002Zm.119 3.113v-2.471c-.006-.07-.068-.146-.134-.146h-.813c-.062 0-.134.076-.134.146l.001 2.474 1.08-.003Zm.561-8.218-.971-1.234c-.085-.108-.04-.267.05-.335.098-.076.253-.075.339.03l.53.653.006-2.035a.354.354 0 0 0-.37-.367h-2.96a.246.246 0 0 1-.245-.24.25.25 0 0 1 .246-.258l3.018.004c.47 0 .808.411.809.856l.004 2.043.522-.647a.249.249 0 0 1 .354-.034c.084.067.127.227.04.338l-.975 1.235c-.104.131-.298.116-.396-.01l-.001.001Zm-6.586 6.169c.165 0 .26.127.258.252-.002.138-.11.247-.263.247l-2.962-.002a.838.838 0 0 1-.843-.822l-.005-2.093-.525.661a.25.25 0 0 1-.342.04c-.097-.074-.138-.235-.05-.348l.975-1.233a.251.251 0 0 1 .389.002l.964 1.222a.255.255 0 0 1-.02.34.246.246 0 0 1-.36-.021l-.527-.65-.004 2.049c0 .19.149.354.349.354l2.967.002h-.001Z"/>
  </g>
  <defs>
    <clipPath id="a">
      <path fill="#fff" d="M0 0h16v16H0z"/>
    </clipPath>
  </defs>
</svg>
