<svg width="16" height="16" viewBox="0 0 16 16" fill="none" xmlns="http://www.w3.org/2000/svg">
<path d="M11.8764 12.7859L7.25449 8.275C7.18054 8.20598 7.12878 8.13449 7.0992 8.06054C7.06962 7.98659 7.05483 7.89785 7.05483 7.79432V1.16841H8.23802V6.88474L13.0891 4.10422L13.6881 5.13212L8.7187 7.9718L12.7712 11.9577L11.8764 12.7859ZM7.63903 15.2781C6.58401 15.2781 5.59555 15.0784 4.67364 14.6791C3.75173 14.2847 2.94075 13.7374 2.24069 13.0374C1.54063 12.3422 0.990932 11.5337 0.591603 10.6118C0.197203 9.68497 3.50038e-06 8.69405 3.50038e-06 7.63903C3.50038e-06 6.58401 0.197203 5.59554 0.591603 4.67364C0.990932 3.7468 1.54063 2.93335 2.24069 2.23329C2.94075 1.53323 3.75173 0.985999 4.67364 0.5916C5.59555 0.1972 6.58401 6.30971e-07 7.63903 6.30971e-07C8.69405 6.30971e-07 9.68251 0.1972 10.6044 0.5916C11.5313 0.985999 12.3447 1.53323 13.0448 2.23329C13.7448 2.93335 14.2921 3.7468 14.6865 4.67364C15.0858 5.59554 15.2855 6.58401 15.2855 7.63903C15.2855 8.69405 15.0858 9.68497 14.6865 10.6118C14.2921 11.5337 13.7448 12.3422 13.0448 13.0374C12.3447 13.7374 11.5313 14.2847 10.6044 14.6791C9.68251 15.0784 8.69405 15.2781 7.63903 15.2781ZM7.63903 13.7695C8.48699 13.7695 9.28072 13.6092 10.0202 13.2888C10.7597 12.9733 11.4105 12.5345 11.9725 11.9725C12.5394 11.4105 12.9807 10.7597 13.2962 10.0202C13.6117 9.28071 13.7695 8.48699 13.7695 7.63903C13.7695 6.79107 13.6117 5.99734 13.2962 5.25784C12.9807 4.51341 12.5394 3.86265 11.9725 3.30556C11.4105 2.74354 10.7597 2.30477 10.0202 1.98925C9.28072 1.6688 8.48699 1.50858 7.63903 1.50858C6.796 1.50858 6.00227 1.6688 5.25784 1.98925C4.51834 2.30477 3.86758 2.74354 3.30556 3.30556C2.74355 3.86265 2.30231 4.51341 1.98186 5.25784C1.66634 5.99734 1.50858 6.79107 1.50858 7.63903C1.50858 8.48699 1.66634 9.28071 1.98186 10.0202C2.30231 10.7597 2.74355 11.4105 3.30556 11.9725C3.86758 12.5345 4.51834 12.9733 5.25784 13.2888C6.00227 13.6092 6.796 13.7695 7.63903 13.7695Z" fill="#727272"/>
</svg>
