<svg width="18" height="18" viewBox="0 0 18 18" fill="none" xmlns="http://www.w3.org/2000/svg">
<path d="M8.43893 0.0103907L8.9461 0C15.5872 0.195938 19.6816 7.56042 16.129 13.2931C12.7896 18.6809 4.99667 18.814 1.47524 13.5449C-2.32872 7.85333 1.66227 0.262734 8.43893 0.0103907ZM9.52055 7.92508V5.4249C9.52055 5.26706 9.2974 4.98008 9.16826 4.88805C8.83526 4.65055 8.32117 4.72081 8.08219 5.06073C8.05646 5.09734 7.92781 5.36651 7.92781 5.38779V7.92458H5.35391C5.23367 7.92458 4.92641 8.17148 4.85367 8.27638C4.60182 8.64005 4.728 9.16998 5.10057 9.40005C5.14709 9.42875 5.35341 9.51732 5.39102 9.51732H7.92781V12.0175C7.92781 12.0551 8.01638 12.2609 8.04508 12.3079C8.3375 12.7815 9.08266 12.7978 9.37953 12.3208C9.41367 12.2664 9.52055 12.0264 9.52055 11.9804V9.51732H11.9836C12.0296 9.51732 12.2696 9.40995 12.324 9.3763C12.8243 9.06458 12.7792 8.29617 12.2597 8.01909C12.2162 7.99583 12.0524 7.92458 12.0207 7.92458H9.52055V7.92508Z" fill="url(#paint0_linear_2_5553)"/>
<defs>
<linearGradient id="paint0_linear_2_5553" x1="8.71979" y1="0" x2="8.71979" y2="17.4166" gradientUnits="userSpaceOnUse">
<stop stop-color="#FF7D84"/>
<stop offset="1" stop-color="#CE2029"/>
</linearGradient>
</defs>
</svg>
